M48
;GenerationSoftware,Autodesk,EAGLE,9.6.2*%
;CreationDate,2025-05-05T15:19:03Z*%
FMAT,2
ICI,OFF
METRIC,TZ,000.000
T9C0.305
T8C0.889
T7C0.920
T6C1.000
T5C1.400
T4C2.300
T3C2.500
T2C3.000
T1C3.175
%
G90
M71
T1
X123190Y3810
X3810Y3810
X3810Y97790
X123190Y97790
T2
X25400Y22225
X25400Y79375
X101600Y22225
X101600Y79375
T3
X8970Y12080
X18970Y12080
X108030Y12080
X118030Y12080
T4
X117010Y62125
X117010Y48985
T5
X68480Y92670
X68480Y87670
X55980Y87670
X55980Y92670
X97690Y13930
X97690Y8930
X85190Y8930
X85190Y13930
T6
X25400Y62230
X25400Y64770
X25400Y67310
X25400Y69850
X25400Y74930
X25400Y59690
X101600Y72390
X101600Y67310
X101600Y64770
X101600Y62230
X101600Y59690
X101600Y54610
X101600Y52070
X101600Y49530
X101600Y69850
X101600Y44450
X101600Y41910
X101600Y39370
X101600Y36830
X101600Y34290
X101600Y31750
X101600Y29210
X101600Y26670
X101600Y46990
X25400Y72390
X101600Y74930
X25400Y26670
X11470Y5080
X13970Y5080
X16470Y5080
X25400Y29210
X25400Y31750
X25400Y36830
X25400Y34290
X25400Y39370
X110530Y5080
X113030Y5080
X115530Y5080
X25400Y41910
X25400Y44450
X25400Y49530
X25400Y46990
X25400Y52070
X25400Y54610
X25400Y57150
X101600Y57150
T7
X114300Y56555
X114300Y54555
X114300Y52055
X114300Y59055
T8
X69020Y59410
X66480Y56870
X66480Y59410
X63940Y56870
X63940Y59410
X61400Y56870
X61400Y59410
X58860Y56870
X58860Y59410
X56320Y56870
X81720Y59410
X53780Y56870
X53780Y59410
X51240Y56870
X51240Y59410
X48700Y56870
X48700Y59410
X46160Y56870
X46160Y59410
X43620Y56870
X43620Y59410
X41080Y56870
X41080Y59410
X38540Y56870
X38540Y59410
X56320Y59410
X63940Y34010
X81720Y31470
X81720Y34010
X79180Y31470
X79180Y34010
X76640Y31470
X76640Y34010
X74100Y31470
X74100Y34010
X71560Y31470
X71560Y34010
X69020Y31470
X69020Y34010
X66480Y31470
X66480Y34010
X63940Y31470
X61400Y31470
X61400Y34010
X58860Y31470
X58860Y34010
X56320Y31470
X56320Y34010
X53780Y31470
X53780Y34010
X51240Y31470
X51240Y34010
X48700Y31470
X48700Y34010
X46160Y31470
X46160Y34010
X43620Y31470
X43620Y34010
X41080Y31470
X41080Y34010
X38540Y31470
X38540Y34010
X81720Y56870
X79180Y56870
X79180Y59410
X76640Y56870
X76640Y59410
X74100Y56870
X74100Y59410
X71560Y56870
X71560Y59410
X69020Y56870
T9
X71501Y11176
X118110Y78740
X118110Y80010
X118110Y81280
X114300Y78740
X114300Y80010
X114300Y81280
X104891Y55880
X106680Y58420
X81280Y13970
X49530Y87630
X102870Y74930
X8890Y2540
X45085Y11430
X58293Y11176
X118110Y70485
X118110Y71755
X114300Y69215
X114300Y70485
X118110Y69215
X114300Y71755
M30