G04 EAGLE Gerber RS-274X export*
G75*
%MOMM*%
%FSLAX34Y34*%
%LPD*%
%INBottom Copper*%
%IPPOS*%
%AMOC8*
5,1,8,0,0,1.08239X$1,22.5*%
G01*
%ADD10R,1.524000X1.524000*%
%ADD11P,1.649562X8X202.500000*%
%ADD12C,1.400000*%
%ADD13C,4.016000*%
%ADD14C,1.960000*%
%ADD15R,1.288000X1.288000*%
%ADD16C,1.288000*%
%ADD17C,3.220000*%
%ADD18R,2.000000X4.100000*%
%ADD19C,4.445000*%
%ADD20C,1.016000*%
%ADD21C,0.609600*%
%ADD22C,0.254000*%
%ADD23C,0.381000*%

G36*
X2556Y3692D02*
X2556Y3692D01*
X2563Y3573D01*
X2576Y3535D01*
X2581Y3494D01*
X2624Y3384D01*
X2661Y3271D01*
X2683Y3236D01*
X2698Y3199D01*
X2767Y3103D01*
X2831Y3002D01*
X2861Y2974D01*
X2884Y2941D01*
X2976Y2865D01*
X3063Y2784D01*
X3098Y2764D01*
X3129Y2739D01*
X3237Y2688D01*
X3341Y2630D01*
X3381Y2620D01*
X3417Y2603D01*
X3534Y2581D01*
X3649Y2551D01*
X3709Y2547D01*
X3729Y2543D01*
X3750Y2545D01*
X3810Y2541D01*
X1265991Y2541D01*
X1266109Y2556D01*
X1266227Y2563D01*
X1266266Y2575D01*
X1266306Y2581D01*
X1266417Y2624D01*
X1266530Y2661D01*
X1266564Y2683D01*
X1266602Y2698D01*
X1266698Y2767D01*
X1266799Y2831D01*
X1266827Y2861D01*
X1266859Y2884D01*
X1266935Y2976D01*
X1267017Y3063D01*
X1267036Y3098D01*
X1267062Y3129D01*
X1267113Y3237D01*
X1267170Y3341D01*
X1267180Y3380D01*
X1267198Y3417D01*
X1267220Y3534D01*
X1267250Y3649D01*
X1267254Y3709D01*
X1267257Y3729D01*
X1267256Y3750D01*
X1267260Y3810D01*
X1267369Y558800D01*
X1267459Y1012190D01*
X1267444Y1012308D01*
X1267436Y1012427D01*
X1267424Y1012465D01*
X1267419Y1012505D01*
X1267375Y1012616D01*
X1267338Y1012729D01*
X1267317Y1012764D01*
X1267302Y1012801D01*
X1267232Y1012897D01*
X1267168Y1012998D01*
X1267139Y1013026D01*
X1267115Y1013058D01*
X1267023Y1013134D01*
X1266936Y1013216D01*
X1266901Y1013236D01*
X1266870Y1013261D01*
X1266762Y1013312D01*
X1266658Y1013370D01*
X1266619Y1013380D01*
X1266582Y1013397D01*
X1266465Y1013419D01*
X1266350Y1013449D01*
X1266290Y1013453D01*
X1266270Y1013457D01*
X1266250Y1013455D01*
X1266189Y1013459D01*
X3810Y1013459D01*
X3692Y1013444D01*
X3573Y1013437D01*
X3535Y1013424D01*
X3494Y1013419D01*
X3384Y1013376D01*
X3271Y1013339D01*
X3236Y1013317D01*
X3199Y1013302D01*
X3103Y1013233D01*
X3002Y1013169D01*
X2974Y1013139D01*
X2941Y1013116D01*
X2865Y1013024D01*
X2784Y1012937D01*
X2764Y1012902D01*
X2739Y1012871D01*
X2688Y1012763D01*
X2630Y1012659D01*
X2620Y1012619D01*
X2603Y1012583D01*
X2581Y1012466D01*
X2551Y1012351D01*
X2547Y1012291D01*
X2543Y1012271D01*
X2545Y1012250D01*
X2541Y1012190D01*
X2541Y3810D01*
X2556Y3692D01*
G37*
%LPC*%
G36*
X1192531Y963931D02*
X1192531Y963931D01*
X1192531Y939800D01*
X1192546Y939682D01*
X1192553Y939563D01*
X1192566Y939525D01*
X1192571Y939484D01*
X1192614Y939374D01*
X1192651Y939261D01*
X1192673Y939226D01*
X1192688Y939189D01*
X1192758Y939093D01*
X1192821Y938992D01*
X1192851Y938964D01*
X1192874Y938931D01*
X1192966Y938856D01*
X1193053Y938774D01*
X1193088Y938754D01*
X1193119Y938729D01*
X1193227Y938678D01*
X1193331Y938620D01*
X1193371Y938610D01*
X1193407Y938593D01*
X1193524Y938571D01*
X1193639Y938541D01*
X1193700Y938537D01*
X1193720Y938533D01*
X1193740Y938535D01*
X1193800Y938531D01*
X1243331Y938531D01*
X1243331Y77469D01*
X1193800Y77469D01*
X1193682Y77454D01*
X1193563Y77447D01*
X1193525Y77434D01*
X1193484Y77429D01*
X1193374Y77386D01*
X1193261Y77349D01*
X1193226Y77327D01*
X1193189Y77312D01*
X1193093Y77243D01*
X1192992Y77179D01*
X1192964Y77149D01*
X1192931Y77126D01*
X1192856Y77034D01*
X1192774Y76947D01*
X1192754Y76912D01*
X1192729Y76881D01*
X1192678Y76773D01*
X1192620Y76669D01*
X1192610Y76629D01*
X1192593Y76593D01*
X1192571Y76476D01*
X1192541Y76361D01*
X1192537Y76301D01*
X1192533Y76281D01*
X1192535Y76260D01*
X1192531Y76200D01*
X1192531Y50478D01*
X1192545Y50366D01*
X1192551Y50254D01*
X1192565Y50209D01*
X1192571Y50162D01*
X1192612Y50058D01*
X1192645Y49950D01*
X1192670Y49910D01*
X1192688Y49866D01*
X1192754Y49776D01*
X1192813Y49680D01*
X1192847Y49647D01*
X1192874Y49609D01*
X1192961Y49537D01*
X1193042Y49460D01*
X1193083Y49436D01*
X1193119Y49406D01*
X1193221Y49358D01*
X1193319Y49303D01*
X1193388Y49280D01*
X1193407Y49271D01*
X1193425Y49267D01*
X1193472Y49252D01*
X1199332Y47681D01*
X1203381Y43632D01*
X1204864Y38100D01*
X1203381Y32568D01*
X1199332Y28519D01*
X1193472Y26948D01*
X1193367Y26906D01*
X1193261Y26871D01*
X1193221Y26846D01*
X1193177Y26828D01*
X1193087Y26761D01*
X1192992Y26701D01*
X1192962Y26669D01*
X95758Y26669D01*
X95640Y26654D01*
X95521Y26647D01*
X95483Y26634D01*
X95442Y26629D01*
X95332Y26586D01*
X95219Y26549D01*
X95184Y26527D01*
X95147Y26512D01*
X95051Y26443D01*
X94950Y26379D01*
X94922Y26349D01*
X94889Y26326D01*
X94813Y26234D01*
X94732Y26147D01*
X94712Y26112D01*
X94687Y26081D01*
X94636Y25973D01*
X94578Y25869D01*
X94568Y25829D01*
X94551Y25793D01*
X94529Y25676D01*
X94499Y25561D01*
X94495Y25501D01*
X94491Y25481D01*
X94492Y25471D01*
X94491Y25468D01*
X94492Y25454D01*
X94489Y25400D01*
X94489Y24288D01*
X93638Y22234D01*
X92066Y20662D01*
X90012Y19811D01*
X87788Y19811D01*
X85734Y20662D01*
X84162Y22234D01*
X83311Y24288D01*
X83311Y25400D01*
X83296Y25518D01*
X83289Y25637D01*
X83276Y25675D01*
X83271Y25716D01*
X83228Y25826D01*
X83191Y25939D01*
X83169Y25974D01*
X83154Y26011D01*
X83085Y26107D01*
X83021Y26208D01*
X82991Y26236D01*
X82968Y26269D01*
X82876Y26345D01*
X82789Y26426D01*
X82754Y26446D01*
X82723Y26471D01*
X82615Y26522D01*
X82511Y26580D01*
X82471Y26590D01*
X82435Y26607D01*
X82318Y26629D01*
X82203Y26659D01*
X82143Y26663D01*
X82123Y26667D01*
X82102Y26665D01*
X82042Y26669D01*
X77032Y26669D01*
X76958Y26740D01*
X76952Y26744D01*
X76947Y26748D01*
X76912Y26768D01*
X76881Y26794D01*
X76779Y26842D01*
X76681Y26897D01*
X76672Y26900D01*
X76669Y26902D01*
X76658Y26905D01*
X76612Y26920D01*
X76593Y26929D01*
X76575Y26933D01*
X76528Y26948D01*
X70668Y28519D01*
X66619Y32568D01*
X65136Y38100D01*
X66619Y43632D01*
X70668Y47681D01*
X76528Y49252D01*
X76632Y49294D01*
X76739Y49329D01*
X76774Y49350D01*
X76811Y49365D01*
X76817Y49369D01*
X76823Y49372D01*
X76913Y49439D01*
X77008Y49499D01*
X77036Y49528D01*
X77069Y49552D01*
X77073Y49557D01*
X77078Y49561D01*
X77149Y49648D01*
X77226Y49731D01*
X77246Y49766D01*
X77271Y49797D01*
X77274Y49803D01*
X77278Y49808D01*
X77325Y49910D01*
X77380Y50009D01*
X77390Y50048D01*
X77407Y50085D01*
X77408Y50092D01*
X77411Y50098D01*
X77431Y50208D01*
X77459Y50317D01*
X77463Y50377D01*
X77467Y50397D01*
X77466Y50404D01*
X77467Y50411D01*
X77466Y50429D01*
X77469Y50478D01*
X77469Y111234D01*
X77457Y111333D01*
X77454Y111431D01*
X77437Y111490D01*
X77429Y111550D01*
X77393Y111642D01*
X77365Y111737D01*
X77335Y111789D01*
X77312Y111845D01*
X77254Y111926D01*
X77204Y112011D01*
X77138Y112086D01*
X77126Y112103D01*
X77116Y112111D01*
X77097Y112132D01*
X76949Y112280D01*
X74659Y117808D01*
X74659Y123792D01*
X76949Y129320D01*
X77097Y129468D01*
X77158Y129546D01*
X77226Y129619D01*
X77255Y129672D01*
X77292Y129720D01*
X77332Y129811D01*
X77380Y129897D01*
X77395Y129956D01*
X77419Y130011D01*
X77434Y130109D01*
X77459Y130205D01*
X77465Y130305D01*
X77469Y130325D01*
X77467Y130338D01*
X77469Y130366D01*
X77469Y963931D01*
X1192531Y963931D01*
G37*
%LPD*%
G36*
X1162168Y576596D02*
X1162168Y576596D01*
X1162287Y576603D01*
X1162325Y576616D01*
X1162366Y576621D01*
X1162476Y576664D01*
X1162589Y576701D01*
X1162624Y576723D01*
X1162661Y576738D01*
X1162757Y576808D01*
X1162858Y576871D01*
X1162886Y576901D01*
X1162919Y576924D01*
X1162995Y577016D01*
X1163076Y577103D01*
X1163096Y577138D01*
X1163121Y577169D01*
X1163172Y577277D01*
X1163230Y577381D01*
X1163240Y577421D01*
X1163257Y577457D01*
X1163279Y577574D01*
X1163309Y577689D01*
X1163313Y577750D01*
X1163317Y577770D01*
X1163315Y577790D01*
X1163319Y577850D01*
X1163319Y603034D01*
X1163316Y603063D01*
X1163318Y603093D01*
X1163296Y603221D01*
X1163279Y603350D01*
X1163269Y603377D01*
X1163264Y603406D01*
X1163210Y603524D01*
X1163162Y603645D01*
X1163145Y603669D01*
X1163133Y603696D01*
X1163052Y603797D01*
X1162976Y603903D01*
X1162953Y603921D01*
X1162934Y603944D01*
X1162831Y604022D01*
X1162731Y604105D01*
X1162704Y604118D01*
X1162680Y604136D01*
X1162536Y604207D01*
X1162014Y604423D01*
X1162005Y604425D01*
X1161997Y604430D01*
X1161853Y604467D01*
X1161708Y604507D01*
X1161698Y604507D01*
X1161689Y604509D01*
X1161529Y604519D01*
X1144269Y604519D01*
X1144269Y652781D01*
X1193800Y652781D01*
X1193918Y652796D01*
X1194037Y652803D01*
X1194075Y652816D01*
X1194116Y652821D01*
X1194226Y652864D01*
X1194339Y652901D01*
X1194374Y652923D01*
X1194411Y652938D01*
X1194507Y653008D01*
X1194608Y653071D01*
X1194636Y653101D01*
X1194669Y653124D01*
X1194745Y653216D01*
X1194826Y653303D01*
X1194846Y653338D01*
X1194871Y653369D01*
X1194922Y653477D01*
X1194980Y653581D01*
X1194990Y653621D01*
X1195007Y653657D01*
X1195029Y653774D01*
X1195059Y653889D01*
X1195063Y653950D01*
X1195067Y653970D01*
X1195065Y653990D01*
X1195069Y654050D01*
X1195069Y736600D01*
X1195054Y736718D01*
X1195047Y736837D01*
X1195034Y736875D01*
X1195029Y736916D01*
X1194986Y737026D01*
X1194949Y737139D01*
X1194927Y737174D01*
X1194912Y737211D01*
X1194843Y737307D01*
X1194779Y737408D01*
X1194749Y737436D01*
X1194726Y737469D01*
X1194634Y737545D01*
X1194547Y737626D01*
X1194512Y737646D01*
X1194481Y737671D01*
X1194373Y737722D01*
X1194269Y737780D01*
X1194229Y737790D01*
X1194193Y737807D01*
X1194076Y737829D01*
X1193961Y737859D01*
X1193901Y737863D01*
X1193881Y737867D01*
X1193860Y737865D01*
X1193800Y737869D01*
X1117600Y737869D01*
X1117482Y737854D01*
X1117363Y737847D01*
X1117325Y737834D01*
X1117284Y737829D01*
X1117174Y737786D01*
X1117061Y737749D01*
X1117026Y737727D01*
X1116989Y737712D01*
X1116893Y737643D01*
X1116792Y737579D01*
X1116764Y737549D01*
X1116731Y737526D01*
X1116656Y737434D01*
X1116574Y737347D01*
X1116554Y737312D01*
X1116529Y737281D01*
X1116478Y737173D01*
X1116420Y737069D01*
X1116410Y737029D01*
X1116393Y736993D01*
X1116371Y736876D01*
X1116341Y736761D01*
X1116337Y736701D01*
X1116333Y736681D01*
X1116335Y736660D01*
X1116331Y736600D01*
X1116331Y577850D01*
X1116346Y577732D01*
X1116353Y577613D01*
X1116366Y577575D01*
X1116371Y577534D01*
X1116414Y577424D01*
X1116451Y577311D01*
X1116473Y577276D01*
X1116488Y577239D01*
X1116558Y577143D01*
X1116621Y577042D01*
X1116651Y577014D01*
X1116674Y576981D01*
X1116766Y576906D01*
X1116853Y576824D01*
X1116888Y576804D01*
X1116919Y576779D01*
X1117027Y576728D01*
X1117131Y576670D01*
X1117171Y576660D01*
X1117207Y576643D01*
X1117324Y576621D01*
X1117439Y576591D01*
X1117500Y576587D01*
X1117520Y576583D01*
X1117540Y576585D01*
X1117600Y576581D01*
X1162050Y576581D01*
X1162168Y576596D01*
G37*
G36*
X1193918Y773446D02*
X1193918Y773446D01*
X1194037Y773453D01*
X1194075Y773466D01*
X1194116Y773471D01*
X1194226Y773514D01*
X1194339Y773551D01*
X1194374Y773573D01*
X1194411Y773588D01*
X1194507Y773658D01*
X1194608Y773721D01*
X1194636Y773751D01*
X1194669Y773774D01*
X1194745Y773866D01*
X1194826Y773953D01*
X1194846Y773988D01*
X1194871Y774019D01*
X1194922Y774127D01*
X1194980Y774231D01*
X1194990Y774271D01*
X1195007Y774307D01*
X1195029Y774424D01*
X1195059Y774539D01*
X1195063Y774600D01*
X1195067Y774620D01*
X1195065Y774640D01*
X1195069Y774700D01*
X1195069Y825500D01*
X1195054Y825618D01*
X1195047Y825737D01*
X1195034Y825775D01*
X1195029Y825816D01*
X1194986Y825926D01*
X1194949Y826039D01*
X1194927Y826074D01*
X1194912Y826111D01*
X1194843Y826207D01*
X1194779Y826308D01*
X1194749Y826336D01*
X1194726Y826369D01*
X1194634Y826445D01*
X1194547Y826526D01*
X1194512Y826546D01*
X1194481Y826571D01*
X1194373Y826622D01*
X1194269Y826680D01*
X1194229Y826690D01*
X1194193Y826707D01*
X1194076Y826729D01*
X1193961Y826759D01*
X1193901Y826763D01*
X1193881Y826767D01*
X1193860Y826765D01*
X1193800Y826769D01*
X1130300Y826769D01*
X1130182Y826754D01*
X1130063Y826747D01*
X1130025Y826734D01*
X1129984Y826729D01*
X1129874Y826686D01*
X1129761Y826649D01*
X1129726Y826627D01*
X1129689Y826612D01*
X1129593Y826543D01*
X1129492Y826479D01*
X1129464Y826449D01*
X1129431Y826426D01*
X1129356Y826334D01*
X1129274Y826247D01*
X1129254Y826212D01*
X1129229Y826181D01*
X1129178Y826073D01*
X1129120Y825969D01*
X1129110Y825929D01*
X1129093Y825893D01*
X1129071Y825776D01*
X1129041Y825661D01*
X1129037Y825601D01*
X1129033Y825581D01*
X1129035Y825560D01*
X1129034Y825556D01*
X1129033Y825551D01*
X1129034Y825545D01*
X1129031Y825500D01*
X1129031Y774700D01*
X1129046Y774582D01*
X1129053Y774463D01*
X1129066Y774425D01*
X1129071Y774384D01*
X1129114Y774274D01*
X1129151Y774161D01*
X1129173Y774126D01*
X1129188Y774089D01*
X1129258Y773993D01*
X1129321Y773892D01*
X1129351Y773864D01*
X1129374Y773831D01*
X1129466Y773756D01*
X1129553Y773674D01*
X1129588Y773654D01*
X1129619Y773629D01*
X1129727Y773578D01*
X1129831Y773520D01*
X1129871Y773510D01*
X1129907Y773493D01*
X1130024Y773471D01*
X1130139Y773441D01*
X1130200Y773437D01*
X1130220Y773433D01*
X1130240Y773435D01*
X1130300Y773431D01*
X1193800Y773431D01*
X1193918Y773446D01*
G37*
%LPC*%
G36*
X1151716Y776109D02*
X1151716Y776109D01*
X1151069Y776282D01*
X1150490Y776617D01*
X1150017Y777090D01*
X1149682Y777669D01*
X1149509Y778316D01*
X1149509Y782941D01*
X1149492Y783079D01*
X1149479Y783218D01*
X1149472Y783237D01*
X1149469Y783257D01*
X1149418Y783386D01*
X1149371Y783517D01*
X1149360Y783534D01*
X1149352Y783553D01*
X1149271Y783665D01*
X1149193Y783780D01*
X1149177Y783794D01*
X1149166Y783810D01*
X1149058Y783899D01*
X1148954Y783991D01*
X1148936Y784000D01*
X1148921Y784013D01*
X1148795Y784072D01*
X1148671Y784135D01*
X1148651Y784140D01*
X1148633Y784148D01*
X1148497Y784174D01*
X1148361Y784205D01*
X1148340Y784204D01*
X1148321Y784208D01*
X1148182Y784199D01*
X1148043Y784195D01*
X1148023Y784190D01*
X1148003Y784188D01*
X1147871Y784145D01*
X1147737Y784107D01*
X1147720Y784097D01*
X1147701Y784090D01*
X1147583Y784016D01*
X1147463Y783945D01*
X1147442Y783927D01*
X1147432Y783920D01*
X1147418Y783905D01*
X1147343Y783839D01*
X1146166Y782662D01*
X1144112Y781811D01*
X1141888Y781811D01*
X1139834Y782662D01*
X1138262Y784234D01*
X1137411Y786288D01*
X1137411Y788512D01*
X1138262Y790566D01*
X1139834Y792138D01*
X1140895Y792577D01*
X1140953Y792610D01*
X1140994Y792626D01*
X1141034Y792656D01*
X1141139Y792711D01*
X1141154Y792725D01*
X1141171Y792735D01*
X1141271Y792831D01*
X1141374Y792925D01*
X1141385Y792942D01*
X1141400Y792956D01*
X1141473Y793075D01*
X1141549Y793191D01*
X1141556Y793210D01*
X1141566Y793227D01*
X1141607Y793360D01*
X1141652Y793492D01*
X1141654Y793512D01*
X1141660Y793531D01*
X1141666Y793670D01*
X1141677Y793809D01*
X1141674Y793829D01*
X1141675Y793849D01*
X1141647Y793985D01*
X1141623Y794122D01*
X1141615Y794141D01*
X1141611Y794160D01*
X1141550Y794285D01*
X1141492Y794412D01*
X1141480Y794428D01*
X1141471Y794446D01*
X1141381Y794552D01*
X1141294Y794660D01*
X1141278Y794673D01*
X1141264Y794688D01*
X1141151Y794768D01*
X1141040Y794852D01*
X1141014Y794864D01*
X1141004Y794871D01*
X1140985Y794878D01*
X1140895Y794923D01*
X1139834Y795362D01*
X1138262Y796934D01*
X1137411Y798988D01*
X1137411Y801212D01*
X1138262Y803266D01*
X1139834Y804838D01*
X1140895Y805277D01*
X1140951Y805309D01*
X1140975Y805319D01*
X1141003Y805339D01*
X1141016Y805346D01*
X1141139Y805411D01*
X1141154Y805425D01*
X1141171Y805435D01*
X1141272Y805532D01*
X1141374Y805625D01*
X1141385Y805642D01*
X1141400Y805656D01*
X1141473Y805775D01*
X1141549Y805891D01*
X1141556Y805910D01*
X1141566Y805927D01*
X1141607Y806060D01*
X1141652Y806192D01*
X1141654Y806212D01*
X1141660Y806231D01*
X1141666Y806370D01*
X1141677Y806509D01*
X1141674Y806529D01*
X1141675Y806549D01*
X1141647Y806685D01*
X1141623Y806822D01*
X1141615Y806841D01*
X1141611Y806860D01*
X1141549Y806985D01*
X1141492Y807112D01*
X1141480Y807128D01*
X1141471Y807146D01*
X1141380Y807252D01*
X1141294Y807360D01*
X1141278Y807373D01*
X1141265Y807388D01*
X1141150Y807468D01*
X1141040Y807552D01*
X1141015Y807564D01*
X1141005Y807571D01*
X1140985Y807578D01*
X1140895Y807623D01*
X1139834Y808062D01*
X1138262Y809634D01*
X1137411Y811688D01*
X1137411Y813912D01*
X1138262Y815966D01*
X1139834Y817538D01*
X1141888Y818389D01*
X1144112Y818389D01*
X1146166Y817538D01*
X1147343Y816361D01*
X1147452Y816276D01*
X1147559Y816187D01*
X1147578Y816179D01*
X1147594Y816166D01*
X1147721Y816111D01*
X1147847Y816052D01*
X1147867Y816048D01*
X1147886Y816040D01*
X1148024Y816018D01*
X1148160Y815992D01*
X1148180Y815993D01*
X1148200Y815990D01*
X1148339Y816003D01*
X1148477Y816012D01*
X1148496Y816018D01*
X1148516Y816020D01*
X1148648Y816067D01*
X1148779Y816110D01*
X1148797Y816121D01*
X1148816Y816127D01*
X1148931Y816205D01*
X1149048Y816280D01*
X1149062Y816295D01*
X1149079Y816306D01*
X1149171Y816410D01*
X1149266Y816511D01*
X1149276Y816529D01*
X1149289Y816544D01*
X1149353Y816669D01*
X1149420Y816790D01*
X1149425Y816810D01*
X1149434Y816828D01*
X1149464Y816963D01*
X1149499Y817098D01*
X1149501Y817126D01*
X1149504Y817138D01*
X1149503Y817158D01*
X1149509Y817259D01*
X1149509Y819984D01*
X1149682Y820631D01*
X1150017Y821210D01*
X1150490Y821683D01*
X1151069Y822018D01*
X1151716Y822191D01*
X1159511Y822191D01*
X1159511Y800420D01*
X1159526Y800302D01*
X1159533Y800183D01*
X1159546Y800145D01*
X1159551Y800105D01*
X1159594Y799994D01*
X1159631Y799881D01*
X1159653Y799846D01*
X1159668Y799809D01*
X1159738Y799713D01*
X1159801Y799612D01*
X1159831Y799584D01*
X1159855Y799552D01*
X1159946Y799476D01*
X1160033Y799394D01*
X1160068Y799375D01*
X1160099Y799349D01*
X1160207Y799298D01*
X1160311Y799241D01*
X1160351Y799230D01*
X1160387Y799213D01*
X1160504Y799191D01*
X1160619Y799161D01*
X1160680Y799157D01*
X1160700Y799153D01*
X1160720Y799155D01*
X1160780Y799151D01*
X1163320Y799151D01*
X1163438Y799166D01*
X1163557Y799173D01*
X1163595Y799186D01*
X1163635Y799191D01*
X1163746Y799235D01*
X1163859Y799271D01*
X1163894Y799293D01*
X1163931Y799308D01*
X1164027Y799378D01*
X1164128Y799441D01*
X1164156Y799471D01*
X1164188Y799495D01*
X1164264Y799586D01*
X1164346Y799673D01*
X1164365Y799708D01*
X1164391Y799740D01*
X1164442Y799847D01*
X1164499Y799951D01*
X1164510Y799991D01*
X1164527Y800027D01*
X1164549Y800144D01*
X1164579Y800259D01*
X1164583Y800320D01*
X1164587Y800340D01*
X1164585Y800360D01*
X1164589Y800420D01*
X1164589Y822191D01*
X1172384Y822191D01*
X1173031Y822018D01*
X1173610Y821683D01*
X1174083Y821210D01*
X1174418Y820631D01*
X1174591Y819984D01*
X1174591Y817259D01*
X1174608Y817121D01*
X1174621Y816982D01*
X1174628Y816963D01*
X1174631Y816943D01*
X1174682Y816814D01*
X1174729Y816683D01*
X1174740Y816666D01*
X1174748Y816647D01*
X1174829Y816535D01*
X1174907Y816420D01*
X1174923Y816406D01*
X1174934Y816390D01*
X1175042Y816301D01*
X1175146Y816209D01*
X1175164Y816200D01*
X1175179Y816187D01*
X1175305Y816128D01*
X1175429Y816065D01*
X1175449Y816060D01*
X1175467Y816052D01*
X1175604Y816026D01*
X1175739Y815995D01*
X1175760Y815996D01*
X1175779Y815992D01*
X1175918Y816001D01*
X1176057Y816005D01*
X1176077Y816010D01*
X1176097Y816012D01*
X1176229Y816054D01*
X1176363Y816093D01*
X1176380Y816103D01*
X1176399Y816110D01*
X1176517Y816184D01*
X1176637Y816255D01*
X1176658Y816273D01*
X1176668Y816280D01*
X1176682Y816295D01*
X1176757Y816361D01*
X1177934Y817538D01*
X1179988Y818389D01*
X1182212Y818389D01*
X1184266Y817538D01*
X1185838Y815966D01*
X1186689Y813912D01*
X1186689Y811688D01*
X1185838Y809634D01*
X1184266Y808062D01*
X1183205Y807623D01*
X1183084Y807554D01*
X1182961Y807489D01*
X1182946Y807475D01*
X1182929Y807465D01*
X1182829Y807368D01*
X1182726Y807275D01*
X1182715Y807258D01*
X1182700Y807244D01*
X1182628Y807125D01*
X1182551Y807009D01*
X1182544Y806990D01*
X1182534Y806973D01*
X1182493Y806840D01*
X1182448Y806708D01*
X1182446Y806688D01*
X1182440Y806669D01*
X1182434Y806530D01*
X1182423Y806391D01*
X1182426Y806371D01*
X1182425Y806351D01*
X1182453Y806215D01*
X1182477Y806078D01*
X1182485Y806060D01*
X1182489Y806040D01*
X1182551Y805915D01*
X1182608Y805788D01*
X1182620Y805772D01*
X1182629Y805754D01*
X1182719Y805648D01*
X1182806Y805540D01*
X1182822Y805527D01*
X1182835Y805512D01*
X1182949Y805432D01*
X1183060Y805348D01*
X1183086Y805336D01*
X1183096Y805329D01*
X1183115Y805322D01*
X1183205Y805277D01*
X1184266Y804838D01*
X1185838Y803266D01*
X1186689Y801212D01*
X1186689Y798988D01*
X1185838Y796934D01*
X1184266Y795362D01*
X1183205Y794923D01*
X1183084Y794854D01*
X1182961Y794789D01*
X1182946Y794775D01*
X1182929Y794765D01*
X1182829Y794668D01*
X1182726Y794575D01*
X1182715Y794558D01*
X1182700Y794544D01*
X1182628Y794425D01*
X1182551Y794309D01*
X1182544Y794290D01*
X1182534Y794273D01*
X1182493Y794140D01*
X1182448Y794008D01*
X1182446Y793988D01*
X1182440Y793969D01*
X1182434Y793830D01*
X1182423Y793691D01*
X1182426Y793671D01*
X1182425Y793651D01*
X1182453Y793515D01*
X1182477Y793378D01*
X1182485Y793360D01*
X1182489Y793340D01*
X1182551Y793215D01*
X1182608Y793088D01*
X1182620Y793072D01*
X1182629Y793054D01*
X1182719Y792948D01*
X1182806Y792840D01*
X1182822Y792827D01*
X1182835Y792812D01*
X1182949Y792732D01*
X1182954Y792728D01*
X1182971Y792713D01*
X1182986Y792704D01*
X1183060Y792648D01*
X1183086Y792636D01*
X1183096Y792629D01*
X1183115Y792622D01*
X1183205Y792577D01*
X1184266Y792138D01*
X1185838Y790566D01*
X1186689Y788512D01*
X1186689Y786288D01*
X1185838Y784234D01*
X1184266Y782662D01*
X1182212Y781811D01*
X1179988Y781811D01*
X1177934Y782662D01*
X1176757Y783839D01*
X1176648Y783924D01*
X1176541Y784013D01*
X1176522Y784021D01*
X1176506Y784034D01*
X1176379Y784089D01*
X1176253Y784148D01*
X1176233Y784152D01*
X1176214Y784160D01*
X1176076Y784182D01*
X1175940Y784208D01*
X1175920Y784207D01*
X1175900Y784210D01*
X1175761Y784197D01*
X1175623Y784188D01*
X1175604Y784182D01*
X1175584Y784180D01*
X1175452Y784133D01*
X1175321Y784090D01*
X1175303Y784079D01*
X1175284Y784073D01*
X1175169Y783995D01*
X1175052Y783920D01*
X1175038Y783905D01*
X1175021Y783894D01*
X1174929Y783790D01*
X1174834Y783689D01*
X1174824Y783671D01*
X1174811Y783656D01*
X1174747Y783531D01*
X1174680Y783410D01*
X1174675Y783390D01*
X1174666Y783372D01*
X1174636Y783237D01*
X1174601Y783102D01*
X1174599Y783074D01*
X1174596Y783062D01*
X1174597Y783042D01*
X1174591Y782941D01*
X1174591Y778316D01*
X1174418Y777669D01*
X1174083Y777090D01*
X1173610Y776617D01*
X1173031Y776282D01*
X1172384Y776109D01*
X1164589Y776109D01*
X1164589Y797880D01*
X1164574Y797998D01*
X1164567Y798117D01*
X1164554Y798155D01*
X1164549Y798195D01*
X1164505Y798306D01*
X1164469Y798419D01*
X1164447Y798454D01*
X1164432Y798491D01*
X1164362Y798587D01*
X1164299Y798688D01*
X1164269Y798716D01*
X1164245Y798748D01*
X1164154Y798824D01*
X1164067Y798906D01*
X1164032Y798925D01*
X1164000Y798951D01*
X1163893Y799002D01*
X1163789Y799059D01*
X1163749Y799070D01*
X1163713Y799087D01*
X1163596Y799109D01*
X1163481Y799139D01*
X1163420Y799143D01*
X1163400Y799147D01*
X1163380Y799145D01*
X1163320Y799149D01*
X1160780Y799149D01*
X1160662Y799134D01*
X1160543Y799127D01*
X1160505Y799114D01*
X1160465Y799109D01*
X1160354Y799065D01*
X1160241Y799029D01*
X1160206Y799007D01*
X1160169Y798992D01*
X1160073Y798922D01*
X1159972Y798859D01*
X1159944Y798829D01*
X1159911Y798805D01*
X1159836Y798714D01*
X1159754Y798627D01*
X1159734Y798592D01*
X1159709Y798560D01*
X1159658Y798453D01*
X1159600Y798349D01*
X1159590Y798309D01*
X1159573Y798273D01*
X1159551Y798156D01*
X1159521Y798041D01*
X1159517Y797980D01*
X1159513Y797960D01*
X1159515Y797940D01*
X1159511Y797880D01*
X1159511Y776109D01*
X1151716Y776109D01*
G37*
%LPD*%
%LPC*%
G36*
X1179988Y686561D02*
X1179988Y686561D01*
X1177934Y687412D01*
X1176362Y688984D01*
X1176098Y689623D01*
X1176073Y689666D01*
X1176056Y689713D01*
X1175995Y689803D01*
X1175940Y689899D01*
X1175906Y689935D01*
X1175878Y689976D01*
X1175795Y690048D01*
X1175719Y690127D01*
X1175676Y690153D01*
X1175639Y690186D01*
X1175541Y690236D01*
X1175448Y690294D01*
X1175400Y690308D01*
X1175356Y690331D01*
X1175249Y690355D01*
X1175144Y690387D01*
X1175094Y690390D01*
X1175046Y690400D01*
X1174936Y690397D01*
X1174826Y690402D01*
X1174777Y690392D01*
X1174728Y690391D01*
X1174622Y690360D01*
X1174515Y690338D01*
X1174470Y690316D01*
X1174422Y690302D01*
X1174328Y690247D01*
X1174229Y690198D01*
X1174191Y690166D01*
X1174148Y690141D01*
X1174028Y690034D01*
X1173610Y689617D01*
X1173031Y689282D01*
X1172384Y689109D01*
X1164589Y689109D01*
X1164589Y709611D01*
X1174591Y709611D01*
X1174591Y709309D01*
X1174608Y709171D01*
X1174621Y709032D01*
X1174628Y709013D01*
X1174631Y708993D01*
X1174682Y708864D01*
X1174729Y708733D01*
X1174740Y708716D01*
X1174748Y708697D01*
X1174829Y708585D01*
X1174907Y708470D01*
X1174923Y708456D01*
X1174934Y708440D01*
X1175042Y708351D01*
X1175146Y708259D01*
X1175164Y708250D01*
X1175179Y708237D01*
X1175305Y708178D01*
X1175429Y708115D01*
X1175449Y708110D01*
X1175467Y708102D01*
X1175604Y708076D01*
X1175739Y708045D01*
X1175760Y708046D01*
X1175779Y708042D01*
X1175918Y708051D01*
X1176057Y708055D01*
X1176077Y708060D01*
X1176097Y708062D01*
X1176229Y708104D01*
X1176363Y708143D01*
X1176380Y708153D01*
X1176399Y708160D01*
X1176517Y708234D01*
X1176637Y708305D01*
X1176658Y708323D01*
X1176668Y708330D01*
X1176682Y708345D01*
X1176757Y708411D01*
X1177934Y709588D01*
X1178995Y710027D01*
X1179116Y710096D01*
X1179239Y710161D01*
X1179254Y710175D01*
X1179271Y710185D01*
X1179372Y710282D01*
X1179474Y710375D01*
X1179485Y710392D01*
X1179500Y710406D01*
X1179573Y710525D01*
X1179649Y710641D01*
X1179656Y710660D01*
X1179666Y710677D01*
X1179707Y710810D01*
X1179752Y710942D01*
X1179754Y710962D01*
X1179760Y710981D01*
X1179766Y711120D01*
X1179777Y711259D01*
X1179774Y711279D01*
X1179775Y711299D01*
X1179747Y711435D01*
X1179723Y711572D01*
X1179715Y711591D01*
X1179711Y711610D01*
X1179649Y711735D01*
X1179592Y711862D01*
X1179580Y711878D01*
X1179571Y711896D01*
X1179480Y712002D01*
X1179394Y712110D01*
X1179378Y712123D01*
X1179365Y712138D01*
X1179250Y712218D01*
X1179140Y712302D01*
X1179115Y712314D01*
X1179105Y712321D01*
X1179085Y712328D01*
X1178995Y712373D01*
X1177934Y712812D01*
X1176429Y714317D01*
X1176351Y714378D01*
X1176279Y714446D01*
X1176226Y714475D01*
X1176178Y714512D01*
X1176087Y714552D01*
X1176000Y714599D01*
X1175942Y714615D01*
X1175886Y714639D01*
X1175788Y714654D01*
X1175692Y714679D01*
X1175592Y714685D01*
X1175572Y714689D01*
X1175559Y714687D01*
X1175531Y714689D01*
X1164589Y714689D01*
X1164589Y735191D01*
X1172384Y735191D01*
X1173031Y735018D01*
X1173610Y734683D01*
X1174083Y734210D01*
X1174418Y733631D01*
X1174591Y732984D01*
X1174591Y722009D01*
X1174608Y721871D01*
X1174621Y721732D01*
X1174628Y721713D01*
X1174631Y721693D01*
X1174682Y721564D01*
X1174729Y721433D01*
X1174740Y721416D01*
X1174748Y721397D01*
X1174829Y721285D01*
X1174907Y721170D01*
X1174923Y721156D01*
X1174934Y721140D01*
X1175042Y721051D01*
X1175146Y720959D01*
X1175164Y720950D01*
X1175179Y720937D01*
X1175305Y720878D01*
X1175429Y720815D01*
X1175449Y720810D01*
X1175467Y720802D01*
X1175604Y720776D01*
X1175739Y720745D01*
X1175760Y720746D01*
X1175779Y720742D01*
X1175918Y720751D01*
X1176057Y720755D01*
X1176077Y720760D01*
X1176097Y720762D01*
X1176229Y720804D01*
X1176363Y720843D01*
X1176380Y720853D01*
X1176399Y720860D01*
X1176517Y720934D01*
X1176637Y721005D01*
X1176658Y721023D01*
X1176668Y721030D01*
X1176682Y721045D01*
X1176757Y721111D01*
X1177934Y722288D01*
X1179988Y723139D01*
X1182212Y723139D01*
X1184266Y722288D01*
X1185838Y720716D01*
X1186689Y718662D01*
X1186689Y716438D01*
X1185838Y714384D01*
X1184266Y712812D01*
X1183205Y712373D01*
X1183084Y712304D01*
X1182961Y712239D01*
X1182946Y712225D01*
X1182929Y712215D01*
X1182829Y712118D01*
X1182726Y712025D01*
X1182715Y712008D01*
X1182700Y711994D01*
X1182627Y711875D01*
X1182551Y711759D01*
X1182544Y711740D01*
X1182534Y711723D01*
X1182493Y711590D01*
X1182448Y711458D01*
X1182446Y711438D01*
X1182440Y711419D01*
X1182434Y711280D01*
X1182423Y711141D01*
X1182426Y711121D01*
X1182425Y711101D01*
X1182453Y710965D01*
X1182477Y710828D01*
X1182485Y710809D01*
X1182489Y710790D01*
X1182551Y710665D01*
X1182608Y710538D01*
X1182620Y710522D01*
X1182629Y710504D01*
X1182719Y710398D01*
X1182806Y710290D01*
X1182822Y710277D01*
X1182835Y710262D01*
X1182949Y710182D01*
X1183060Y710098D01*
X1183086Y710086D01*
X1183095Y710079D01*
X1183114Y710072D01*
X1183205Y710027D01*
X1184266Y709588D01*
X1185838Y708016D01*
X1186689Y705962D01*
X1186689Y703738D01*
X1185838Y701684D01*
X1184266Y700112D01*
X1183205Y699673D01*
X1183084Y699604D01*
X1182961Y699539D01*
X1182946Y699525D01*
X1182929Y699515D01*
X1182829Y699418D01*
X1182726Y699325D01*
X1182715Y699308D01*
X1182700Y699294D01*
X1182627Y699175D01*
X1182551Y699059D01*
X1182544Y699040D01*
X1182534Y699023D01*
X1182493Y698890D01*
X1182448Y698758D01*
X1182446Y698738D01*
X1182440Y698719D01*
X1182434Y698580D01*
X1182423Y698441D01*
X1182426Y698421D01*
X1182425Y698401D01*
X1182453Y698265D01*
X1182477Y698128D01*
X1182485Y698109D01*
X1182489Y698090D01*
X1182551Y697965D01*
X1182608Y697838D01*
X1182620Y697822D01*
X1182629Y697804D01*
X1182719Y697698D01*
X1182806Y697590D01*
X1182822Y697577D01*
X1182835Y697562D01*
X1182949Y697482D01*
X1183060Y697398D01*
X1183086Y697386D01*
X1183095Y697379D01*
X1183114Y697372D01*
X1183205Y697327D01*
X1184266Y696888D01*
X1185838Y695316D01*
X1186689Y693262D01*
X1186689Y691038D01*
X1185838Y688984D01*
X1184266Y687412D01*
X1182212Y686561D01*
X1179988Y686561D01*
G37*
%LPD*%
%LPC*%
G36*
X1141888Y686561D02*
X1141888Y686561D01*
X1139834Y687412D01*
X1138262Y688984D01*
X1137411Y691038D01*
X1137411Y693262D01*
X1138262Y695316D01*
X1139834Y696888D01*
X1140895Y697327D01*
X1141016Y697396D01*
X1141139Y697461D01*
X1141154Y697475D01*
X1141171Y697485D01*
X1141272Y697582D01*
X1141374Y697675D01*
X1141385Y697692D01*
X1141400Y697706D01*
X1141473Y697825D01*
X1141549Y697941D01*
X1141556Y697960D01*
X1141566Y697977D01*
X1141607Y698110D01*
X1141652Y698242D01*
X1141654Y698262D01*
X1141660Y698281D01*
X1141666Y698420D01*
X1141677Y698559D01*
X1141674Y698579D01*
X1141675Y698599D01*
X1141647Y698735D01*
X1141623Y698872D01*
X1141615Y698891D01*
X1141611Y698910D01*
X1141549Y699035D01*
X1141492Y699162D01*
X1141480Y699178D01*
X1141471Y699196D01*
X1141380Y699302D01*
X1141294Y699410D01*
X1141278Y699423D01*
X1141265Y699438D01*
X1141150Y699518D01*
X1141040Y699602D01*
X1141015Y699614D01*
X1141005Y699621D01*
X1140985Y699628D01*
X1140895Y699673D01*
X1139834Y700112D01*
X1138262Y701684D01*
X1137411Y703738D01*
X1137411Y705962D01*
X1138262Y708016D01*
X1139834Y709588D01*
X1140895Y710027D01*
X1141016Y710096D01*
X1141139Y710161D01*
X1141154Y710175D01*
X1141171Y710185D01*
X1141272Y710282D01*
X1141374Y710375D01*
X1141385Y710392D01*
X1141400Y710406D01*
X1141473Y710525D01*
X1141549Y710641D01*
X1141556Y710660D01*
X1141566Y710677D01*
X1141607Y710810D01*
X1141652Y710942D01*
X1141654Y710962D01*
X1141660Y710981D01*
X1141666Y711120D01*
X1141677Y711259D01*
X1141674Y711279D01*
X1141675Y711299D01*
X1141647Y711435D01*
X1141623Y711572D01*
X1141615Y711591D01*
X1141611Y711610D01*
X1141549Y711735D01*
X1141492Y711862D01*
X1141480Y711878D01*
X1141471Y711896D01*
X1141380Y712002D01*
X1141294Y712110D01*
X1141278Y712123D01*
X1141265Y712138D01*
X1141150Y712218D01*
X1141040Y712302D01*
X1141015Y712314D01*
X1141005Y712321D01*
X1140985Y712328D01*
X1140895Y712373D01*
X1139834Y712812D01*
X1138262Y714384D01*
X1137411Y716438D01*
X1137411Y718662D01*
X1138262Y720716D01*
X1139834Y722288D01*
X1141888Y723139D01*
X1144112Y723139D01*
X1146166Y722288D01*
X1147343Y721111D01*
X1147452Y721026D01*
X1147559Y720937D01*
X1147578Y720929D01*
X1147594Y720916D01*
X1147721Y720861D01*
X1147847Y720802D01*
X1147867Y720798D01*
X1147886Y720790D01*
X1148024Y720768D01*
X1148160Y720742D01*
X1148180Y720743D01*
X1148200Y720740D01*
X1148339Y720753D01*
X1148477Y720762D01*
X1148496Y720768D01*
X1148516Y720770D01*
X1148648Y720817D01*
X1148779Y720860D01*
X1148797Y720871D01*
X1148816Y720877D01*
X1148931Y720955D01*
X1149048Y721030D01*
X1149062Y721045D01*
X1149079Y721056D01*
X1149171Y721160D01*
X1149266Y721261D01*
X1149276Y721279D01*
X1149289Y721294D01*
X1149353Y721419D01*
X1149420Y721540D01*
X1149425Y721560D01*
X1149434Y721578D01*
X1149464Y721713D01*
X1149499Y721848D01*
X1149501Y721876D01*
X1149504Y721888D01*
X1149503Y721908D01*
X1149509Y722009D01*
X1149509Y732984D01*
X1149682Y733631D01*
X1150017Y734210D01*
X1150490Y734683D01*
X1151069Y735018D01*
X1151716Y735191D01*
X1159511Y735191D01*
X1159511Y714689D01*
X1148569Y714689D01*
X1148470Y714677D01*
X1148371Y714674D01*
X1148313Y714657D01*
X1148253Y714649D01*
X1148161Y714613D01*
X1148066Y714585D01*
X1148014Y714555D01*
X1147957Y714532D01*
X1147877Y714474D01*
X1147792Y714424D01*
X1147717Y714357D01*
X1147700Y714345D01*
X1147692Y714336D01*
X1147671Y714317D01*
X1146166Y712812D01*
X1145105Y712373D01*
X1144984Y712304D01*
X1144861Y712239D01*
X1144846Y712225D01*
X1144829Y712215D01*
X1144729Y712118D01*
X1144626Y712025D01*
X1144615Y712008D01*
X1144600Y711994D01*
X1144527Y711875D01*
X1144451Y711759D01*
X1144444Y711740D01*
X1144434Y711723D01*
X1144393Y711590D01*
X1144348Y711458D01*
X1144346Y711438D01*
X1144340Y711419D01*
X1144334Y711280D01*
X1144323Y711141D01*
X1144326Y711121D01*
X1144325Y711101D01*
X1144353Y710965D01*
X1144377Y710828D01*
X1144385Y710809D01*
X1144389Y710790D01*
X1144451Y710665D01*
X1144508Y710538D01*
X1144520Y710522D01*
X1144529Y710504D01*
X1144619Y710398D01*
X1144706Y710290D01*
X1144722Y710277D01*
X1144735Y710262D01*
X1144849Y710182D01*
X1144960Y710098D01*
X1144986Y710086D01*
X1144995Y710079D01*
X1145014Y710072D01*
X1145105Y710027D01*
X1146166Y709588D01*
X1147342Y708411D01*
X1147452Y708326D01*
X1147559Y708237D01*
X1147578Y708229D01*
X1147594Y708216D01*
X1147721Y708161D01*
X1147847Y708102D01*
X1147867Y708098D01*
X1147886Y708090D01*
X1148024Y708068D01*
X1148159Y708042D01*
X1148180Y708043D01*
X1148200Y708040D01*
X1148339Y708053D01*
X1148477Y708062D01*
X1148496Y708068D01*
X1148516Y708070D01*
X1148648Y708117D01*
X1148779Y708160D01*
X1148797Y708171D01*
X1148816Y708177D01*
X1148931Y708256D01*
X1149048Y708330D01*
X1149062Y708345D01*
X1149079Y708356D01*
X1149171Y708460D01*
X1149266Y708562D01*
X1149276Y708579D01*
X1149289Y708594D01*
X1149353Y708719D01*
X1149420Y708840D01*
X1149425Y708860D01*
X1149434Y708878D01*
X1149464Y709014D01*
X1149499Y709148D01*
X1149501Y709176D01*
X1149503Y709188D01*
X1149503Y709208D01*
X1149509Y709309D01*
X1149509Y709611D01*
X1159511Y709611D01*
X1159511Y689109D01*
X1151716Y689109D01*
X1151069Y689282D01*
X1150490Y689617D01*
X1150072Y690034D01*
X1150033Y690065D01*
X1150000Y690102D01*
X1149908Y690162D01*
X1149821Y690229D01*
X1149776Y690249D01*
X1149734Y690276D01*
X1149630Y690312D01*
X1149529Y690356D01*
X1149480Y690364D01*
X1149433Y690380D01*
X1149324Y690388D01*
X1149215Y690406D01*
X1149166Y690401D01*
X1149116Y690405D01*
X1149008Y690386D01*
X1148899Y690376D01*
X1148852Y690359D01*
X1148803Y690350D01*
X1148703Y690305D01*
X1148599Y690268D01*
X1148558Y690240D01*
X1148513Y690220D01*
X1148427Y690151D01*
X1148336Y690090D01*
X1148303Y690052D01*
X1148264Y690021D01*
X1148198Y689934D01*
X1148126Y689851D01*
X1148103Y689807D01*
X1148073Y689767D01*
X1148002Y689623D01*
X1147738Y688984D01*
X1146166Y687412D01*
X1144112Y686561D01*
X1141888Y686561D01*
G37*
%LPD*%
%LPC*%
G36*
X1188268Y968319D02*
X1188268Y968319D01*
X1184219Y972368D01*
X1182736Y977900D01*
X1184219Y983432D01*
X1188268Y987481D01*
X1193800Y988964D01*
X1199332Y987481D01*
X1203381Y983432D01*
X1204864Y977900D01*
X1203381Y972368D01*
X1199332Y968319D01*
X1193800Y966836D01*
X1188268Y968319D01*
G37*
%LPD*%
%LPC*%
G36*
X1234439Y980439D02*
X1234439Y980439D01*
X1234439Y1002536D01*
X1236055Y1002354D01*
X1238767Y1001735D01*
X1241392Y1000817D01*
X1243899Y999610D01*
X1246254Y998130D01*
X1248429Y996395D01*
X1250395Y994429D01*
X1252130Y992254D01*
X1253610Y989899D01*
X1254817Y987392D01*
X1255735Y984767D01*
X1256354Y982055D01*
X1256536Y980439D01*
X1234439Y980439D01*
G37*
%LPD*%
%LPC*%
G36*
X40639Y980439D02*
X40639Y980439D01*
X40639Y1002536D01*
X42255Y1002354D01*
X44967Y1001735D01*
X47592Y1000817D01*
X50099Y999610D01*
X52454Y998130D01*
X54629Y996395D01*
X56595Y994429D01*
X58330Y992254D01*
X59810Y989899D01*
X61017Y987392D01*
X61935Y984767D01*
X62554Y982055D01*
X62736Y980439D01*
X40639Y980439D01*
G37*
%LPD*%
%LPC*%
G36*
X40639Y40639D02*
X40639Y40639D01*
X40639Y62736D01*
X42255Y62554D01*
X44967Y61935D01*
X47592Y61017D01*
X50099Y59810D01*
X52454Y58330D01*
X54629Y56595D01*
X56595Y54629D01*
X58330Y52454D01*
X59810Y50099D01*
X61017Y47592D01*
X61935Y44967D01*
X62554Y42255D01*
X62736Y40639D01*
X40639Y40639D01*
G37*
%LPD*%
%LPC*%
G36*
X1234439Y40639D02*
X1234439Y40639D01*
X1234439Y62736D01*
X1236055Y62554D01*
X1238767Y61935D01*
X1241392Y61017D01*
X1243899Y59810D01*
X1246254Y58330D01*
X1248429Y56595D01*
X1250395Y54629D01*
X1252130Y52454D01*
X1253610Y50099D01*
X1254817Y47592D01*
X1255735Y44967D01*
X1256354Y42255D01*
X1256536Y40639D01*
X1234439Y40639D01*
G37*
%LPD*%
%LPC*%
G36*
X1207264Y980439D02*
X1207264Y980439D01*
X1207446Y982055D01*
X1208065Y984767D01*
X1208983Y987392D01*
X1210190Y989899D01*
X1211670Y992254D01*
X1213405Y994429D01*
X1215371Y996395D01*
X1217546Y998130D01*
X1219901Y999610D01*
X1222408Y1000817D01*
X1225033Y1001735D01*
X1227745Y1002354D01*
X1229361Y1002536D01*
X1229361Y980439D01*
X1207264Y980439D01*
G37*
%LPD*%
%LPC*%
G36*
X13464Y980439D02*
X13464Y980439D01*
X13646Y982055D01*
X14265Y984767D01*
X15183Y987392D01*
X16390Y989899D01*
X17870Y992254D01*
X19605Y994429D01*
X21571Y996395D01*
X23746Y998130D01*
X26101Y999610D01*
X28608Y1000817D01*
X31233Y1001735D01*
X33945Y1002354D01*
X35561Y1002536D01*
X35561Y980439D01*
X13464Y980439D01*
G37*
%LPD*%
%LPC*%
G36*
X40639Y975361D02*
X40639Y975361D01*
X62736Y975361D01*
X62554Y973745D01*
X61935Y971033D01*
X61017Y968408D01*
X59810Y965901D01*
X58330Y963546D01*
X56595Y961371D01*
X54629Y959405D01*
X52454Y957670D01*
X50099Y956190D01*
X47592Y954983D01*
X44967Y954065D01*
X42255Y953446D01*
X40639Y953264D01*
X40639Y975361D01*
G37*
%LPD*%
%LPC*%
G36*
X1234439Y975361D02*
X1234439Y975361D01*
X1256536Y975361D01*
X1256354Y973745D01*
X1255735Y971033D01*
X1254817Y968408D01*
X1253610Y965901D01*
X1252130Y963546D01*
X1250395Y961371D01*
X1248429Y959405D01*
X1246254Y957670D01*
X1243899Y956190D01*
X1241392Y954983D01*
X1238767Y954065D01*
X1236055Y953446D01*
X1234439Y953264D01*
X1234439Y975361D01*
G37*
%LPD*%
%LPC*%
G36*
X13464Y40639D02*
X13464Y40639D01*
X13646Y42255D01*
X14265Y44967D01*
X15183Y47592D01*
X16390Y50099D01*
X17870Y52454D01*
X19605Y54629D01*
X21571Y56595D01*
X23746Y58330D01*
X26101Y59810D01*
X28608Y61017D01*
X31233Y61935D01*
X33945Y62554D01*
X35561Y62736D01*
X35561Y40639D01*
X13464Y40639D01*
G37*
%LPD*%
%LPC*%
G36*
X1207264Y40639D02*
X1207264Y40639D01*
X1207446Y42255D01*
X1208065Y44967D01*
X1208983Y47592D01*
X1210190Y50099D01*
X1211670Y52454D01*
X1213405Y54629D01*
X1215371Y56595D01*
X1217546Y58330D01*
X1219901Y59810D01*
X1222408Y61017D01*
X1225033Y61935D01*
X1227745Y62554D01*
X1229361Y62736D01*
X1229361Y40639D01*
X1207264Y40639D01*
G37*
%LPD*%
%LPC*%
G36*
X1234439Y35561D02*
X1234439Y35561D01*
X1256536Y35561D01*
X1256354Y33945D01*
X1255735Y31233D01*
X1254817Y28608D01*
X1253610Y26101D01*
X1252130Y23746D01*
X1250395Y21571D01*
X1248429Y19605D01*
X1246254Y17870D01*
X1243899Y16390D01*
X1241392Y15183D01*
X1238767Y14265D01*
X1236055Y13646D01*
X1234439Y13464D01*
X1234439Y35561D01*
G37*
%LPD*%
%LPC*%
G36*
X40639Y35561D02*
X40639Y35561D01*
X62736Y35561D01*
X62554Y33945D01*
X61935Y31233D01*
X61017Y28608D01*
X59810Y26101D01*
X58330Y23746D01*
X56595Y21571D01*
X54629Y19605D01*
X52454Y17870D01*
X50099Y16390D01*
X47592Y15183D01*
X44967Y14265D01*
X42255Y13646D01*
X40639Y13464D01*
X40639Y35561D01*
G37*
%LPD*%
%LPC*%
G36*
X33945Y953446D02*
X33945Y953446D01*
X31233Y954065D01*
X28608Y954983D01*
X26101Y956190D01*
X23746Y957670D01*
X21571Y959405D01*
X19605Y961371D01*
X17870Y963546D01*
X16390Y965901D01*
X15183Y968408D01*
X14265Y971033D01*
X13646Y973745D01*
X13464Y975361D01*
X35561Y975361D01*
X35561Y953264D01*
X33945Y953446D01*
G37*
%LPD*%
%LPC*%
G36*
X1227745Y953446D02*
X1227745Y953446D01*
X1225033Y954065D01*
X1222408Y954983D01*
X1219901Y956190D01*
X1217546Y957670D01*
X1215371Y959405D01*
X1213405Y961371D01*
X1211670Y963546D01*
X1210190Y965901D01*
X1208983Y968408D01*
X1208065Y971033D01*
X1207446Y973745D01*
X1207264Y975361D01*
X1229361Y975361D01*
X1229361Y953264D01*
X1227745Y953446D01*
G37*
%LPD*%
%LPC*%
G36*
X1227745Y13646D02*
X1227745Y13646D01*
X1225033Y14265D01*
X1222408Y15183D01*
X1219901Y16390D01*
X1217546Y17870D01*
X1215371Y19605D01*
X1213405Y21571D01*
X1211670Y23746D01*
X1210190Y26101D01*
X1208983Y28608D01*
X1208065Y31233D01*
X1207446Y33945D01*
X1207264Y35561D01*
X1229361Y35561D01*
X1229361Y13464D01*
X1227745Y13646D01*
G37*
%LPD*%
%LPC*%
G36*
X33945Y13646D02*
X33945Y13646D01*
X31233Y14265D01*
X28608Y15183D01*
X26101Y16390D01*
X23746Y17870D01*
X21571Y19605D01*
X19605Y21571D01*
X17870Y23746D01*
X16390Y26101D01*
X15183Y28608D01*
X14265Y31233D01*
X13646Y33945D01*
X13464Y35561D01*
X35561Y35561D01*
X35561Y13464D01*
X33945Y13646D01*
G37*
%LPD*%
%LPC*%
G36*
X1145299Y592849D02*
X1145299Y592849D01*
X1145299Y599531D01*
X1149774Y599531D01*
X1150421Y599358D01*
X1151000Y599023D01*
X1151473Y598550D01*
X1151808Y597971D01*
X1151981Y597324D01*
X1151981Y592849D01*
X1145299Y592849D01*
G37*
%LPD*%
%LPC*%
G36*
X1134019Y592849D02*
X1134019Y592849D01*
X1134019Y597324D01*
X1134192Y597971D01*
X1134527Y598550D01*
X1135000Y599023D01*
X1135579Y599358D01*
X1136226Y599531D01*
X1140701Y599531D01*
X1140701Y592849D01*
X1134019Y592849D01*
G37*
%LPD*%
%LPC*%
G36*
X1145299Y581569D02*
X1145299Y581569D01*
X1145299Y588251D01*
X1151981Y588251D01*
X1151981Y583776D01*
X1151808Y583129D01*
X1151473Y582550D01*
X1151000Y582077D01*
X1150421Y581742D01*
X1149774Y581569D01*
X1145299Y581569D01*
G37*
%LPD*%
%LPC*%
G36*
X1136226Y581569D02*
X1136226Y581569D01*
X1135579Y581742D01*
X1135000Y582077D01*
X1134527Y582550D01*
X1134192Y583129D01*
X1134019Y583776D01*
X1134019Y588251D01*
X1140701Y588251D01*
X1140701Y581569D01*
X1136226Y581569D01*
G37*
%LPD*%
%LPC*%
G36*
X38099Y977899D02*
X38099Y977899D01*
X38099Y977901D01*
X38101Y977901D01*
X38101Y977899D01*
X38099Y977899D01*
G37*
%LPD*%
%LPC*%
G36*
X1231899Y977899D02*
X1231899Y977899D01*
X1231899Y977901D01*
X1231901Y977901D01*
X1231901Y977899D01*
X1231899Y977899D01*
G37*
%LPD*%
%LPC*%
G36*
X1231899Y38099D02*
X1231899Y38099D01*
X1231899Y38101D01*
X1231901Y38101D01*
X1231901Y38099D01*
X1231899Y38099D01*
G37*
%LPD*%
%LPC*%
G36*
X38099Y38099D02*
X38099Y38099D01*
X38099Y38101D01*
X38101Y38101D01*
X38101Y38099D01*
X38099Y38099D01*
G37*
%LPD*%
%LPC*%
G36*
X1162049Y712149D02*
X1162049Y712149D01*
X1162049Y712151D01*
X1162051Y712151D01*
X1162051Y712149D01*
X1162049Y712149D01*
G37*
%LPD*%
D10*
X817200Y314700D03*
D11*
X817200Y340100D03*
X791800Y314700D03*
X791800Y340100D03*
X766400Y314700D03*
X766400Y340100D03*
X741000Y314700D03*
X741000Y340100D03*
X715600Y314700D03*
X715600Y340100D03*
X690200Y314700D03*
X690200Y340100D03*
X664800Y314700D03*
X664800Y340100D03*
X639400Y314700D03*
X639400Y340100D03*
X614000Y314700D03*
X614000Y340100D03*
X588600Y314700D03*
X588600Y340100D03*
X563200Y314700D03*
X563200Y340100D03*
X537800Y314700D03*
X537800Y340100D03*
X512400Y314700D03*
X512400Y340100D03*
X487000Y314700D03*
X487000Y340100D03*
X461600Y314700D03*
X461600Y340100D03*
X436200Y314700D03*
X436200Y340100D03*
X410800Y314700D03*
X410800Y340100D03*
X385400Y314700D03*
X385400Y340100D03*
D10*
X817200Y568700D03*
D11*
X817200Y594100D03*
X791800Y568700D03*
X791800Y594100D03*
X766400Y568700D03*
X766400Y594100D03*
X741000Y568700D03*
X741000Y594100D03*
X715600Y568700D03*
X715600Y594100D03*
X690200Y568700D03*
X690200Y594100D03*
X664800Y568700D03*
X664800Y594100D03*
X639400Y568700D03*
X639400Y594100D03*
X614000Y568700D03*
X614000Y594100D03*
X588600Y568700D03*
X588600Y594100D03*
X563200Y568700D03*
X563200Y594100D03*
X537800Y568700D03*
X537800Y594100D03*
X512400Y568700D03*
X512400Y594100D03*
X487000Y568700D03*
X487000Y594100D03*
X461600Y568700D03*
X461600Y594100D03*
X436200Y568700D03*
X436200Y594100D03*
X410800Y568700D03*
X410800Y594100D03*
X385400Y568700D03*
X385400Y594100D03*
D12*
X254000Y723900D03*
X254000Y749300D03*
X254000Y698500D03*
X254000Y673100D03*
X254000Y647700D03*
X254000Y596900D03*
X254000Y622300D03*
X254000Y571500D03*
X254000Y546100D03*
X254000Y520700D03*
X254000Y469900D03*
X254000Y495300D03*
X254000Y444500D03*
X254000Y419100D03*
X254000Y393700D03*
X254000Y342900D03*
X254000Y368300D03*
X254000Y317500D03*
X254000Y292100D03*
X254000Y266700D03*
X1016000Y749300D03*
X1016000Y723900D03*
X1016000Y698500D03*
X1016000Y673100D03*
X1016000Y647700D03*
X1016000Y622300D03*
X1016000Y596900D03*
X1016000Y571500D03*
X1016000Y546100D03*
X1016000Y520700D03*
X1016000Y495300D03*
X1016000Y469900D03*
X1016000Y444500D03*
X1016000Y419100D03*
X1016000Y393700D03*
X1016000Y368300D03*
X1016000Y342900D03*
X1016000Y317500D03*
X1016000Y292100D03*
X1016000Y266700D03*
D13*
X254000Y222250D03*
X254000Y793750D03*
X1016000Y222250D03*
X1016000Y793750D03*
D12*
X114700Y50800D03*
X139700Y50800D03*
X164700Y50800D03*
D14*
X684800Y926700D03*
X684800Y876700D03*
X559800Y876700D03*
X559800Y926700D03*
D15*
X1143000Y590550D03*
D16*
X1143000Y565550D03*
X1143000Y545550D03*
X1143000Y520550D03*
D17*
X1170100Y621250D03*
X1170100Y489850D03*
D12*
X1105300Y50800D03*
X1130300Y50800D03*
X1155300Y50800D03*
D14*
X976900Y139300D03*
X976900Y89300D03*
X851900Y89300D03*
X851900Y139300D03*
D18*
X1162050Y712150D03*
X1162050Y799150D03*
D19*
X38100Y38100D03*
X38100Y977900D03*
X1231900Y977900D03*
X1231900Y38100D03*
D20*
X76200Y38100D03*
X1193800Y38100D03*
X1193800Y977900D03*
D21*
X715010Y111760D03*
X582930Y111760D03*
X450850Y114300D03*
X88900Y25400D03*
D22*
X1016000Y749300D02*
X1028700Y749300D01*
D21*
X1028700Y749300D03*
D22*
X1059942Y780542D01*
X1145841Y780542D01*
X1155700Y790401D01*
X1155700Y793750D01*
X1161100Y799150D01*
X1162050Y799150D01*
D21*
X495300Y876300D03*
X812800Y139700D03*
D23*
X127000Y63100D02*
X114700Y50800D01*
X607435Y328035D02*
X614000Y334600D01*
X306121Y328035D02*
X258741Y280655D01*
X306121Y328035D02*
X607435Y328035D01*
X251769Y280655D02*
X127000Y155886D01*
X251769Y280655D02*
X258741Y280655D01*
X614000Y334600D02*
X614000Y340100D01*
X127000Y155886D02*
X127000Y63100D01*
X614000Y340100D02*
X617220Y340100D01*
X858920Y297180D02*
X1105300Y50800D01*
X858920Y297180D02*
X662940Y297180D01*
X651465Y319698D02*
X644398Y326765D01*
X630555Y326765D02*
X617220Y340100D01*
X630555Y326765D02*
X644398Y326765D01*
X651465Y308655D02*
X662940Y297180D01*
X651465Y308655D02*
X651465Y319698D01*
D22*
X193390Y104490D02*
X139700Y50800D01*
X553965Y314700D02*
X563200Y314700D01*
X343755Y104490D02*
X193390Y104490D01*
X343755Y104490D02*
X553965Y314700D01*
X977390Y152910D02*
X982538Y152910D01*
X1120588Y50800D02*
X1130300Y50800D01*
X1120588Y50800D02*
X1109778Y39990D01*
X1095458Y39990D01*
X982538Y152910D01*
X597836Y314700D02*
X588600Y314700D01*
X597836Y314700D02*
X672766Y239770D01*
X890530Y239770D01*
X977390Y152910D01*
X684800Y926700D02*
X559800Y926700D01*
X851900Y139300D02*
X976900Y139300D01*
X1026810Y643222D02*
X1026810Y652178D01*
X1026810Y643222D02*
X1020478Y636890D01*
X1011522Y636890D01*
X1011522Y709310D02*
X1020478Y709310D01*
X1020478Y509890D02*
X1011522Y509890D01*
X1016000Y662988D02*
X1016000Y673100D01*
X1016000Y662988D02*
X1026810Y652178D01*
X1010872Y510540D02*
X1011522Y509890D01*
X1010872Y510540D02*
X490220Y510540D01*
X1000110Y648302D02*
X1011522Y636890D01*
X1000110Y648302D02*
X1000110Y697898D01*
X1011522Y709310D01*
X1020478Y709310D02*
X1036970Y692818D01*
X1036970Y526382D01*
X1020478Y509890D01*
X490220Y510540D02*
X461600Y539160D01*
X461600Y568700D01*
X1005190Y677578D02*
X1011522Y683910D01*
X1020478Y683910D01*
X1016000Y655803D02*
X1016000Y647700D01*
X1016000Y655803D02*
X1005190Y666613D01*
X1005190Y677578D01*
X1020478Y683910D02*
X1031890Y672498D01*
X1031890Y578452D01*
X1028700Y575262D01*
X1028700Y565150D01*
X1022350Y558800D01*
X1009650Y558800D01*
X1003300Y552450D01*
X1003300Y546100D01*
X538190Y517510D02*
X487000Y568700D01*
X974710Y517510D02*
X1003300Y546100D01*
X974710Y517510D02*
X538190Y517510D01*
X1026810Y592422D02*
X1026810Y601378D01*
X1026810Y592422D02*
X1020478Y586090D01*
X803230Y563966D02*
X796535Y557270D01*
X521636Y568700D02*
X512400Y568700D01*
X521636Y568700D02*
X533066Y557270D01*
X1016000Y612188D02*
X1016000Y622300D01*
X1016000Y612188D02*
X1026810Y601378D01*
X979790Y586090D02*
X973830Y580130D01*
X979790Y586090D02*
X1020478Y586090D01*
X973830Y580130D02*
X808002Y580130D01*
X803230Y575358D01*
X803230Y563966D01*
X796535Y557270D02*
X533066Y557270D01*
X1011522Y734710D02*
X1020478Y734710D01*
X1020478Y484490D02*
X1011522Y484490D01*
X1008332Y487680D01*
X467360Y487680D01*
X995030Y718218D02*
X1011522Y734710D01*
X1020478Y734710D02*
X1042050Y713138D01*
X1042050Y506062D01*
X1020478Y484490D01*
X1016000Y596900D02*
X995030Y617870D01*
X995030Y718218D01*
X467360Y487680D02*
X436200Y518840D01*
X436200Y566420D01*
X436200Y568700D01*
X406066Y582670D02*
X399370Y589366D01*
X419950Y582670D02*
X436200Y566420D01*
X419950Y582670D02*
X406066Y582670D01*
X297165Y698500D02*
X254000Y698500D01*
X297165Y698500D02*
X399370Y596295D01*
X399370Y589366D01*
X820000Y571500D02*
X1016000Y571500D01*
X820000Y571500D02*
X817200Y568700D01*
X477520Y398780D02*
X254000Y622300D01*
X477520Y398780D02*
X787400Y398780D01*
X817200Y368980D01*
X817200Y340100D01*
D23*
X634403Y582035D02*
X627335Y589103D01*
X651465Y582035D02*
X664800Y568700D01*
X651465Y582035D02*
X634403Y582035D01*
X627335Y589103D02*
X627335Y597828D01*
X513963Y711200D01*
X165100Y711200D01*
X129540Y675640D01*
X129540Y388620D01*
X529463Y340100D02*
X537800Y340100D01*
X529463Y340100D02*
X517398Y352165D01*
X186705Y331455D02*
X129540Y388620D01*
X186705Y331455D02*
X258741Y331455D01*
X279451Y352165D01*
X517398Y352165D01*
X644398Y352165D02*
X651465Y345098D01*
X546138Y340100D02*
X537800Y340100D01*
X546138Y340100D02*
X558203Y352165D01*
X651465Y345098D02*
X651465Y331515D01*
X644398Y352165D02*
X558203Y352165D01*
X758063Y314700D02*
X766400Y314700D01*
X758063Y314700D02*
X745998Y326765D01*
X656215Y326765D01*
X651465Y331515D01*
X1143000Y590550D02*
X1200150Y590550D01*
X1231900Y558800D01*
X1231900Y412750D01*
X774738Y314700D02*
X766400Y314700D01*
X774738Y314700D02*
X786803Y326765D01*
X847371Y306055D02*
X1125205Y306055D01*
X847371Y306055D02*
X826661Y326765D01*
X786803Y326765D01*
X1125205Y306055D02*
X1231900Y412750D01*
D21*
X1066800Y584200D03*
D22*
X1085850Y584200D01*
X1104900Y565150D01*
X1142600Y565150D01*
X1143000Y565550D01*
D21*
X1048908Y558800D03*
D22*
X1076014Y558800D01*
X1076146Y558802D01*
X1076277Y558808D01*
X1076409Y558818D01*
X1076540Y558831D01*
X1076670Y558849D01*
X1076800Y558870D01*
X1076930Y558895D01*
X1077058Y558924D01*
X1077186Y558957D01*
X1077312Y558994D01*
X1077438Y559034D01*
X1077562Y559078D01*
X1077685Y559126D01*
X1077806Y559177D01*
X1077926Y559232D01*
X1078044Y559290D01*
X1078160Y559352D01*
X1078274Y559418D01*
X1078387Y559486D01*
X1078497Y559558D01*
X1078605Y559633D01*
X1078711Y559712D01*
X1078815Y559793D01*
X1078916Y559878D01*
X1079014Y559965D01*
X1079110Y560056D01*
X1079203Y560149D01*
X1079294Y560245D01*
X1079381Y560343D01*
X1079466Y560444D01*
X1079547Y560548D01*
X1079626Y560654D01*
X1079701Y560762D01*
X1079773Y560872D01*
X1079841Y560985D01*
X1079907Y561099D01*
X1079969Y561215D01*
X1080027Y561333D01*
X1080082Y561453D01*
X1080133Y561574D01*
X1080181Y561697D01*
X1080225Y561821D01*
X1080265Y561947D01*
X1080302Y562073D01*
X1080335Y562201D01*
X1080364Y562329D01*
X1080389Y562459D01*
X1080410Y562589D01*
X1080428Y562719D01*
X1080441Y562850D01*
X1080451Y562982D01*
X1080457Y563113D01*
X1080459Y563245D01*
X1080461Y563377D01*
X1080467Y563508D01*
X1080477Y563640D01*
X1080490Y563771D01*
X1080508Y563901D01*
X1080529Y564031D01*
X1080554Y564161D01*
X1080583Y564289D01*
X1080616Y564417D01*
X1080653Y564543D01*
X1080693Y564669D01*
X1080737Y564793D01*
X1080785Y564916D01*
X1080836Y565037D01*
X1080891Y565157D01*
X1080949Y565275D01*
X1081011Y565391D01*
X1081077Y565505D01*
X1081145Y565618D01*
X1081217Y565728D01*
X1081292Y565836D01*
X1081371Y565942D01*
X1081452Y566046D01*
X1081537Y566147D01*
X1081624Y566245D01*
X1081715Y566341D01*
X1081808Y566434D01*
X1081904Y566525D01*
X1082002Y566612D01*
X1082103Y566697D01*
X1082207Y566778D01*
X1082313Y566857D01*
X1082421Y566932D01*
X1082531Y567004D01*
X1082644Y567072D01*
X1082758Y567138D01*
X1082874Y567200D01*
X1082992Y567258D01*
X1083112Y567313D01*
X1083233Y567364D01*
X1083356Y567412D01*
X1083480Y567456D01*
X1083606Y567496D01*
X1083732Y567533D01*
X1083860Y567566D01*
X1083988Y567595D01*
X1084118Y567620D01*
X1084248Y567641D01*
X1084378Y567659D01*
X1084509Y567672D01*
X1084641Y567682D01*
X1084772Y567688D01*
X1084904Y567690D01*
X1089660Y567690D01*
X1089792Y567688D01*
X1089923Y567682D01*
X1090055Y567672D01*
X1090186Y567659D01*
X1090316Y567641D01*
X1090446Y567620D01*
X1090576Y567595D01*
X1090704Y567566D01*
X1090832Y567533D01*
X1090958Y567496D01*
X1091084Y567456D01*
X1091208Y567412D01*
X1091331Y567364D01*
X1091452Y567313D01*
X1091572Y567258D01*
X1091690Y567200D01*
X1091806Y567138D01*
X1091920Y567072D01*
X1092033Y567004D01*
X1092143Y566932D01*
X1092251Y566857D01*
X1092357Y566778D01*
X1092461Y566697D01*
X1092562Y566612D01*
X1092660Y566525D01*
X1092756Y566434D01*
X1092849Y566341D01*
X1092940Y566245D01*
X1093027Y566147D01*
X1093112Y566046D01*
X1093193Y565942D01*
X1093272Y565836D01*
X1093347Y565728D01*
X1093419Y565618D01*
X1093487Y565505D01*
X1093553Y565391D01*
X1093615Y565275D01*
X1093673Y565157D01*
X1093728Y565037D01*
X1093779Y564916D01*
X1093827Y564793D01*
X1093871Y564669D01*
X1093911Y564543D01*
X1093948Y564417D01*
X1093981Y564289D01*
X1094010Y564161D01*
X1094035Y564031D01*
X1094056Y563901D01*
X1094074Y563771D01*
X1094087Y563640D01*
X1094097Y563508D01*
X1094103Y563377D01*
X1094105Y563245D01*
X1094107Y563113D01*
X1094113Y562982D01*
X1094123Y562850D01*
X1094136Y562719D01*
X1094154Y562589D01*
X1094175Y562459D01*
X1094200Y562329D01*
X1094229Y562201D01*
X1094262Y562073D01*
X1094299Y561947D01*
X1094339Y561821D01*
X1094383Y561697D01*
X1094431Y561574D01*
X1094482Y561453D01*
X1094537Y561333D01*
X1094595Y561215D01*
X1094657Y561099D01*
X1094723Y560985D01*
X1094791Y560872D01*
X1094863Y560762D01*
X1094938Y560654D01*
X1095017Y560548D01*
X1095098Y560444D01*
X1095183Y560343D01*
X1095270Y560245D01*
X1095361Y560149D01*
X1095454Y560056D01*
X1095550Y559965D01*
X1095648Y559878D01*
X1095749Y559793D01*
X1095853Y559712D01*
X1095959Y559633D01*
X1096067Y559558D01*
X1096177Y559486D01*
X1096290Y559418D01*
X1096404Y559352D01*
X1096520Y559290D01*
X1096638Y559232D01*
X1096758Y559177D01*
X1096879Y559126D01*
X1097002Y559078D01*
X1097126Y559034D01*
X1097252Y558994D01*
X1097378Y558957D01*
X1097506Y558924D01*
X1097634Y558895D01*
X1097764Y558870D01*
X1097894Y558849D01*
X1098024Y558831D01*
X1098155Y558818D01*
X1098287Y558808D01*
X1098418Y558802D01*
X1098550Y558800D01*
X1129750Y558800D01*
X1143000Y545550D01*
D21*
X1143000Y812800D03*
X1143000Y800100D03*
X1143000Y787400D03*
X1181100Y812800D03*
X1181100Y800100D03*
X1181100Y787400D03*
X1143000Y717550D03*
X1143000Y704850D03*
X1143000Y692150D03*
X1181100Y717550D03*
X1181100Y704850D03*
X1181100Y692150D03*
M02*
