G04 EAGLE Gerber RS-274X export*
G75*
%MOMM*%
%FSLAX34Y34*%
%LPD*%
%IN*%
%IPPOS*%
%AMOC8*
5,1,8,0,0,1.08239X$1,22.5*%
G01*
%ADD10C,0.254000*%


D10*
X0Y0D02*
X1269800Y0D01*
X1270000Y1016000D01*
X0Y1016000D01*
X0Y0D01*
X102200Y120309D02*
X102123Y119330D01*
X101969Y118360D01*
X101740Y117404D01*
X101436Y116470D01*
X101061Y115563D01*
X100615Y114688D01*
X100101Y113850D01*
X99524Y113055D01*
X98886Y112308D01*
X98192Y111614D01*
X97445Y110976D01*
X96650Y110399D01*
X95812Y109885D01*
X94937Y109439D01*
X94030Y109064D01*
X93096Y108760D01*
X92141Y108531D01*
X91170Y108377D01*
X90191Y108300D01*
X89209Y108300D01*
X88230Y108377D01*
X87260Y108531D01*
X86304Y108760D01*
X85370Y109064D01*
X84463Y109439D01*
X83588Y109885D01*
X82750Y110399D01*
X81955Y110976D01*
X81208Y111614D01*
X80514Y112308D01*
X79876Y113055D01*
X79299Y113850D01*
X78785Y114688D01*
X78339Y115563D01*
X77964Y116470D01*
X77660Y117404D01*
X77431Y118360D01*
X77277Y119330D01*
X77200Y120309D01*
X77200Y121291D01*
X77277Y122270D01*
X77431Y123241D01*
X77660Y124196D01*
X77964Y125130D01*
X78339Y126037D01*
X78785Y126912D01*
X79299Y127750D01*
X79876Y128545D01*
X80514Y129292D01*
X81208Y129986D01*
X81955Y130624D01*
X82750Y131201D01*
X83588Y131715D01*
X84463Y132161D01*
X85370Y132536D01*
X86304Y132840D01*
X87260Y133069D01*
X88230Y133223D01*
X89209Y133300D01*
X90191Y133300D01*
X91170Y133223D01*
X92141Y133069D01*
X93096Y132840D01*
X94030Y132536D01*
X94937Y132161D01*
X95812Y131715D01*
X96650Y131201D01*
X97445Y130624D01*
X98192Y129986D01*
X98886Y129292D01*
X99524Y128545D01*
X100101Y127750D01*
X100615Y126912D01*
X101061Y126037D01*
X101436Y125130D01*
X101740Y124196D01*
X101969Y123241D01*
X102123Y122270D01*
X102200Y121291D01*
X102200Y120309D01*
X202200Y120309D02*
X202123Y119330D01*
X201969Y118360D01*
X201740Y117404D01*
X201436Y116470D01*
X201061Y115563D01*
X200615Y114688D01*
X200101Y113850D01*
X199524Y113055D01*
X198886Y112308D01*
X198192Y111614D01*
X197445Y110976D01*
X196650Y110399D01*
X195812Y109885D01*
X194937Y109439D01*
X194030Y109064D01*
X193096Y108760D01*
X192141Y108531D01*
X191170Y108377D01*
X190191Y108300D01*
X189209Y108300D01*
X188230Y108377D01*
X187260Y108531D01*
X186304Y108760D01*
X185370Y109064D01*
X184463Y109439D01*
X183588Y109885D01*
X182750Y110399D01*
X181955Y110976D01*
X181208Y111614D01*
X180514Y112308D01*
X179876Y113055D01*
X179299Y113850D01*
X178785Y114688D01*
X178339Y115563D01*
X177964Y116470D01*
X177660Y117404D01*
X177431Y118360D01*
X177277Y119330D01*
X177200Y120309D01*
X177200Y121291D01*
X177277Y122270D01*
X177431Y123241D01*
X177660Y124196D01*
X177964Y125130D01*
X178339Y126037D01*
X178785Y126912D01*
X179299Y127750D01*
X179876Y128545D01*
X180514Y129292D01*
X181208Y129986D01*
X181955Y130624D01*
X182750Y131201D01*
X183588Y131715D01*
X184463Y132161D01*
X185370Y132536D01*
X186304Y132840D01*
X187260Y133069D01*
X188230Y133223D01*
X189209Y133300D01*
X190191Y133300D01*
X191170Y133223D01*
X192141Y133069D01*
X193096Y132840D01*
X194030Y132536D01*
X194937Y132161D01*
X195812Y131715D01*
X196650Y131201D01*
X197445Y130624D01*
X198192Y129986D01*
X198886Y129292D01*
X199524Y128545D01*
X200101Y127750D01*
X200615Y126912D01*
X201061Y126037D01*
X201436Y125130D01*
X201740Y124196D01*
X201969Y123241D01*
X202123Y122270D01*
X202200Y121291D01*
X202200Y120309D01*
X1092800Y120309D02*
X1092723Y119330D01*
X1092569Y118360D01*
X1092340Y117404D01*
X1092036Y116470D01*
X1091661Y115563D01*
X1091215Y114688D01*
X1090701Y113850D01*
X1090124Y113055D01*
X1089486Y112308D01*
X1088792Y111614D01*
X1088045Y110976D01*
X1087250Y110399D01*
X1086412Y109885D01*
X1085537Y109439D01*
X1084630Y109064D01*
X1083696Y108760D01*
X1082741Y108531D01*
X1081770Y108377D01*
X1080791Y108300D01*
X1079809Y108300D01*
X1078830Y108377D01*
X1077860Y108531D01*
X1076904Y108760D01*
X1075970Y109064D01*
X1075063Y109439D01*
X1074188Y109885D01*
X1073350Y110399D01*
X1072555Y110976D01*
X1071808Y111614D01*
X1071114Y112308D01*
X1070476Y113055D01*
X1069899Y113850D01*
X1069385Y114688D01*
X1068939Y115563D01*
X1068564Y116470D01*
X1068260Y117404D01*
X1068031Y118360D01*
X1067877Y119330D01*
X1067800Y120309D01*
X1067800Y121291D01*
X1067877Y122270D01*
X1068031Y123241D01*
X1068260Y124196D01*
X1068564Y125130D01*
X1068939Y126037D01*
X1069385Y126912D01*
X1069899Y127750D01*
X1070476Y128545D01*
X1071114Y129292D01*
X1071808Y129986D01*
X1072555Y130624D01*
X1073350Y131201D01*
X1074188Y131715D01*
X1075063Y132161D01*
X1075970Y132536D01*
X1076904Y132840D01*
X1077860Y133069D01*
X1078830Y133223D01*
X1079809Y133300D01*
X1080791Y133300D01*
X1081770Y133223D01*
X1082741Y133069D01*
X1083696Y132840D01*
X1084630Y132536D01*
X1085537Y132161D01*
X1086412Y131715D01*
X1087250Y131201D01*
X1088045Y130624D01*
X1088792Y129986D01*
X1089486Y129292D01*
X1090124Y128545D01*
X1090701Y127750D01*
X1091215Y126912D01*
X1091661Y126037D01*
X1092036Y125130D01*
X1092340Y124196D01*
X1092569Y123241D01*
X1092723Y122270D01*
X1092800Y121291D01*
X1092800Y120309D01*
X1192800Y120309D02*
X1192723Y119330D01*
X1192569Y118360D01*
X1192340Y117404D01*
X1192036Y116470D01*
X1191661Y115563D01*
X1191215Y114688D01*
X1190701Y113850D01*
X1190124Y113055D01*
X1189486Y112308D01*
X1188792Y111614D01*
X1188045Y110976D01*
X1187250Y110399D01*
X1186412Y109885D01*
X1185537Y109439D01*
X1184630Y109064D01*
X1183696Y108760D01*
X1182741Y108531D01*
X1181770Y108377D01*
X1180791Y108300D01*
X1179809Y108300D01*
X1178830Y108377D01*
X1177860Y108531D01*
X1176904Y108760D01*
X1175970Y109064D01*
X1175063Y109439D01*
X1174188Y109885D01*
X1173350Y110399D01*
X1172555Y110976D01*
X1171808Y111614D01*
X1171114Y112308D01*
X1170476Y113055D01*
X1169899Y113850D01*
X1169385Y114688D01*
X1168939Y115563D01*
X1168564Y116470D01*
X1168260Y117404D01*
X1168031Y118360D01*
X1167877Y119330D01*
X1167800Y120309D01*
X1167800Y121291D01*
X1167877Y122270D01*
X1168031Y123241D01*
X1168260Y124196D01*
X1168564Y125130D01*
X1168939Y126037D01*
X1169385Y126912D01*
X1169899Y127750D01*
X1170476Y128545D01*
X1171114Y129292D01*
X1171808Y129986D01*
X1172555Y130624D01*
X1173350Y131201D01*
X1174188Y131715D01*
X1175063Y132161D01*
X1175970Y132536D01*
X1176904Y132840D01*
X1177860Y133069D01*
X1178830Y133223D01*
X1179809Y133300D01*
X1180791Y133300D01*
X1181770Y133223D01*
X1182741Y133069D01*
X1183696Y132840D01*
X1184630Y132536D01*
X1185537Y132161D01*
X1186412Y131715D01*
X1187250Y131201D01*
X1188045Y130624D01*
X1188792Y129986D01*
X1189486Y129292D01*
X1190124Y128545D01*
X1190701Y127750D01*
X1191215Y126912D01*
X1191661Y126037D01*
X1192036Y125130D01*
X1192340Y124196D01*
X1192569Y123241D01*
X1192723Y122270D01*
X1192800Y121291D01*
X1192800Y120309D01*
M02*
