G04 EAGLE Gerber RS-274X export*
G75*
%MOMM*%
%FSLAX34Y34*%
%LPD*%
%INSilkscreen Top*%
%IPPOS*%
%AMOC8*
5,1,8,0,0,1.08239X$1,22.5*%
G01*
%ADD10C,0.152400*%
%ADD11C,0.127000*%
%ADD12C,0.254000*%

G36*
X429805Y111676D02*
X429805Y111676D01*
X429905Y111675D01*
X429919Y111679D01*
X429931Y111679D01*
X429974Y111697D01*
X430084Y111733D01*
X434084Y113733D01*
X434119Y113759D01*
X434160Y113778D01*
X434209Y113826D01*
X434263Y113867D01*
X434288Y113904D01*
X434319Y113936D01*
X434348Y113998D01*
X434385Y114055D01*
X434395Y114099D01*
X434414Y114139D01*
X434419Y114208D01*
X434434Y114274D01*
X434428Y114319D01*
X434431Y114363D01*
X434412Y114429D01*
X434403Y114497D01*
X434382Y114536D01*
X434370Y114579D01*
X434329Y114634D01*
X434297Y114694D01*
X434263Y114724D01*
X434237Y114760D01*
X434166Y114809D01*
X434128Y114843D01*
X434107Y114851D01*
X434084Y114867D01*
X430084Y116867D01*
X429988Y116895D01*
X429894Y116927D01*
X429881Y116927D01*
X429868Y116931D01*
X429769Y116924D01*
X429669Y116921D01*
X429658Y116916D01*
X429645Y116915D01*
X429554Y116874D01*
X429462Y116836D01*
X429452Y116828D01*
X429440Y116822D01*
X429369Y116752D01*
X429296Y116685D01*
X429290Y116674D01*
X429281Y116664D01*
X429239Y116574D01*
X429193Y116485D01*
X429191Y116471D01*
X429186Y116461D01*
X429183Y116414D01*
X429166Y116300D01*
X429166Y112300D01*
X429183Y112202D01*
X429197Y112103D01*
X429203Y112092D01*
X429205Y112079D01*
X429256Y111993D01*
X429303Y111906D01*
X429313Y111897D01*
X429320Y111886D01*
X429397Y111823D01*
X429472Y111757D01*
X429484Y111753D01*
X429494Y111745D01*
X429588Y111713D01*
X429681Y111677D01*
X429694Y111677D01*
X429706Y111673D01*
X429805Y111676D01*
G37*
G36*
X561885Y109136D02*
X561885Y109136D01*
X561985Y109135D01*
X561999Y109139D01*
X562011Y109139D01*
X562054Y109157D01*
X562164Y109193D01*
X566164Y111193D01*
X566199Y111219D01*
X566240Y111238D01*
X566289Y111286D01*
X566343Y111327D01*
X566368Y111364D01*
X566399Y111396D01*
X566428Y111458D01*
X566465Y111515D01*
X566475Y111559D01*
X566494Y111599D01*
X566499Y111668D01*
X566514Y111734D01*
X566508Y111779D01*
X566511Y111823D01*
X566492Y111889D01*
X566483Y111957D01*
X566462Y111996D01*
X566450Y112039D01*
X566409Y112094D01*
X566377Y112154D01*
X566343Y112184D01*
X566317Y112220D01*
X566246Y112269D01*
X566208Y112303D01*
X566187Y112311D01*
X566164Y112327D01*
X562164Y114327D01*
X562068Y114355D01*
X561974Y114387D01*
X561961Y114387D01*
X561948Y114391D01*
X561849Y114384D01*
X561749Y114381D01*
X561738Y114376D01*
X561725Y114375D01*
X561634Y114334D01*
X561542Y114296D01*
X561532Y114288D01*
X561520Y114282D01*
X561449Y114212D01*
X561376Y114145D01*
X561370Y114134D01*
X561361Y114124D01*
X561319Y114034D01*
X561273Y113945D01*
X561271Y113931D01*
X561266Y113921D01*
X561263Y113874D01*
X561246Y113760D01*
X561246Y109760D01*
X561263Y109662D01*
X561277Y109563D01*
X561283Y109552D01*
X561285Y109539D01*
X561336Y109453D01*
X561383Y109366D01*
X561393Y109357D01*
X561400Y109346D01*
X561477Y109283D01*
X561552Y109217D01*
X561564Y109213D01*
X561574Y109205D01*
X561668Y109173D01*
X561761Y109137D01*
X561774Y109137D01*
X561786Y109133D01*
X561885Y109136D01*
G37*
G36*
X693965Y109136D02*
X693965Y109136D01*
X694065Y109135D01*
X694079Y109139D01*
X694091Y109139D01*
X694134Y109157D01*
X694244Y109193D01*
X698244Y111193D01*
X698279Y111219D01*
X698320Y111238D01*
X698369Y111286D01*
X698423Y111327D01*
X698448Y111364D01*
X698479Y111396D01*
X698508Y111458D01*
X698545Y111515D01*
X698555Y111559D01*
X698574Y111599D01*
X698579Y111668D01*
X698594Y111734D01*
X698588Y111779D01*
X698591Y111823D01*
X698572Y111889D01*
X698563Y111957D01*
X698542Y111996D01*
X698530Y112039D01*
X698489Y112094D01*
X698457Y112154D01*
X698423Y112184D01*
X698397Y112220D01*
X698326Y112269D01*
X698288Y112303D01*
X698267Y112311D01*
X698244Y112327D01*
X694244Y114327D01*
X694148Y114355D01*
X694054Y114387D01*
X694041Y114387D01*
X694028Y114391D01*
X693929Y114384D01*
X693829Y114381D01*
X693818Y114376D01*
X693805Y114375D01*
X693714Y114334D01*
X693622Y114296D01*
X693612Y114288D01*
X693600Y114282D01*
X693529Y114212D01*
X693456Y114145D01*
X693450Y114134D01*
X693441Y114124D01*
X693399Y114034D01*
X693353Y113945D01*
X693351Y113931D01*
X693346Y113921D01*
X693343Y113874D01*
X693326Y113760D01*
X693326Y109760D01*
X693343Y109662D01*
X693357Y109563D01*
X693363Y109552D01*
X693365Y109539D01*
X693416Y109453D01*
X693463Y109366D01*
X693473Y109357D01*
X693480Y109346D01*
X693557Y109283D01*
X693632Y109217D01*
X693644Y109213D01*
X693654Y109205D01*
X693748Y109173D01*
X693841Y109137D01*
X693854Y109137D01*
X693866Y109133D01*
X693965Y109136D01*
G37*
D10*
X1104279Y273812D02*
X1099312Y273812D01*
X1099312Y284988D01*
X1104279Y284988D01*
X1103037Y280021D02*
X1099312Y280021D01*
X1107649Y281263D02*
X1111374Y281263D01*
X1108891Y284988D02*
X1108891Y275675D01*
X1108893Y275591D01*
X1108898Y275508D01*
X1108908Y275425D01*
X1108921Y275342D01*
X1108938Y275260D01*
X1108958Y275179D01*
X1108982Y275099D01*
X1109010Y275020D01*
X1109041Y274943D01*
X1109075Y274867D01*
X1109113Y274792D01*
X1109155Y274719D01*
X1109199Y274649D01*
X1109247Y274580D01*
X1109297Y274513D01*
X1109351Y274449D01*
X1109407Y274388D01*
X1109467Y274328D01*
X1109528Y274272D01*
X1109592Y274218D01*
X1109659Y274168D01*
X1109728Y274120D01*
X1109798Y274076D01*
X1109871Y274034D01*
X1109946Y273996D01*
X1110022Y273962D01*
X1110099Y273931D01*
X1110178Y273903D01*
X1110258Y273879D01*
X1110339Y273859D01*
X1110421Y273842D01*
X1110504Y273829D01*
X1110587Y273819D01*
X1110670Y273814D01*
X1110754Y273812D01*
X1111374Y273812D01*
X1117786Y273812D02*
X1120269Y273812D01*
X1117786Y273812D02*
X1117702Y273814D01*
X1117619Y273819D01*
X1117536Y273829D01*
X1117453Y273842D01*
X1117371Y273859D01*
X1117290Y273879D01*
X1117210Y273903D01*
X1117131Y273931D01*
X1117054Y273962D01*
X1116978Y273996D01*
X1116903Y274034D01*
X1116830Y274076D01*
X1116760Y274120D01*
X1116691Y274168D01*
X1116624Y274218D01*
X1116560Y274272D01*
X1116499Y274328D01*
X1116439Y274388D01*
X1116383Y274449D01*
X1116329Y274513D01*
X1116279Y274580D01*
X1116231Y274649D01*
X1116187Y274719D01*
X1116145Y274792D01*
X1116107Y274867D01*
X1116073Y274943D01*
X1116042Y275020D01*
X1116014Y275099D01*
X1115990Y275179D01*
X1115970Y275260D01*
X1115953Y275342D01*
X1115940Y275425D01*
X1115930Y275508D01*
X1115925Y275591D01*
X1115923Y275675D01*
X1115923Y279400D01*
X1115925Y279484D01*
X1115931Y279567D01*
X1115940Y279650D01*
X1115953Y279733D01*
X1115970Y279815D01*
X1115990Y279896D01*
X1116014Y279976D01*
X1116042Y280055D01*
X1116073Y280132D01*
X1116107Y280208D01*
X1116145Y280283D01*
X1116187Y280356D01*
X1116231Y280426D01*
X1116279Y280495D01*
X1116329Y280562D01*
X1116383Y280626D01*
X1116439Y280687D01*
X1116499Y280747D01*
X1116560Y280803D01*
X1116624Y280857D01*
X1116691Y280907D01*
X1116760Y280955D01*
X1116830Y280999D01*
X1116903Y281041D01*
X1116978Y281079D01*
X1117054Y281113D01*
X1117131Y281144D01*
X1117210Y281172D01*
X1117290Y281196D01*
X1117371Y281216D01*
X1117453Y281233D01*
X1117536Y281246D01*
X1117619Y281256D01*
X1117702Y281261D01*
X1117786Y281263D01*
X1120269Y281263D01*
X1125051Y284988D02*
X1125051Y273812D01*
X1125051Y281263D02*
X1128155Y281263D01*
X1128239Y281261D01*
X1128322Y281256D01*
X1128405Y281246D01*
X1128488Y281233D01*
X1128570Y281216D01*
X1128651Y281196D01*
X1128731Y281172D01*
X1128810Y281144D01*
X1128887Y281113D01*
X1128963Y281079D01*
X1129038Y281041D01*
X1129111Y280999D01*
X1129181Y280955D01*
X1129250Y280907D01*
X1129317Y280857D01*
X1129381Y280803D01*
X1129442Y280747D01*
X1129502Y280687D01*
X1129558Y280626D01*
X1129612Y280562D01*
X1129662Y280495D01*
X1129710Y280426D01*
X1129754Y280356D01*
X1129796Y280283D01*
X1129834Y280208D01*
X1129868Y280132D01*
X1129899Y280055D01*
X1129927Y279976D01*
X1129951Y279896D01*
X1129971Y279815D01*
X1129988Y279733D01*
X1130001Y279650D01*
X1130011Y279567D01*
X1130016Y279484D01*
X1130018Y279400D01*
X1130018Y273812D01*
X1135620Y278158D02*
X1143070Y278158D01*
X1150391Y278158D02*
X1153185Y278158D01*
X1150391Y278158D02*
X1150299Y278156D01*
X1150207Y278150D01*
X1150115Y278140D01*
X1150024Y278127D01*
X1149933Y278109D01*
X1149843Y278088D01*
X1149755Y278063D01*
X1149667Y278034D01*
X1149581Y278001D01*
X1149496Y277965D01*
X1149413Y277925D01*
X1149331Y277882D01*
X1149252Y277835D01*
X1149174Y277785D01*
X1149099Y277732D01*
X1149026Y277676D01*
X1148955Y277616D01*
X1148887Y277554D01*
X1148822Y277489D01*
X1148760Y277421D01*
X1148700Y277350D01*
X1148644Y277277D01*
X1148591Y277202D01*
X1148541Y277124D01*
X1148494Y277045D01*
X1148451Y276963D01*
X1148411Y276880D01*
X1148375Y276795D01*
X1148342Y276709D01*
X1148313Y276621D01*
X1148288Y276533D01*
X1148267Y276443D01*
X1148249Y276352D01*
X1148236Y276261D01*
X1148226Y276169D01*
X1148220Y276077D01*
X1148218Y275985D01*
X1148220Y275893D01*
X1148226Y275801D01*
X1148236Y275709D01*
X1148249Y275618D01*
X1148267Y275527D01*
X1148288Y275437D01*
X1148313Y275349D01*
X1148342Y275261D01*
X1148375Y275175D01*
X1148411Y275090D01*
X1148451Y275007D01*
X1148494Y274925D01*
X1148541Y274846D01*
X1148591Y274768D01*
X1148644Y274693D01*
X1148700Y274620D01*
X1148760Y274549D01*
X1148822Y274481D01*
X1148887Y274416D01*
X1148955Y274354D01*
X1149026Y274294D01*
X1149099Y274238D01*
X1149174Y274185D01*
X1149252Y274135D01*
X1149331Y274088D01*
X1149413Y274045D01*
X1149496Y274005D01*
X1149581Y273969D01*
X1149667Y273936D01*
X1149755Y273907D01*
X1149843Y273882D01*
X1149933Y273861D01*
X1150024Y273843D01*
X1150115Y273830D01*
X1150207Y273820D01*
X1150299Y273814D01*
X1150391Y273812D01*
X1153185Y273812D01*
X1153185Y279400D01*
X1153183Y279484D01*
X1153178Y279567D01*
X1153168Y279650D01*
X1153155Y279733D01*
X1153138Y279815D01*
X1153118Y279896D01*
X1153094Y279976D01*
X1153066Y280055D01*
X1153035Y280132D01*
X1153001Y280208D01*
X1152963Y280283D01*
X1152921Y280356D01*
X1152877Y280426D01*
X1152829Y280495D01*
X1152779Y280562D01*
X1152725Y280626D01*
X1152669Y280687D01*
X1152609Y280747D01*
X1152548Y280803D01*
X1152484Y280857D01*
X1152417Y280907D01*
X1152348Y280955D01*
X1152278Y280999D01*
X1152205Y281041D01*
X1152130Y281079D01*
X1152054Y281113D01*
X1151977Y281144D01*
X1151898Y281172D01*
X1151818Y281196D01*
X1151737Y281216D01*
X1151655Y281233D01*
X1151572Y281246D01*
X1151489Y281256D01*
X1151406Y281261D01*
X1151322Y281263D01*
X1148839Y281263D01*
X1158861Y278158D02*
X1166311Y278158D01*
X1175018Y273812D02*
X1175115Y273814D01*
X1175213Y273820D01*
X1175310Y273829D01*
X1175407Y273843D01*
X1175503Y273860D01*
X1175598Y273881D01*
X1175692Y273905D01*
X1175786Y273934D01*
X1175878Y273966D01*
X1175969Y274001D01*
X1176058Y274040D01*
X1176146Y274083D01*
X1176232Y274129D01*
X1176316Y274178D01*
X1176398Y274231D01*
X1176478Y274286D01*
X1176556Y274345D01*
X1176631Y274407D01*
X1176704Y274472D01*
X1176774Y274540D01*
X1176842Y274610D01*
X1176907Y274683D01*
X1176969Y274758D01*
X1177028Y274836D01*
X1177083Y274916D01*
X1177136Y274998D01*
X1177185Y275082D01*
X1177231Y275168D01*
X1177274Y275256D01*
X1177313Y275345D01*
X1177348Y275436D01*
X1177380Y275528D01*
X1177409Y275622D01*
X1177433Y275716D01*
X1177454Y275811D01*
X1177471Y275907D01*
X1177485Y276004D01*
X1177494Y276101D01*
X1177500Y276198D01*
X1177502Y276296D01*
X1175018Y273812D02*
X1174875Y273814D01*
X1174732Y273820D01*
X1174590Y273829D01*
X1174448Y273843D01*
X1174306Y273861D01*
X1174165Y273882D01*
X1174024Y273907D01*
X1173884Y273936D01*
X1173745Y273969D01*
X1173607Y274005D01*
X1173470Y274046D01*
X1173334Y274090D01*
X1173199Y274137D01*
X1173066Y274189D01*
X1172934Y274244D01*
X1172804Y274302D01*
X1172675Y274364D01*
X1172548Y274430D01*
X1172423Y274499D01*
X1172300Y274571D01*
X1172179Y274647D01*
X1172060Y274725D01*
X1171943Y274808D01*
X1171828Y274893D01*
X1171716Y274981D01*
X1171606Y275073D01*
X1171499Y275167D01*
X1171394Y275264D01*
X1171292Y275364D01*
X1171603Y282504D02*
X1171605Y282602D01*
X1171611Y282699D01*
X1171620Y282796D01*
X1171634Y282893D01*
X1171651Y282989D01*
X1171672Y283084D01*
X1171696Y283178D01*
X1171725Y283272D01*
X1171757Y283364D01*
X1171792Y283455D01*
X1171831Y283544D01*
X1171874Y283632D01*
X1171920Y283718D01*
X1171969Y283802D01*
X1172022Y283884D01*
X1172077Y283964D01*
X1172136Y284042D01*
X1172198Y284117D01*
X1172263Y284190D01*
X1172331Y284260D01*
X1172401Y284328D01*
X1172474Y284393D01*
X1172549Y284455D01*
X1172627Y284514D01*
X1172707Y284569D01*
X1172789Y284622D01*
X1172873Y284671D01*
X1172959Y284717D01*
X1173047Y284760D01*
X1173136Y284799D01*
X1173227Y284834D01*
X1173319Y284866D01*
X1173413Y284895D01*
X1173507Y284919D01*
X1173602Y284940D01*
X1173698Y284957D01*
X1173795Y284971D01*
X1173892Y284980D01*
X1173989Y284986D01*
X1174087Y284988D01*
X1174217Y284986D01*
X1174347Y284981D01*
X1174477Y284972D01*
X1174607Y284959D01*
X1174736Y284943D01*
X1174865Y284923D01*
X1174993Y284899D01*
X1175121Y284872D01*
X1175247Y284841D01*
X1175373Y284807D01*
X1175498Y284769D01*
X1175621Y284728D01*
X1175744Y284683D01*
X1175865Y284635D01*
X1175985Y284584D01*
X1176103Y284529D01*
X1176219Y284471D01*
X1176334Y284410D01*
X1176448Y284345D01*
X1176559Y284278D01*
X1176668Y284207D01*
X1176776Y284133D01*
X1176881Y284057D01*
X1172845Y280331D02*
X1172762Y280382D01*
X1172681Y280436D01*
X1172603Y280493D01*
X1172527Y280553D01*
X1172453Y280616D01*
X1172382Y280682D01*
X1172313Y280750D01*
X1172247Y280821D01*
X1172183Y280894D01*
X1172123Y280970D01*
X1172066Y281048D01*
X1172011Y281129D01*
X1171960Y281211D01*
X1171912Y281295D01*
X1171867Y281381D01*
X1171825Y281469D01*
X1171787Y281558D01*
X1171753Y281648D01*
X1171721Y281740D01*
X1171694Y281833D01*
X1171670Y281927D01*
X1171649Y282022D01*
X1171633Y282118D01*
X1171620Y282214D01*
X1171610Y282310D01*
X1171605Y282407D01*
X1171603Y282504D01*
X1176259Y278469D02*
X1176342Y278418D01*
X1176423Y278364D01*
X1176501Y278307D01*
X1176577Y278247D01*
X1176651Y278184D01*
X1176722Y278118D01*
X1176791Y278050D01*
X1176857Y277979D01*
X1176921Y277906D01*
X1176981Y277830D01*
X1177038Y277752D01*
X1177093Y277671D01*
X1177144Y277589D01*
X1177192Y277505D01*
X1177237Y277419D01*
X1177279Y277331D01*
X1177317Y277242D01*
X1177351Y277152D01*
X1177383Y277060D01*
X1177410Y276967D01*
X1177434Y276873D01*
X1177455Y276778D01*
X1177471Y276682D01*
X1177484Y276586D01*
X1177494Y276490D01*
X1177499Y276393D01*
X1177501Y276296D01*
X1176260Y278469D02*
X1172845Y280331D01*
X1182751Y284988D02*
X1182751Y273812D01*
X1182751Y277537D02*
X1187718Y281263D01*
X1184924Y279090D02*
X1187718Y273812D01*
X1193969Y273812D02*
X1197074Y273812D01*
X1193969Y273812D02*
X1193885Y273814D01*
X1193802Y273819D01*
X1193719Y273829D01*
X1193636Y273842D01*
X1193554Y273859D01*
X1193473Y273879D01*
X1193393Y273903D01*
X1193314Y273931D01*
X1193237Y273962D01*
X1193161Y273996D01*
X1193086Y274034D01*
X1193013Y274076D01*
X1192943Y274120D01*
X1192874Y274168D01*
X1192807Y274218D01*
X1192743Y274272D01*
X1192682Y274328D01*
X1192622Y274388D01*
X1192566Y274449D01*
X1192512Y274513D01*
X1192462Y274580D01*
X1192414Y274649D01*
X1192370Y274719D01*
X1192328Y274792D01*
X1192290Y274867D01*
X1192256Y274943D01*
X1192225Y275020D01*
X1192197Y275099D01*
X1192173Y275179D01*
X1192153Y275260D01*
X1192136Y275342D01*
X1192123Y275425D01*
X1192113Y275508D01*
X1192108Y275591D01*
X1192106Y275675D01*
X1192106Y278779D01*
X1192108Y278878D01*
X1192114Y278976D01*
X1192124Y279075D01*
X1192137Y279172D01*
X1192155Y279270D01*
X1192176Y279366D01*
X1192202Y279462D01*
X1192231Y279556D01*
X1192263Y279649D01*
X1192300Y279741D01*
X1192340Y279831D01*
X1192384Y279920D01*
X1192431Y280007D01*
X1192481Y280092D01*
X1192535Y280174D01*
X1192592Y280255D01*
X1192652Y280333D01*
X1192716Y280409D01*
X1192782Y280482D01*
X1192851Y280553D01*
X1192923Y280621D01*
X1192998Y280685D01*
X1193075Y280747D01*
X1193154Y280806D01*
X1193236Y280861D01*
X1193320Y280914D01*
X1193405Y280962D01*
X1193493Y281008D01*
X1193583Y281050D01*
X1193674Y281088D01*
X1193766Y281122D01*
X1193860Y281153D01*
X1193955Y281180D01*
X1194051Y281204D01*
X1194148Y281223D01*
X1194245Y281239D01*
X1194343Y281251D01*
X1194442Y281259D01*
X1194541Y281263D01*
X1194639Y281263D01*
X1194738Y281259D01*
X1194837Y281251D01*
X1194935Y281239D01*
X1195032Y281223D01*
X1195129Y281204D01*
X1195225Y281180D01*
X1195320Y281153D01*
X1195414Y281122D01*
X1195506Y281088D01*
X1195597Y281050D01*
X1195687Y281008D01*
X1195775Y280962D01*
X1195860Y280914D01*
X1195944Y280861D01*
X1196026Y280806D01*
X1196105Y280747D01*
X1196182Y280685D01*
X1196257Y280621D01*
X1196329Y280553D01*
X1196398Y280482D01*
X1196464Y280409D01*
X1196528Y280333D01*
X1196588Y280255D01*
X1196645Y280174D01*
X1196699Y280092D01*
X1196749Y280007D01*
X1196796Y279920D01*
X1196840Y279831D01*
X1196880Y279741D01*
X1196917Y279649D01*
X1196949Y279556D01*
X1196978Y279462D01*
X1197004Y279366D01*
X1197025Y279270D01*
X1197043Y279172D01*
X1197056Y279075D01*
X1197066Y278976D01*
X1197072Y278878D01*
X1197074Y278779D01*
X1197074Y277537D01*
X1192106Y277537D01*
X1200994Y281263D02*
X1204719Y281263D01*
X1202236Y284988D02*
X1202236Y275675D01*
X1202235Y275675D02*
X1202237Y275591D01*
X1202242Y275508D01*
X1202252Y275425D01*
X1202265Y275342D01*
X1202282Y275260D01*
X1202302Y275179D01*
X1202326Y275099D01*
X1202354Y275020D01*
X1202385Y274943D01*
X1202419Y274867D01*
X1202457Y274792D01*
X1202499Y274719D01*
X1202543Y274649D01*
X1202591Y274580D01*
X1202641Y274513D01*
X1202695Y274449D01*
X1202751Y274388D01*
X1202811Y274328D01*
X1202872Y274272D01*
X1202936Y274218D01*
X1203003Y274168D01*
X1203072Y274120D01*
X1203142Y274076D01*
X1203215Y274034D01*
X1203290Y273996D01*
X1203366Y273962D01*
X1203443Y273931D01*
X1203522Y273903D01*
X1203602Y273879D01*
X1203683Y273859D01*
X1203765Y273842D01*
X1203848Y273829D01*
X1203931Y273819D01*
X1204014Y273814D01*
X1204098Y273812D01*
X1204719Y273812D01*
X1211131Y273812D02*
X1213614Y273812D01*
X1211131Y273812D02*
X1211047Y273814D01*
X1210964Y273819D01*
X1210881Y273829D01*
X1210798Y273842D01*
X1210716Y273859D01*
X1210635Y273879D01*
X1210555Y273903D01*
X1210476Y273931D01*
X1210399Y273962D01*
X1210323Y273996D01*
X1210248Y274034D01*
X1210175Y274076D01*
X1210105Y274120D01*
X1210036Y274168D01*
X1209969Y274218D01*
X1209905Y274272D01*
X1209844Y274328D01*
X1209784Y274388D01*
X1209728Y274449D01*
X1209674Y274513D01*
X1209624Y274580D01*
X1209576Y274649D01*
X1209532Y274719D01*
X1209490Y274792D01*
X1209452Y274867D01*
X1209418Y274943D01*
X1209387Y275020D01*
X1209359Y275099D01*
X1209335Y275179D01*
X1209315Y275260D01*
X1209298Y275342D01*
X1209285Y275425D01*
X1209275Y275508D01*
X1209270Y275591D01*
X1209268Y275675D01*
X1209268Y279400D01*
X1209270Y279484D01*
X1209276Y279567D01*
X1209285Y279650D01*
X1209298Y279733D01*
X1209315Y279815D01*
X1209335Y279896D01*
X1209359Y279976D01*
X1209387Y280055D01*
X1209418Y280132D01*
X1209452Y280208D01*
X1209490Y280283D01*
X1209532Y280356D01*
X1209576Y280426D01*
X1209624Y280495D01*
X1209674Y280562D01*
X1209728Y280626D01*
X1209784Y280687D01*
X1209844Y280747D01*
X1209905Y280803D01*
X1209969Y280857D01*
X1210036Y280907D01*
X1210105Y280955D01*
X1210175Y280999D01*
X1210248Y281041D01*
X1210323Y281079D01*
X1210399Y281113D01*
X1210476Y281144D01*
X1210555Y281172D01*
X1210635Y281196D01*
X1210716Y281216D01*
X1210798Y281233D01*
X1210881Y281246D01*
X1210964Y281256D01*
X1211047Y281261D01*
X1211131Y281263D01*
X1213614Y281263D01*
X1218395Y284988D02*
X1218395Y273812D01*
X1218395Y281263D02*
X1221500Y281263D01*
X1221584Y281261D01*
X1221667Y281256D01*
X1221750Y281246D01*
X1221833Y281233D01*
X1221915Y281216D01*
X1221996Y281196D01*
X1222076Y281172D01*
X1222155Y281144D01*
X1222232Y281113D01*
X1222308Y281079D01*
X1222383Y281041D01*
X1222456Y280999D01*
X1222526Y280955D01*
X1222595Y280907D01*
X1222662Y280857D01*
X1222726Y280803D01*
X1222787Y280747D01*
X1222847Y280687D01*
X1222903Y280626D01*
X1222957Y280562D01*
X1223007Y280495D01*
X1223055Y280426D01*
X1223099Y280356D01*
X1223141Y280283D01*
X1223179Y280208D01*
X1223213Y280132D01*
X1223244Y280055D01*
X1223272Y279976D01*
X1223296Y279896D01*
X1223316Y279815D01*
X1223333Y279733D01*
X1223346Y279650D01*
X1223356Y279567D01*
X1223361Y279484D01*
X1223363Y279400D01*
X1223362Y279400D02*
X1223362Y273812D01*
X1104279Y242062D02*
X1099312Y242062D01*
X1099312Y253238D01*
X1104279Y253238D01*
X1103037Y248271D02*
X1099312Y248271D01*
X1109190Y253238D02*
X1109190Y242062D01*
X1109190Y253238D02*
X1112294Y253238D01*
X1112405Y253236D01*
X1112515Y253230D01*
X1112626Y253220D01*
X1112736Y253206D01*
X1112845Y253189D01*
X1112954Y253167D01*
X1113062Y253142D01*
X1113168Y253112D01*
X1113274Y253079D01*
X1113379Y253042D01*
X1113482Y253002D01*
X1113583Y252957D01*
X1113683Y252910D01*
X1113782Y252858D01*
X1113878Y252803D01*
X1113972Y252745D01*
X1114064Y252684D01*
X1114154Y252619D01*
X1114242Y252551D01*
X1114327Y252480D01*
X1114409Y252406D01*
X1114489Y252329D01*
X1114566Y252249D01*
X1114640Y252167D01*
X1114711Y252082D01*
X1114779Y251994D01*
X1114844Y251904D01*
X1114905Y251812D01*
X1114963Y251718D01*
X1115018Y251622D01*
X1115070Y251523D01*
X1115117Y251423D01*
X1115162Y251322D01*
X1115202Y251219D01*
X1115239Y251114D01*
X1115272Y251008D01*
X1115302Y250902D01*
X1115327Y250794D01*
X1115349Y250685D01*
X1115366Y250576D01*
X1115380Y250466D01*
X1115390Y250355D01*
X1115396Y250245D01*
X1115398Y250134D01*
X1115399Y250134D02*
X1115399Y245166D01*
X1115398Y245166D02*
X1115396Y245055D01*
X1115390Y244945D01*
X1115380Y244834D01*
X1115366Y244724D01*
X1115349Y244615D01*
X1115327Y244506D01*
X1115302Y244398D01*
X1115272Y244292D01*
X1115239Y244186D01*
X1115202Y244081D01*
X1115162Y243978D01*
X1115117Y243877D01*
X1115070Y243777D01*
X1115018Y243678D01*
X1114963Y243582D01*
X1114905Y243488D01*
X1114844Y243396D01*
X1114779Y243306D01*
X1114711Y243218D01*
X1114640Y243133D01*
X1114566Y243051D01*
X1114489Y242971D01*
X1114409Y242894D01*
X1114327Y242820D01*
X1114242Y242749D01*
X1114154Y242681D01*
X1114064Y242616D01*
X1113972Y242555D01*
X1113878Y242497D01*
X1113782Y242442D01*
X1113683Y242390D01*
X1113583Y242343D01*
X1113482Y242298D01*
X1113379Y242258D01*
X1113274Y242221D01*
X1113168Y242188D01*
X1113062Y242158D01*
X1112954Y242133D01*
X1112845Y242111D01*
X1112736Y242094D01*
X1112626Y242080D01*
X1112515Y242070D01*
X1112405Y242064D01*
X1112294Y242062D01*
X1109190Y242062D01*
X1121410Y242062D02*
X1126377Y242062D01*
X1121410Y242062D02*
X1121410Y253238D01*
X1126377Y253238D01*
X1125135Y248271D02*
X1121410Y248271D01*
X1134251Y242062D02*
X1134348Y242064D01*
X1134446Y242070D01*
X1134543Y242079D01*
X1134640Y242093D01*
X1134736Y242110D01*
X1134831Y242131D01*
X1134925Y242155D01*
X1135019Y242184D01*
X1135111Y242216D01*
X1135202Y242251D01*
X1135291Y242290D01*
X1135379Y242333D01*
X1135465Y242379D01*
X1135549Y242428D01*
X1135631Y242481D01*
X1135711Y242536D01*
X1135789Y242595D01*
X1135864Y242657D01*
X1135937Y242722D01*
X1136007Y242790D01*
X1136075Y242860D01*
X1136140Y242933D01*
X1136202Y243008D01*
X1136261Y243086D01*
X1136316Y243166D01*
X1136369Y243248D01*
X1136418Y243332D01*
X1136464Y243418D01*
X1136507Y243506D01*
X1136546Y243595D01*
X1136581Y243686D01*
X1136613Y243778D01*
X1136642Y243872D01*
X1136666Y243966D01*
X1136687Y244061D01*
X1136704Y244157D01*
X1136718Y244254D01*
X1136727Y244351D01*
X1136733Y244448D01*
X1136735Y244546D01*
X1134251Y242062D02*
X1134108Y242064D01*
X1133965Y242070D01*
X1133823Y242079D01*
X1133681Y242093D01*
X1133539Y242111D01*
X1133398Y242132D01*
X1133257Y242157D01*
X1133117Y242186D01*
X1132978Y242219D01*
X1132840Y242255D01*
X1132703Y242296D01*
X1132567Y242340D01*
X1132432Y242387D01*
X1132299Y242439D01*
X1132167Y242494D01*
X1132037Y242552D01*
X1131908Y242614D01*
X1131781Y242680D01*
X1131656Y242749D01*
X1131533Y242821D01*
X1131412Y242897D01*
X1131293Y242975D01*
X1131176Y243058D01*
X1131061Y243143D01*
X1130949Y243231D01*
X1130839Y243323D01*
X1130732Y243417D01*
X1130627Y243514D01*
X1130525Y243614D01*
X1130836Y250754D02*
X1130838Y250852D01*
X1130844Y250949D01*
X1130853Y251046D01*
X1130867Y251143D01*
X1130884Y251239D01*
X1130905Y251334D01*
X1130929Y251428D01*
X1130958Y251522D01*
X1130990Y251614D01*
X1131025Y251705D01*
X1131064Y251794D01*
X1131107Y251882D01*
X1131153Y251968D01*
X1131202Y252052D01*
X1131255Y252134D01*
X1131310Y252214D01*
X1131369Y252292D01*
X1131431Y252367D01*
X1131496Y252440D01*
X1131564Y252510D01*
X1131634Y252578D01*
X1131707Y252643D01*
X1131782Y252705D01*
X1131860Y252764D01*
X1131940Y252819D01*
X1132022Y252872D01*
X1132106Y252921D01*
X1132192Y252967D01*
X1132280Y253010D01*
X1132369Y253049D01*
X1132460Y253084D01*
X1132552Y253116D01*
X1132646Y253145D01*
X1132740Y253169D01*
X1132835Y253190D01*
X1132931Y253207D01*
X1133028Y253221D01*
X1133125Y253230D01*
X1133222Y253236D01*
X1133320Y253238D01*
X1133450Y253236D01*
X1133580Y253231D01*
X1133710Y253222D01*
X1133840Y253209D01*
X1133969Y253193D01*
X1134098Y253173D01*
X1134226Y253149D01*
X1134354Y253122D01*
X1134480Y253091D01*
X1134606Y253057D01*
X1134731Y253019D01*
X1134854Y252978D01*
X1134977Y252933D01*
X1135098Y252885D01*
X1135218Y252834D01*
X1135336Y252779D01*
X1135452Y252721D01*
X1135567Y252660D01*
X1135681Y252595D01*
X1135792Y252528D01*
X1135901Y252457D01*
X1136009Y252383D01*
X1136114Y252307D01*
X1132079Y248581D02*
X1131996Y248632D01*
X1131915Y248686D01*
X1131837Y248743D01*
X1131761Y248803D01*
X1131687Y248866D01*
X1131616Y248932D01*
X1131547Y249000D01*
X1131481Y249071D01*
X1131417Y249144D01*
X1131357Y249220D01*
X1131300Y249298D01*
X1131245Y249379D01*
X1131194Y249461D01*
X1131146Y249545D01*
X1131101Y249631D01*
X1131059Y249719D01*
X1131021Y249808D01*
X1130987Y249898D01*
X1130955Y249990D01*
X1130928Y250083D01*
X1130904Y250177D01*
X1130883Y250272D01*
X1130867Y250368D01*
X1130854Y250464D01*
X1130844Y250560D01*
X1130839Y250657D01*
X1130837Y250754D01*
X1135492Y246719D02*
X1135575Y246668D01*
X1135656Y246614D01*
X1135734Y246557D01*
X1135810Y246497D01*
X1135884Y246434D01*
X1135955Y246368D01*
X1136024Y246300D01*
X1136090Y246229D01*
X1136154Y246156D01*
X1136214Y246080D01*
X1136271Y246002D01*
X1136326Y245921D01*
X1136377Y245839D01*
X1136425Y245755D01*
X1136470Y245669D01*
X1136512Y245581D01*
X1136550Y245492D01*
X1136584Y245402D01*
X1136616Y245310D01*
X1136643Y245217D01*
X1136667Y245123D01*
X1136688Y245028D01*
X1136704Y244932D01*
X1136717Y244836D01*
X1136727Y244740D01*
X1136732Y244643D01*
X1136734Y244546D01*
X1135493Y246719D02*
X1132078Y248581D01*
X1147671Y242062D02*
X1150775Y242062D01*
X1150886Y242064D01*
X1150996Y242070D01*
X1151107Y242080D01*
X1151217Y242094D01*
X1151326Y242111D01*
X1151435Y242133D01*
X1151543Y242158D01*
X1151649Y242188D01*
X1151755Y242221D01*
X1151860Y242258D01*
X1151963Y242298D01*
X1152064Y242343D01*
X1152164Y242390D01*
X1152263Y242442D01*
X1152359Y242497D01*
X1152453Y242555D01*
X1152545Y242616D01*
X1152635Y242681D01*
X1152723Y242749D01*
X1152808Y242820D01*
X1152890Y242894D01*
X1152970Y242971D01*
X1153047Y243051D01*
X1153121Y243133D01*
X1153192Y243218D01*
X1153260Y243306D01*
X1153325Y243396D01*
X1153386Y243488D01*
X1153444Y243582D01*
X1153499Y243678D01*
X1153551Y243777D01*
X1153598Y243877D01*
X1153643Y243978D01*
X1153683Y244081D01*
X1153720Y244186D01*
X1153753Y244292D01*
X1153783Y244398D01*
X1153808Y244506D01*
X1153830Y244615D01*
X1153847Y244724D01*
X1153861Y244834D01*
X1153871Y244945D01*
X1153877Y245055D01*
X1153879Y245166D01*
X1153877Y245277D01*
X1153871Y245387D01*
X1153861Y245498D01*
X1153847Y245608D01*
X1153830Y245717D01*
X1153808Y245826D01*
X1153783Y245934D01*
X1153753Y246040D01*
X1153720Y246146D01*
X1153683Y246251D01*
X1153643Y246354D01*
X1153598Y246455D01*
X1153551Y246555D01*
X1153499Y246654D01*
X1153444Y246750D01*
X1153386Y246844D01*
X1153325Y246936D01*
X1153260Y247026D01*
X1153192Y247114D01*
X1153121Y247199D01*
X1153047Y247281D01*
X1152970Y247361D01*
X1152890Y247438D01*
X1152808Y247512D01*
X1152723Y247583D01*
X1152635Y247651D01*
X1152545Y247716D01*
X1152453Y247777D01*
X1152359Y247835D01*
X1152263Y247890D01*
X1152164Y247942D01*
X1152064Y247989D01*
X1151963Y248034D01*
X1151860Y248074D01*
X1151755Y248111D01*
X1151649Y248144D01*
X1151543Y248174D01*
X1151435Y248199D01*
X1151326Y248221D01*
X1151217Y248238D01*
X1151107Y248252D01*
X1150996Y248262D01*
X1150886Y248268D01*
X1150775Y248270D01*
X1151396Y253238D02*
X1147671Y253238D01*
X1151396Y253238D02*
X1151495Y253236D01*
X1151593Y253230D01*
X1151692Y253220D01*
X1151789Y253207D01*
X1151887Y253189D01*
X1151983Y253168D01*
X1152079Y253142D01*
X1152173Y253113D01*
X1152266Y253081D01*
X1152358Y253044D01*
X1152448Y253004D01*
X1152537Y252960D01*
X1152624Y252913D01*
X1152709Y252863D01*
X1152791Y252809D01*
X1152872Y252752D01*
X1152950Y252692D01*
X1153026Y252628D01*
X1153099Y252562D01*
X1153170Y252493D01*
X1153238Y252421D01*
X1153302Y252346D01*
X1153364Y252269D01*
X1153423Y252190D01*
X1153478Y252108D01*
X1153531Y252024D01*
X1153579Y251939D01*
X1153625Y251851D01*
X1153667Y251761D01*
X1153705Y251670D01*
X1153739Y251578D01*
X1153770Y251484D01*
X1153797Y251389D01*
X1153821Y251293D01*
X1153840Y251196D01*
X1153856Y251099D01*
X1153868Y251001D01*
X1153876Y250902D01*
X1153880Y250803D01*
X1153880Y250705D01*
X1153876Y250606D01*
X1153868Y250507D01*
X1153856Y250409D01*
X1153840Y250312D01*
X1153821Y250215D01*
X1153797Y250119D01*
X1153770Y250024D01*
X1153739Y249930D01*
X1153705Y249838D01*
X1153667Y249747D01*
X1153625Y249657D01*
X1153579Y249569D01*
X1153531Y249484D01*
X1153478Y249400D01*
X1153423Y249318D01*
X1153364Y249239D01*
X1153302Y249162D01*
X1153238Y249087D01*
X1153170Y249015D01*
X1153099Y248946D01*
X1153026Y248880D01*
X1152950Y248816D01*
X1152872Y248756D01*
X1152791Y248699D01*
X1152709Y248645D01*
X1152624Y248595D01*
X1152537Y248548D01*
X1152448Y248504D01*
X1152358Y248464D01*
X1152266Y248427D01*
X1152173Y248395D01*
X1152079Y248366D01*
X1151983Y248340D01*
X1151887Y248319D01*
X1151789Y248301D01*
X1151692Y248288D01*
X1151593Y248278D01*
X1151495Y248272D01*
X1151396Y248270D01*
X1151396Y248271D02*
X1148912Y248271D01*
X1159101Y247650D02*
X1159104Y247870D01*
X1159111Y248090D01*
X1159125Y248309D01*
X1159143Y248528D01*
X1159167Y248747D01*
X1159195Y248965D01*
X1159229Y249182D01*
X1159268Y249398D01*
X1159313Y249614D01*
X1159362Y249828D01*
X1159417Y250041D01*
X1159476Y250253D01*
X1159541Y250463D01*
X1159611Y250671D01*
X1159685Y250878D01*
X1159765Y251083D01*
X1159849Y251286D01*
X1159938Y251487D01*
X1160032Y251686D01*
X1160065Y251775D01*
X1160101Y251863D01*
X1160141Y251949D01*
X1160184Y252034D01*
X1160231Y252116D01*
X1160282Y252197D01*
X1160335Y252275D01*
X1160392Y252351D01*
X1160452Y252425D01*
X1160515Y252496D01*
X1160580Y252565D01*
X1160649Y252631D01*
X1160720Y252693D01*
X1160794Y252753D01*
X1160870Y252810D01*
X1160948Y252864D01*
X1161029Y252914D01*
X1161111Y252961D01*
X1161196Y253004D01*
X1161282Y253044D01*
X1161370Y253081D01*
X1161459Y253113D01*
X1161549Y253142D01*
X1161641Y253168D01*
X1161733Y253189D01*
X1161827Y253207D01*
X1161921Y253220D01*
X1162015Y253230D01*
X1162110Y253236D01*
X1162205Y253238D01*
X1162300Y253236D01*
X1162395Y253230D01*
X1162489Y253220D01*
X1162583Y253207D01*
X1162677Y253189D01*
X1162769Y253168D01*
X1162861Y253142D01*
X1162951Y253113D01*
X1163040Y253081D01*
X1163128Y253044D01*
X1163214Y253004D01*
X1163299Y252961D01*
X1163381Y252914D01*
X1163462Y252864D01*
X1163540Y252810D01*
X1163616Y252753D01*
X1163690Y252693D01*
X1163761Y252631D01*
X1163830Y252565D01*
X1163895Y252496D01*
X1163958Y252425D01*
X1164018Y252351D01*
X1164075Y252275D01*
X1164128Y252197D01*
X1164179Y252116D01*
X1164226Y252033D01*
X1164269Y251949D01*
X1164309Y251863D01*
X1164345Y251775D01*
X1164378Y251686D01*
X1164379Y251686D02*
X1164473Y251487D01*
X1164562Y251286D01*
X1164646Y251083D01*
X1164726Y250878D01*
X1164800Y250671D01*
X1164870Y250463D01*
X1164935Y250253D01*
X1164994Y250041D01*
X1165049Y249828D01*
X1165098Y249614D01*
X1165143Y249398D01*
X1165182Y249182D01*
X1165216Y248965D01*
X1165244Y248747D01*
X1165268Y248528D01*
X1165286Y248309D01*
X1165300Y248090D01*
X1165307Y247870D01*
X1165310Y247650D01*
X1159101Y247650D02*
X1159104Y247430D01*
X1159111Y247210D01*
X1159125Y246991D01*
X1159143Y246772D01*
X1159167Y246553D01*
X1159195Y246335D01*
X1159229Y246118D01*
X1159268Y245902D01*
X1159313Y245686D01*
X1159362Y245472D01*
X1159417Y245259D01*
X1159476Y245048D01*
X1159541Y244837D01*
X1159611Y244629D01*
X1159685Y244422D01*
X1159765Y244217D01*
X1159849Y244014D01*
X1159938Y243813D01*
X1160032Y243614D01*
X1160065Y243525D01*
X1160101Y243437D01*
X1160141Y243351D01*
X1160184Y243266D01*
X1160231Y243184D01*
X1160282Y243103D01*
X1160335Y243025D01*
X1160392Y242949D01*
X1160452Y242875D01*
X1160515Y242804D01*
X1160580Y242735D01*
X1160649Y242669D01*
X1160720Y242607D01*
X1160794Y242547D01*
X1160870Y242490D01*
X1160948Y242436D01*
X1161029Y242386D01*
X1161111Y242339D01*
X1161196Y242296D01*
X1161282Y242256D01*
X1161370Y242219D01*
X1161459Y242187D01*
X1161549Y242158D01*
X1161641Y242132D01*
X1161733Y242111D01*
X1161827Y242093D01*
X1161921Y242080D01*
X1162015Y242070D01*
X1162110Y242064D01*
X1162205Y242062D01*
X1164379Y243614D02*
X1164473Y243813D01*
X1164562Y244014D01*
X1164646Y244217D01*
X1164726Y244422D01*
X1164800Y244629D01*
X1164870Y244837D01*
X1164935Y245047D01*
X1164994Y245259D01*
X1165049Y245472D01*
X1165098Y245686D01*
X1165143Y245902D01*
X1165182Y246118D01*
X1165216Y246335D01*
X1165244Y246553D01*
X1165268Y246772D01*
X1165286Y246991D01*
X1165300Y247210D01*
X1165307Y247430D01*
X1165310Y247650D01*
X1164378Y243614D02*
X1164345Y243525D01*
X1164309Y243437D01*
X1164269Y243351D01*
X1164226Y243266D01*
X1164179Y243184D01*
X1164128Y243103D01*
X1164075Y243025D01*
X1164018Y242949D01*
X1163958Y242875D01*
X1163895Y242804D01*
X1163830Y242735D01*
X1163761Y242669D01*
X1163690Y242607D01*
X1163616Y242547D01*
X1163540Y242490D01*
X1163462Y242436D01*
X1163381Y242386D01*
X1163299Y242339D01*
X1163214Y242296D01*
X1163128Y242256D01*
X1163040Y242219D01*
X1162951Y242187D01*
X1162861Y242158D01*
X1162769Y242132D01*
X1162677Y242111D01*
X1162583Y242093D01*
X1162489Y242080D01*
X1162395Y242070D01*
X1162300Y242064D01*
X1162205Y242062D01*
X1159722Y244546D02*
X1164689Y250754D01*
X1170531Y250754D02*
X1173635Y253238D01*
X1173635Y242062D01*
X1170531Y242062D02*
X1176740Y242062D01*
X464312Y946912D02*
X464312Y958088D01*
X467416Y958088D01*
X467527Y958086D01*
X467637Y958080D01*
X467748Y958070D01*
X467858Y958056D01*
X467967Y958039D01*
X468076Y958017D01*
X468184Y957992D01*
X468290Y957962D01*
X468396Y957929D01*
X468501Y957892D01*
X468604Y957852D01*
X468705Y957807D01*
X468805Y957760D01*
X468904Y957708D01*
X469000Y957653D01*
X469094Y957595D01*
X469186Y957534D01*
X469276Y957469D01*
X469364Y957401D01*
X469449Y957330D01*
X469531Y957256D01*
X469611Y957179D01*
X469688Y957099D01*
X469762Y957017D01*
X469833Y956932D01*
X469901Y956844D01*
X469966Y956754D01*
X470027Y956662D01*
X470085Y956568D01*
X470140Y956472D01*
X470192Y956373D01*
X470239Y956273D01*
X470284Y956172D01*
X470324Y956069D01*
X470361Y955964D01*
X470394Y955858D01*
X470424Y955752D01*
X470449Y955644D01*
X470471Y955535D01*
X470488Y955426D01*
X470502Y955316D01*
X470512Y955205D01*
X470518Y955095D01*
X470520Y954984D01*
X470518Y954873D01*
X470512Y954763D01*
X470502Y954652D01*
X470488Y954542D01*
X470471Y954433D01*
X470449Y954324D01*
X470424Y954216D01*
X470394Y954110D01*
X470361Y954004D01*
X470324Y953899D01*
X470284Y953796D01*
X470239Y953695D01*
X470192Y953595D01*
X470140Y953496D01*
X470085Y953400D01*
X470027Y953306D01*
X469966Y953214D01*
X469901Y953124D01*
X469833Y953036D01*
X469762Y952951D01*
X469688Y952869D01*
X469611Y952789D01*
X469531Y952712D01*
X469449Y952638D01*
X469364Y952567D01*
X469276Y952499D01*
X469186Y952434D01*
X469094Y952373D01*
X469000Y952315D01*
X468904Y952260D01*
X468805Y952208D01*
X468705Y952161D01*
X468604Y952116D01*
X468501Y952076D01*
X468396Y952039D01*
X468290Y952006D01*
X468184Y951976D01*
X468076Y951951D01*
X467967Y951929D01*
X467858Y951912D01*
X467748Y951898D01*
X467637Y951888D01*
X467527Y951882D01*
X467416Y951880D01*
X467416Y951879D02*
X464312Y951879D01*
X468037Y951879D02*
X470521Y946912D01*
X477372Y946912D02*
X480476Y946912D01*
X477372Y946912D02*
X477288Y946914D01*
X477205Y946919D01*
X477122Y946929D01*
X477039Y946942D01*
X476957Y946959D01*
X476876Y946979D01*
X476796Y947003D01*
X476717Y947031D01*
X476640Y947062D01*
X476564Y947096D01*
X476489Y947134D01*
X476416Y947176D01*
X476346Y947220D01*
X476277Y947268D01*
X476210Y947318D01*
X476146Y947372D01*
X476085Y947428D01*
X476025Y947488D01*
X475969Y947549D01*
X475915Y947613D01*
X475865Y947680D01*
X475817Y947749D01*
X475773Y947819D01*
X475731Y947892D01*
X475693Y947967D01*
X475659Y948043D01*
X475628Y948120D01*
X475600Y948199D01*
X475576Y948279D01*
X475556Y948360D01*
X475539Y948442D01*
X475526Y948525D01*
X475516Y948608D01*
X475511Y948691D01*
X475509Y948775D01*
X475509Y951879D01*
X475508Y951879D02*
X475510Y951978D01*
X475516Y952076D01*
X475526Y952175D01*
X475539Y952272D01*
X475557Y952370D01*
X475578Y952466D01*
X475604Y952562D01*
X475633Y952656D01*
X475665Y952749D01*
X475702Y952841D01*
X475742Y952931D01*
X475786Y953020D01*
X475833Y953107D01*
X475883Y953192D01*
X475937Y953274D01*
X475994Y953355D01*
X476054Y953433D01*
X476118Y953509D01*
X476184Y953582D01*
X476253Y953653D01*
X476325Y953721D01*
X476400Y953785D01*
X476477Y953847D01*
X476556Y953906D01*
X476638Y953961D01*
X476722Y954014D01*
X476807Y954062D01*
X476895Y954108D01*
X476985Y954150D01*
X477076Y954188D01*
X477168Y954222D01*
X477262Y954253D01*
X477357Y954280D01*
X477453Y954304D01*
X477550Y954323D01*
X477647Y954339D01*
X477745Y954351D01*
X477844Y954359D01*
X477943Y954363D01*
X478041Y954363D01*
X478140Y954359D01*
X478239Y954351D01*
X478337Y954339D01*
X478434Y954323D01*
X478531Y954304D01*
X478627Y954280D01*
X478722Y954253D01*
X478816Y954222D01*
X478908Y954188D01*
X478999Y954150D01*
X479089Y954108D01*
X479177Y954062D01*
X479262Y954014D01*
X479346Y953961D01*
X479428Y953906D01*
X479507Y953847D01*
X479584Y953785D01*
X479659Y953721D01*
X479731Y953653D01*
X479800Y953582D01*
X479866Y953509D01*
X479930Y953433D01*
X479990Y953355D01*
X480047Y953274D01*
X480101Y953192D01*
X480151Y953107D01*
X480198Y953020D01*
X480242Y952931D01*
X480282Y952841D01*
X480319Y952749D01*
X480351Y952656D01*
X480380Y952562D01*
X480406Y952466D01*
X480427Y952370D01*
X480445Y952272D01*
X480458Y952175D01*
X480468Y952076D01*
X480474Y951978D01*
X480476Y951879D01*
X480476Y950637D01*
X475509Y950637D01*
X486346Y951258D02*
X489451Y950016D01*
X486346Y951258D02*
X486274Y951289D01*
X486204Y951323D01*
X486135Y951361D01*
X486068Y951402D01*
X486003Y951446D01*
X485941Y951494D01*
X485881Y951544D01*
X485823Y951597D01*
X485768Y951653D01*
X485716Y951712D01*
X485667Y951773D01*
X485621Y951836D01*
X485578Y951901D01*
X485538Y951969D01*
X485501Y952038D01*
X485468Y952109D01*
X485439Y952182D01*
X485413Y952256D01*
X485390Y952331D01*
X485372Y952407D01*
X485357Y952484D01*
X485345Y952562D01*
X485338Y952640D01*
X485334Y952718D01*
X485335Y952796D01*
X485339Y952875D01*
X485346Y952953D01*
X485358Y953030D01*
X485373Y953107D01*
X485393Y953183D01*
X485415Y953258D01*
X485442Y953332D01*
X485472Y953404D01*
X485505Y953475D01*
X485542Y953544D01*
X485582Y953612D01*
X485626Y953677D01*
X485672Y953740D01*
X485722Y953801D01*
X485774Y953859D01*
X485829Y953915D01*
X485887Y953968D01*
X485948Y954018D01*
X486010Y954065D01*
X486075Y954108D01*
X486142Y954149D01*
X486211Y954187D01*
X486282Y954220D01*
X486354Y954251D01*
X486428Y954278D01*
X486502Y954301D01*
X486578Y954321D01*
X486655Y954337D01*
X486732Y954349D01*
X486810Y954357D01*
X486889Y954362D01*
X486967Y954363D01*
X486967Y954362D02*
X487136Y954358D01*
X487306Y954349D01*
X487475Y954337D01*
X487643Y954320D01*
X487812Y954299D01*
X487979Y954275D01*
X488146Y954246D01*
X488313Y954213D01*
X488478Y954176D01*
X488643Y954135D01*
X488806Y954091D01*
X488969Y954042D01*
X489130Y953990D01*
X489290Y953933D01*
X489448Y953873D01*
X489605Y953809D01*
X489761Y953741D01*
X489451Y950017D02*
X489523Y949986D01*
X489593Y949952D01*
X489662Y949914D01*
X489729Y949873D01*
X489794Y949829D01*
X489856Y949781D01*
X489916Y949731D01*
X489974Y949678D01*
X490029Y949622D01*
X490081Y949563D01*
X490130Y949502D01*
X490176Y949439D01*
X490219Y949374D01*
X490259Y949306D01*
X490296Y949237D01*
X490329Y949166D01*
X490358Y949093D01*
X490384Y949019D01*
X490407Y948944D01*
X490425Y948868D01*
X490440Y948791D01*
X490452Y948713D01*
X490459Y948635D01*
X490463Y948557D01*
X490462Y948479D01*
X490458Y948400D01*
X490451Y948322D01*
X490439Y948245D01*
X490424Y948168D01*
X490404Y948092D01*
X490382Y948017D01*
X490355Y947943D01*
X490325Y947871D01*
X490292Y947800D01*
X490255Y947731D01*
X490215Y947663D01*
X490171Y947598D01*
X490125Y947535D01*
X490075Y947474D01*
X490023Y947416D01*
X489968Y947360D01*
X489910Y947307D01*
X489849Y947257D01*
X489787Y947210D01*
X489722Y947167D01*
X489655Y947126D01*
X489586Y947088D01*
X489515Y947055D01*
X489443Y947024D01*
X489369Y946997D01*
X489295Y946974D01*
X489219Y946954D01*
X489142Y946938D01*
X489065Y946926D01*
X488987Y946918D01*
X488908Y946913D01*
X488830Y946912D01*
X488829Y946912D02*
X488580Y946919D01*
X488332Y946931D01*
X488083Y946949D01*
X487835Y946973D01*
X487588Y947003D01*
X487342Y947039D01*
X487096Y947081D01*
X486852Y947128D01*
X486608Y947182D01*
X486366Y947240D01*
X486126Y947305D01*
X485887Y947375D01*
X485650Y947451D01*
X485415Y947533D01*
X497183Y946912D02*
X500288Y946912D01*
X497183Y946912D02*
X497099Y946914D01*
X497016Y946919D01*
X496933Y946929D01*
X496850Y946942D01*
X496768Y946959D01*
X496687Y946979D01*
X496607Y947003D01*
X496528Y947031D01*
X496451Y947062D01*
X496375Y947096D01*
X496300Y947134D01*
X496227Y947176D01*
X496157Y947220D01*
X496088Y947268D01*
X496021Y947318D01*
X495957Y947372D01*
X495896Y947428D01*
X495836Y947488D01*
X495780Y947549D01*
X495726Y947613D01*
X495676Y947680D01*
X495628Y947749D01*
X495584Y947819D01*
X495542Y947892D01*
X495504Y947967D01*
X495470Y948043D01*
X495439Y948120D01*
X495411Y948199D01*
X495387Y948279D01*
X495367Y948360D01*
X495350Y948442D01*
X495337Y948525D01*
X495327Y948608D01*
X495322Y948691D01*
X495320Y948775D01*
X495321Y948775D02*
X495321Y951879D01*
X495320Y951879D02*
X495322Y951978D01*
X495328Y952076D01*
X495338Y952175D01*
X495351Y952272D01*
X495369Y952370D01*
X495390Y952466D01*
X495416Y952562D01*
X495445Y952656D01*
X495477Y952749D01*
X495514Y952841D01*
X495554Y952931D01*
X495598Y953020D01*
X495645Y953107D01*
X495695Y953192D01*
X495749Y953274D01*
X495806Y953355D01*
X495866Y953433D01*
X495930Y953509D01*
X495996Y953582D01*
X496065Y953653D01*
X496137Y953721D01*
X496212Y953785D01*
X496289Y953847D01*
X496368Y953906D01*
X496450Y953961D01*
X496534Y954014D01*
X496619Y954062D01*
X496707Y954108D01*
X496797Y954150D01*
X496888Y954188D01*
X496980Y954222D01*
X497074Y954253D01*
X497169Y954280D01*
X497265Y954304D01*
X497362Y954323D01*
X497459Y954339D01*
X497557Y954351D01*
X497656Y954359D01*
X497755Y954363D01*
X497853Y954363D01*
X497952Y954359D01*
X498051Y954351D01*
X498149Y954339D01*
X498246Y954323D01*
X498343Y954304D01*
X498439Y954280D01*
X498534Y954253D01*
X498628Y954222D01*
X498720Y954188D01*
X498811Y954150D01*
X498901Y954108D01*
X498989Y954062D01*
X499074Y954014D01*
X499158Y953961D01*
X499240Y953906D01*
X499319Y953847D01*
X499396Y953785D01*
X499471Y953721D01*
X499543Y953653D01*
X499612Y953582D01*
X499678Y953509D01*
X499742Y953433D01*
X499802Y953355D01*
X499859Y953274D01*
X499913Y953192D01*
X499963Y953107D01*
X500010Y953020D01*
X500054Y952931D01*
X500094Y952841D01*
X500131Y952749D01*
X500163Y952656D01*
X500192Y952562D01*
X500218Y952466D01*
X500239Y952370D01*
X500257Y952272D01*
X500270Y952175D01*
X500280Y952076D01*
X500286Y951978D01*
X500288Y951879D01*
X500288Y950637D01*
X495321Y950637D01*
X504208Y954363D02*
X507934Y954363D01*
X505450Y958088D02*
X505450Y948775D01*
X505452Y948691D01*
X505457Y948608D01*
X505467Y948525D01*
X505480Y948442D01*
X505497Y948360D01*
X505517Y948279D01*
X505541Y948199D01*
X505569Y948120D01*
X505600Y948043D01*
X505634Y947967D01*
X505672Y947892D01*
X505714Y947819D01*
X505758Y947749D01*
X505806Y947680D01*
X505856Y947613D01*
X505910Y947549D01*
X505966Y947488D01*
X506026Y947428D01*
X506087Y947372D01*
X506151Y947318D01*
X506218Y947268D01*
X506287Y947220D01*
X506357Y947176D01*
X506430Y947134D01*
X506505Y947096D01*
X506581Y947062D01*
X506658Y947031D01*
X506737Y947003D01*
X506817Y946979D01*
X506898Y946959D01*
X506980Y946942D01*
X507063Y946929D01*
X507146Y946919D01*
X507229Y946914D01*
X507313Y946912D01*
X507934Y946912D01*
X847796Y38862D02*
X850279Y38862D01*
X847796Y38862D02*
X847698Y38864D01*
X847601Y38870D01*
X847504Y38879D01*
X847407Y38893D01*
X847311Y38910D01*
X847216Y38931D01*
X847122Y38955D01*
X847028Y38984D01*
X846936Y39016D01*
X846845Y39051D01*
X846756Y39090D01*
X846668Y39133D01*
X846582Y39179D01*
X846498Y39228D01*
X846416Y39281D01*
X846336Y39336D01*
X846258Y39395D01*
X846183Y39457D01*
X846110Y39522D01*
X846040Y39590D01*
X845972Y39660D01*
X845907Y39733D01*
X845845Y39808D01*
X845786Y39886D01*
X845731Y39966D01*
X845678Y40048D01*
X845629Y40132D01*
X845583Y40218D01*
X845540Y40306D01*
X845501Y40395D01*
X845466Y40486D01*
X845434Y40578D01*
X845405Y40672D01*
X845381Y40766D01*
X845360Y40861D01*
X845343Y40957D01*
X845329Y41054D01*
X845320Y41151D01*
X845314Y41248D01*
X845312Y41346D01*
X845312Y47554D01*
X845314Y47652D01*
X845320Y47749D01*
X845329Y47846D01*
X845343Y47943D01*
X845360Y48039D01*
X845381Y48134D01*
X845405Y48228D01*
X845434Y48322D01*
X845466Y48414D01*
X845501Y48505D01*
X845540Y48594D01*
X845583Y48682D01*
X845629Y48768D01*
X845678Y48852D01*
X845731Y48934D01*
X845786Y49014D01*
X845845Y49092D01*
X845907Y49167D01*
X845972Y49240D01*
X846040Y49310D01*
X846110Y49378D01*
X846183Y49443D01*
X846258Y49505D01*
X846336Y49564D01*
X846416Y49619D01*
X846498Y49672D01*
X846582Y49721D01*
X846668Y49767D01*
X846756Y49810D01*
X846845Y49849D01*
X846936Y49884D01*
X847028Y49916D01*
X847122Y49945D01*
X847216Y49969D01*
X847311Y49990D01*
X847407Y50007D01*
X847504Y50021D01*
X847601Y50030D01*
X847698Y50036D01*
X847796Y50038D01*
X850279Y50038D01*
X854737Y43829D02*
X854737Y41346D01*
X854737Y43829D02*
X854739Y43928D01*
X854745Y44026D01*
X854755Y44125D01*
X854768Y44222D01*
X854786Y44320D01*
X854807Y44416D01*
X854833Y44512D01*
X854862Y44606D01*
X854894Y44699D01*
X854931Y44791D01*
X854971Y44881D01*
X855015Y44970D01*
X855062Y45057D01*
X855112Y45142D01*
X855166Y45224D01*
X855223Y45305D01*
X855283Y45383D01*
X855347Y45459D01*
X855413Y45532D01*
X855482Y45603D01*
X855554Y45671D01*
X855629Y45735D01*
X855706Y45797D01*
X855785Y45856D01*
X855867Y45911D01*
X855951Y45964D01*
X856036Y46012D01*
X856124Y46058D01*
X856214Y46100D01*
X856305Y46138D01*
X856397Y46172D01*
X856491Y46203D01*
X856586Y46230D01*
X856682Y46254D01*
X856779Y46273D01*
X856876Y46289D01*
X856974Y46301D01*
X857073Y46309D01*
X857172Y46313D01*
X857270Y46313D01*
X857369Y46309D01*
X857468Y46301D01*
X857566Y46289D01*
X857663Y46273D01*
X857760Y46254D01*
X857856Y46230D01*
X857951Y46203D01*
X858045Y46172D01*
X858137Y46138D01*
X858228Y46100D01*
X858318Y46058D01*
X858406Y46012D01*
X858491Y45964D01*
X858575Y45911D01*
X858657Y45856D01*
X858736Y45797D01*
X858813Y45735D01*
X858888Y45671D01*
X858960Y45603D01*
X859029Y45532D01*
X859095Y45459D01*
X859159Y45383D01*
X859219Y45305D01*
X859276Y45224D01*
X859330Y45142D01*
X859380Y45057D01*
X859427Y44970D01*
X859471Y44881D01*
X859511Y44791D01*
X859548Y44699D01*
X859580Y44606D01*
X859609Y44512D01*
X859635Y44416D01*
X859656Y44320D01*
X859674Y44222D01*
X859687Y44125D01*
X859697Y44026D01*
X859703Y43928D01*
X859705Y43829D01*
X859704Y43829D02*
X859704Y41346D01*
X859705Y41346D02*
X859703Y41247D01*
X859697Y41149D01*
X859687Y41050D01*
X859674Y40953D01*
X859656Y40855D01*
X859635Y40759D01*
X859609Y40663D01*
X859580Y40569D01*
X859548Y40476D01*
X859511Y40384D01*
X859471Y40294D01*
X859427Y40205D01*
X859380Y40118D01*
X859330Y40033D01*
X859276Y39951D01*
X859219Y39870D01*
X859159Y39792D01*
X859095Y39716D01*
X859029Y39643D01*
X858960Y39572D01*
X858888Y39504D01*
X858813Y39440D01*
X858736Y39378D01*
X858657Y39319D01*
X858575Y39264D01*
X858491Y39211D01*
X858406Y39163D01*
X858318Y39117D01*
X858228Y39075D01*
X858137Y39037D01*
X858045Y39003D01*
X857951Y38972D01*
X857856Y38945D01*
X857760Y38921D01*
X857663Y38902D01*
X857566Y38886D01*
X857468Y38874D01*
X857369Y38866D01*
X857270Y38862D01*
X857172Y38862D01*
X857073Y38866D01*
X856974Y38874D01*
X856876Y38886D01*
X856779Y38902D01*
X856682Y38921D01*
X856586Y38945D01*
X856491Y38972D01*
X856397Y39003D01*
X856305Y39037D01*
X856214Y39075D01*
X856124Y39117D01*
X856036Y39163D01*
X855951Y39211D01*
X855867Y39264D01*
X855785Y39319D01*
X855706Y39378D01*
X855629Y39440D01*
X855554Y39504D01*
X855482Y39572D01*
X855413Y39643D01*
X855347Y39716D01*
X855283Y39792D01*
X855223Y39870D01*
X855166Y39951D01*
X855112Y40033D01*
X855062Y40118D01*
X855015Y40205D01*
X854971Y40294D01*
X854931Y40384D01*
X854894Y40476D01*
X854862Y40569D01*
X854833Y40663D01*
X854807Y40759D01*
X854786Y40855D01*
X854768Y40953D01*
X854755Y41050D01*
X854745Y41149D01*
X854739Y41247D01*
X854737Y41346D01*
X864735Y40725D02*
X864735Y50038D01*
X864735Y40725D02*
X864737Y40641D01*
X864742Y40558D01*
X864752Y40475D01*
X864765Y40392D01*
X864782Y40310D01*
X864802Y40229D01*
X864826Y40149D01*
X864854Y40070D01*
X864885Y39993D01*
X864919Y39917D01*
X864957Y39842D01*
X864999Y39769D01*
X865043Y39699D01*
X865091Y39630D01*
X865141Y39563D01*
X865195Y39499D01*
X865251Y39438D01*
X865311Y39378D01*
X865372Y39322D01*
X865436Y39268D01*
X865503Y39218D01*
X865572Y39170D01*
X865642Y39126D01*
X865715Y39084D01*
X865790Y39046D01*
X865866Y39012D01*
X865943Y38981D01*
X866022Y38953D01*
X866102Y38929D01*
X866183Y38909D01*
X866265Y38892D01*
X866348Y38879D01*
X866431Y38869D01*
X866514Y38864D01*
X866598Y38862D01*
X870739Y41346D02*
X870739Y43829D01*
X870741Y43928D01*
X870747Y44026D01*
X870757Y44125D01*
X870770Y44222D01*
X870788Y44320D01*
X870809Y44416D01*
X870835Y44512D01*
X870864Y44606D01*
X870896Y44699D01*
X870933Y44791D01*
X870973Y44881D01*
X871017Y44970D01*
X871064Y45057D01*
X871114Y45142D01*
X871168Y45224D01*
X871225Y45305D01*
X871285Y45383D01*
X871349Y45459D01*
X871415Y45532D01*
X871484Y45603D01*
X871556Y45671D01*
X871631Y45735D01*
X871708Y45797D01*
X871787Y45856D01*
X871869Y45911D01*
X871953Y45964D01*
X872038Y46012D01*
X872126Y46058D01*
X872216Y46100D01*
X872307Y46138D01*
X872399Y46172D01*
X872493Y46203D01*
X872588Y46230D01*
X872684Y46254D01*
X872781Y46273D01*
X872878Y46289D01*
X872976Y46301D01*
X873075Y46309D01*
X873174Y46313D01*
X873272Y46313D01*
X873371Y46309D01*
X873470Y46301D01*
X873568Y46289D01*
X873665Y46273D01*
X873762Y46254D01*
X873858Y46230D01*
X873953Y46203D01*
X874047Y46172D01*
X874139Y46138D01*
X874230Y46100D01*
X874320Y46058D01*
X874408Y46012D01*
X874493Y45964D01*
X874577Y45911D01*
X874659Y45856D01*
X874738Y45797D01*
X874815Y45735D01*
X874890Y45671D01*
X874962Y45603D01*
X875031Y45532D01*
X875097Y45459D01*
X875161Y45383D01*
X875221Y45305D01*
X875278Y45224D01*
X875332Y45142D01*
X875382Y45057D01*
X875429Y44970D01*
X875473Y44881D01*
X875513Y44791D01*
X875550Y44699D01*
X875582Y44606D01*
X875611Y44512D01*
X875637Y44416D01*
X875658Y44320D01*
X875676Y44222D01*
X875689Y44125D01*
X875699Y44026D01*
X875705Y43928D01*
X875707Y43829D01*
X875706Y43829D02*
X875706Y41346D01*
X875707Y41346D02*
X875705Y41247D01*
X875699Y41149D01*
X875689Y41050D01*
X875676Y40953D01*
X875658Y40855D01*
X875637Y40759D01*
X875611Y40663D01*
X875582Y40569D01*
X875550Y40476D01*
X875513Y40384D01*
X875473Y40294D01*
X875429Y40205D01*
X875382Y40118D01*
X875332Y40033D01*
X875278Y39951D01*
X875221Y39870D01*
X875161Y39792D01*
X875097Y39716D01*
X875031Y39643D01*
X874962Y39572D01*
X874890Y39504D01*
X874815Y39440D01*
X874738Y39378D01*
X874659Y39319D01*
X874577Y39264D01*
X874493Y39211D01*
X874408Y39163D01*
X874320Y39117D01*
X874230Y39075D01*
X874139Y39037D01*
X874047Y39003D01*
X873953Y38972D01*
X873858Y38945D01*
X873762Y38921D01*
X873665Y38902D01*
X873568Y38886D01*
X873470Y38874D01*
X873371Y38866D01*
X873272Y38862D01*
X873174Y38862D01*
X873075Y38866D01*
X872976Y38874D01*
X872878Y38886D01*
X872781Y38902D01*
X872684Y38921D01*
X872588Y38945D01*
X872493Y38972D01*
X872399Y39003D01*
X872307Y39037D01*
X872216Y39075D01*
X872126Y39117D01*
X872038Y39163D01*
X871953Y39211D01*
X871869Y39264D01*
X871787Y39319D01*
X871708Y39378D01*
X871631Y39440D01*
X871556Y39504D01*
X871484Y39572D01*
X871415Y39643D01*
X871349Y39716D01*
X871285Y39792D01*
X871225Y39870D01*
X871168Y39951D01*
X871114Y40033D01*
X871064Y40118D01*
X871017Y40205D01*
X870973Y40294D01*
X870933Y40384D01*
X870896Y40476D01*
X870864Y40569D01*
X870835Y40663D01*
X870809Y40759D01*
X870788Y40855D01*
X870770Y40953D01*
X870757Y41050D01*
X870747Y41149D01*
X870741Y41247D01*
X870739Y41346D01*
X881109Y38862D02*
X881109Y46313D01*
X884835Y46313D01*
X884835Y45071D01*
X1099312Y210312D02*
X1099312Y221488D01*
X1102416Y221488D01*
X1102527Y221486D01*
X1102637Y221480D01*
X1102748Y221470D01*
X1102858Y221456D01*
X1102967Y221439D01*
X1103076Y221417D01*
X1103184Y221392D01*
X1103290Y221362D01*
X1103396Y221329D01*
X1103501Y221292D01*
X1103604Y221252D01*
X1103705Y221207D01*
X1103805Y221160D01*
X1103904Y221108D01*
X1104000Y221053D01*
X1104094Y220995D01*
X1104186Y220934D01*
X1104276Y220869D01*
X1104364Y220801D01*
X1104449Y220730D01*
X1104531Y220656D01*
X1104611Y220579D01*
X1104688Y220499D01*
X1104762Y220417D01*
X1104833Y220332D01*
X1104901Y220244D01*
X1104966Y220154D01*
X1105027Y220062D01*
X1105085Y219968D01*
X1105140Y219872D01*
X1105192Y219773D01*
X1105239Y219673D01*
X1105284Y219572D01*
X1105324Y219469D01*
X1105361Y219364D01*
X1105394Y219258D01*
X1105424Y219152D01*
X1105449Y219044D01*
X1105471Y218935D01*
X1105488Y218826D01*
X1105502Y218716D01*
X1105512Y218605D01*
X1105518Y218495D01*
X1105520Y218384D01*
X1105518Y218273D01*
X1105512Y218163D01*
X1105502Y218052D01*
X1105488Y217942D01*
X1105471Y217833D01*
X1105449Y217724D01*
X1105424Y217616D01*
X1105394Y217510D01*
X1105361Y217404D01*
X1105324Y217299D01*
X1105284Y217196D01*
X1105239Y217095D01*
X1105192Y216995D01*
X1105140Y216896D01*
X1105085Y216800D01*
X1105027Y216706D01*
X1104966Y216614D01*
X1104901Y216524D01*
X1104833Y216436D01*
X1104762Y216351D01*
X1104688Y216269D01*
X1104611Y216189D01*
X1104531Y216112D01*
X1104449Y216038D01*
X1104364Y215967D01*
X1104276Y215899D01*
X1104186Y215834D01*
X1104094Y215773D01*
X1104000Y215715D01*
X1103904Y215660D01*
X1103805Y215608D01*
X1103705Y215561D01*
X1103604Y215516D01*
X1103501Y215476D01*
X1103396Y215439D01*
X1103290Y215406D01*
X1103184Y215376D01*
X1103076Y215351D01*
X1102967Y215329D01*
X1102858Y215312D01*
X1102748Y215298D01*
X1102637Y215288D01*
X1102527Y215282D01*
X1102416Y215280D01*
X1102416Y215279D02*
X1099312Y215279D01*
X1103037Y215279D02*
X1105521Y210312D01*
X1112372Y210312D02*
X1115476Y210312D01*
X1112372Y210312D02*
X1112288Y210314D01*
X1112205Y210319D01*
X1112122Y210329D01*
X1112039Y210342D01*
X1111957Y210359D01*
X1111876Y210379D01*
X1111796Y210403D01*
X1111717Y210431D01*
X1111640Y210462D01*
X1111564Y210496D01*
X1111489Y210534D01*
X1111416Y210576D01*
X1111346Y210620D01*
X1111277Y210668D01*
X1111210Y210718D01*
X1111146Y210772D01*
X1111085Y210828D01*
X1111025Y210888D01*
X1110969Y210949D01*
X1110915Y211013D01*
X1110865Y211080D01*
X1110817Y211149D01*
X1110773Y211219D01*
X1110731Y211292D01*
X1110693Y211367D01*
X1110659Y211443D01*
X1110628Y211520D01*
X1110600Y211599D01*
X1110576Y211679D01*
X1110556Y211760D01*
X1110539Y211842D01*
X1110526Y211925D01*
X1110516Y212008D01*
X1110511Y212091D01*
X1110509Y212175D01*
X1110509Y215279D01*
X1110508Y215279D02*
X1110510Y215378D01*
X1110516Y215476D01*
X1110526Y215575D01*
X1110539Y215672D01*
X1110557Y215770D01*
X1110578Y215866D01*
X1110604Y215962D01*
X1110633Y216056D01*
X1110665Y216149D01*
X1110702Y216241D01*
X1110742Y216331D01*
X1110786Y216420D01*
X1110833Y216507D01*
X1110883Y216592D01*
X1110937Y216674D01*
X1110994Y216755D01*
X1111054Y216833D01*
X1111118Y216909D01*
X1111184Y216982D01*
X1111253Y217053D01*
X1111325Y217121D01*
X1111400Y217185D01*
X1111477Y217247D01*
X1111556Y217306D01*
X1111638Y217361D01*
X1111722Y217414D01*
X1111807Y217462D01*
X1111895Y217508D01*
X1111985Y217550D01*
X1112076Y217588D01*
X1112168Y217622D01*
X1112262Y217653D01*
X1112357Y217680D01*
X1112453Y217704D01*
X1112550Y217723D01*
X1112647Y217739D01*
X1112745Y217751D01*
X1112844Y217759D01*
X1112943Y217763D01*
X1113041Y217763D01*
X1113140Y217759D01*
X1113239Y217751D01*
X1113337Y217739D01*
X1113434Y217723D01*
X1113531Y217704D01*
X1113627Y217680D01*
X1113722Y217653D01*
X1113816Y217622D01*
X1113908Y217588D01*
X1113999Y217550D01*
X1114089Y217508D01*
X1114177Y217462D01*
X1114262Y217414D01*
X1114346Y217361D01*
X1114428Y217306D01*
X1114507Y217247D01*
X1114584Y217185D01*
X1114659Y217121D01*
X1114731Y217053D01*
X1114800Y216982D01*
X1114866Y216909D01*
X1114930Y216833D01*
X1114990Y216755D01*
X1115047Y216674D01*
X1115101Y216592D01*
X1115151Y216507D01*
X1115198Y216420D01*
X1115242Y216331D01*
X1115282Y216241D01*
X1115319Y216149D01*
X1115351Y216056D01*
X1115380Y215962D01*
X1115406Y215866D01*
X1115427Y215770D01*
X1115445Y215672D01*
X1115458Y215575D01*
X1115468Y215476D01*
X1115474Y215378D01*
X1115476Y215279D01*
X1115476Y214037D01*
X1110509Y214037D01*
X1120034Y217763D02*
X1122517Y210312D01*
X1125001Y217763D01*
X1129375Y217763D02*
X1129375Y210312D01*
X1129065Y220867D02*
X1129065Y221488D01*
X1129686Y221488D01*
X1129686Y220867D01*
X1129065Y220867D01*
X1135062Y214658D02*
X1138167Y213416D01*
X1135062Y214658D02*
X1134990Y214689D01*
X1134920Y214723D01*
X1134851Y214761D01*
X1134784Y214802D01*
X1134719Y214846D01*
X1134657Y214894D01*
X1134597Y214944D01*
X1134539Y214997D01*
X1134484Y215053D01*
X1134432Y215112D01*
X1134383Y215173D01*
X1134337Y215236D01*
X1134294Y215301D01*
X1134254Y215369D01*
X1134217Y215438D01*
X1134184Y215509D01*
X1134155Y215582D01*
X1134129Y215656D01*
X1134106Y215731D01*
X1134088Y215807D01*
X1134073Y215884D01*
X1134061Y215962D01*
X1134054Y216040D01*
X1134050Y216118D01*
X1134051Y216196D01*
X1134055Y216275D01*
X1134062Y216353D01*
X1134074Y216430D01*
X1134089Y216507D01*
X1134109Y216583D01*
X1134131Y216658D01*
X1134158Y216732D01*
X1134188Y216804D01*
X1134221Y216875D01*
X1134258Y216944D01*
X1134298Y217012D01*
X1134342Y217077D01*
X1134388Y217140D01*
X1134438Y217201D01*
X1134490Y217259D01*
X1134545Y217315D01*
X1134603Y217368D01*
X1134664Y217418D01*
X1134726Y217465D01*
X1134791Y217508D01*
X1134858Y217549D01*
X1134927Y217587D01*
X1134998Y217620D01*
X1135070Y217651D01*
X1135144Y217678D01*
X1135218Y217701D01*
X1135294Y217721D01*
X1135371Y217737D01*
X1135448Y217749D01*
X1135526Y217757D01*
X1135605Y217762D01*
X1135683Y217763D01*
X1135683Y217762D02*
X1135852Y217758D01*
X1136022Y217749D01*
X1136191Y217737D01*
X1136359Y217720D01*
X1136528Y217699D01*
X1136695Y217675D01*
X1136862Y217646D01*
X1137029Y217613D01*
X1137194Y217576D01*
X1137359Y217535D01*
X1137522Y217491D01*
X1137685Y217442D01*
X1137846Y217390D01*
X1138006Y217333D01*
X1138164Y217273D01*
X1138321Y217209D01*
X1138477Y217141D01*
X1138167Y213417D02*
X1138239Y213386D01*
X1138309Y213352D01*
X1138378Y213314D01*
X1138445Y213273D01*
X1138510Y213229D01*
X1138572Y213181D01*
X1138632Y213131D01*
X1138690Y213078D01*
X1138745Y213022D01*
X1138797Y212963D01*
X1138846Y212902D01*
X1138892Y212839D01*
X1138935Y212774D01*
X1138975Y212706D01*
X1139012Y212637D01*
X1139045Y212566D01*
X1139074Y212493D01*
X1139100Y212419D01*
X1139123Y212344D01*
X1139141Y212268D01*
X1139156Y212191D01*
X1139168Y212113D01*
X1139175Y212035D01*
X1139179Y211957D01*
X1139178Y211879D01*
X1139174Y211800D01*
X1139167Y211722D01*
X1139155Y211645D01*
X1139140Y211568D01*
X1139120Y211492D01*
X1139098Y211417D01*
X1139071Y211343D01*
X1139041Y211271D01*
X1139008Y211200D01*
X1138971Y211131D01*
X1138931Y211063D01*
X1138887Y210998D01*
X1138841Y210935D01*
X1138791Y210874D01*
X1138739Y210816D01*
X1138684Y210760D01*
X1138626Y210707D01*
X1138565Y210657D01*
X1138503Y210610D01*
X1138438Y210567D01*
X1138371Y210526D01*
X1138302Y210488D01*
X1138231Y210455D01*
X1138159Y210424D01*
X1138085Y210397D01*
X1138011Y210374D01*
X1137935Y210354D01*
X1137858Y210338D01*
X1137781Y210326D01*
X1137703Y210318D01*
X1137624Y210313D01*
X1137546Y210312D01*
X1137545Y210312D02*
X1137296Y210319D01*
X1137048Y210331D01*
X1136799Y210349D01*
X1136551Y210373D01*
X1136304Y210403D01*
X1136058Y210439D01*
X1135812Y210481D01*
X1135568Y210528D01*
X1135324Y210582D01*
X1135082Y210640D01*
X1134842Y210705D01*
X1134603Y210775D01*
X1134366Y210851D01*
X1134131Y210933D01*
X1143853Y210312D02*
X1143853Y217763D01*
X1143543Y220867D02*
X1143543Y221488D01*
X1144164Y221488D01*
X1144164Y220867D01*
X1143543Y220867D01*
X1148609Y215279D02*
X1148609Y212796D01*
X1148608Y215279D02*
X1148610Y215378D01*
X1148616Y215476D01*
X1148626Y215575D01*
X1148639Y215672D01*
X1148657Y215770D01*
X1148678Y215866D01*
X1148704Y215962D01*
X1148733Y216056D01*
X1148765Y216149D01*
X1148802Y216241D01*
X1148842Y216331D01*
X1148886Y216420D01*
X1148933Y216507D01*
X1148983Y216592D01*
X1149037Y216674D01*
X1149094Y216755D01*
X1149154Y216833D01*
X1149218Y216909D01*
X1149284Y216982D01*
X1149353Y217053D01*
X1149425Y217121D01*
X1149500Y217185D01*
X1149577Y217247D01*
X1149656Y217306D01*
X1149738Y217361D01*
X1149822Y217414D01*
X1149907Y217462D01*
X1149995Y217508D01*
X1150085Y217550D01*
X1150176Y217588D01*
X1150268Y217622D01*
X1150362Y217653D01*
X1150457Y217680D01*
X1150553Y217704D01*
X1150650Y217723D01*
X1150747Y217739D01*
X1150845Y217751D01*
X1150944Y217759D01*
X1151043Y217763D01*
X1151141Y217763D01*
X1151240Y217759D01*
X1151339Y217751D01*
X1151437Y217739D01*
X1151534Y217723D01*
X1151631Y217704D01*
X1151727Y217680D01*
X1151822Y217653D01*
X1151916Y217622D01*
X1152008Y217588D01*
X1152099Y217550D01*
X1152189Y217508D01*
X1152277Y217462D01*
X1152362Y217414D01*
X1152446Y217361D01*
X1152528Y217306D01*
X1152607Y217247D01*
X1152684Y217185D01*
X1152759Y217121D01*
X1152831Y217053D01*
X1152900Y216982D01*
X1152966Y216909D01*
X1153030Y216833D01*
X1153090Y216755D01*
X1153147Y216674D01*
X1153201Y216592D01*
X1153251Y216507D01*
X1153298Y216420D01*
X1153342Y216331D01*
X1153382Y216241D01*
X1153419Y216149D01*
X1153451Y216056D01*
X1153480Y215962D01*
X1153506Y215866D01*
X1153527Y215770D01*
X1153545Y215672D01*
X1153558Y215575D01*
X1153568Y215476D01*
X1153574Y215378D01*
X1153576Y215279D01*
X1153576Y212796D01*
X1153574Y212697D01*
X1153568Y212599D01*
X1153558Y212500D01*
X1153545Y212403D01*
X1153527Y212305D01*
X1153506Y212209D01*
X1153480Y212113D01*
X1153451Y212019D01*
X1153419Y211926D01*
X1153382Y211834D01*
X1153342Y211744D01*
X1153298Y211655D01*
X1153251Y211568D01*
X1153201Y211483D01*
X1153147Y211401D01*
X1153090Y211320D01*
X1153030Y211242D01*
X1152966Y211166D01*
X1152900Y211093D01*
X1152831Y211022D01*
X1152759Y210954D01*
X1152684Y210890D01*
X1152607Y210828D01*
X1152528Y210769D01*
X1152446Y210714D01*
X1152362Y210661D01*
X1152277Y210613D01*
X1152189Y210567D01*
X1152099Y210525D01*
X1152008Y210487D01*
X1151916Y210453D01*
X1151822Y210422D01*
X1151727Y210395D01*
X1151631Y210371D01*
X1151534Y210352D01*
X1151437Y210336D01*
X1151339Y210324D01*
X1151240Y210316D01*
X1151141Y210312D01*
X1151043Y210312D01*
X1150944Y210316D01*
X1150845Y210324D01*
X1150747Y210336D01*
X1150650Y210352D01*
X1150553Y210371D01*
X1150457Y210395D01*
X1150362Y210422D01*
X1150268Y210453D01*
X1150176Y210487D01*
X1150085Y210525D01*
X1149995Y210567D01*
X1149907Y210613D01*
X1149822Y210661D01*
X1149738Y210714D01*
X1149656Y210769D01*
X1149577Y210828D01*
X1149500Y210890D01*
X1149425Y210954D01*
X1149353Y211022D01*
X1149284Y211093D01*
X1149218Y211166D01*
X1149154Y211242D01*
X1149094Y211320D01*
X1149037Y211401D01*
X1148983Y211483D01*
X1148933Y211568D01*
X1148886Y211655D01*
X1148842Y211744D01*
X1148802Y211834D01*
X1148765Y211926D01*
X1148733Y212019D01*
X1148704Y212113D01*
X1148678Y212209D01*
X1148657Y212305D01*
X1148639Y212403D01*
X1148626Y212500D01*
X1148616Y212599D01*
X1148610Y212697D01*
X1148608Y212796D01*
X1158896Y210312D02*
X1158896Y217763D01*
X1162000Y217763D01*
X1162084Y217761D01*
X1162167Y217756D01*
X1162250Y217746D01*
X1162333Y217733D01*
X1162415Y217716D01*
X1162496Y217696D01*
X1162576Y217672D01*
X1162655Y217644D01*
X1162732Y217613D01*
X1162808Y217579D01*
X1162883Y217541D01*
X1162956Y217499D01*
X1163026Y217455D01*
X1163095Y217407D01*
X1163162Y217357D01*
X1163226Y217303D01*
X1163287Y217247D01*
X1163347Y217187D01*
X1163403Y217126D01*
X1163457Y217062D01*
X1163507Y216995D01*
X1163555Y216926D01*
X1163599Y216856D01*
X1163641Y216783D01*
X1163679Y216708D01*
X1163713Y216632D01*
X1163744Y216555D01*
X1163772Y216476D01*
X1163796Y216396D01*
X1163816Y216315D01*
X1163833Y216233D01*
X1163846Y216150D01*
X1163856Y216067D01*
X1163861Y215984D01*
X1163863Y215900D01*
X1163863Y210312D01*
X1169070Y211243D02*
X1169070Y211864D01*
X1169691Y211864D01*
X1169691Y211243D01*
X1169070Y211243D01*
X1169070Y216210D02*
X1169070Y216831D01*
X1169691Y216831D01*
X1169691Y216210D01*
X1169070Y216210D01*
X1180754Y219004D02*
X1183858Y221488D01*
X1183858Y210312D01*
X1180754Y210312D02*
X1186963Y210312D01*
X1191563Y210312D02*
X1195288Y221488D01*
X1199014Y210312D01*
X1198082Y213106D02*
X1192494Y213106D01*
X1198287Y311912D02*
X1198384Y311914D01*
X1198482Y311920D01*
X1198579Y311929D01*
X1198676Y311943D01*
X1198772Y311960D01*
X1198867Y311981D01*
X1198961Y312005D01*
X1199055Y312034D01*
X1199147Y312066D01*
X1199238Y312101D01*
X1199327Y312140D01*
X1199415Y312183D01*
X1199501Y312229D01*
X1199585Y312278D01*
X1199667Y312331D01*
X1199747Y312386D01*
X1199825Y312445D01*
X1199900Y312507D01*
X1199973Y312572D01*
X1200043Y312640D01*
X1200111Y312710D01*
X1200176Y312783D01*
X1200238Y312858D01*
X1200297Y312936D01*
X1200352Y313016D01*
X1200405Y313098D01*
X1200454Y313182D01*
X1200500Y313268D01*
X1200543Y313356D01*
X1200582Y313445D01*
X1200617Y313536D01*
X1200649Y313628D01*
X1200678Y313722D01*
X1200702Y313816D01*
X1200723Y313911D01*
X1200740Y314007D01*
X1200754Y314104D01*
X1200763Y314201D01*
X1200769Y314298D01*
X1200771Y314396D01*
X1198287Y311912D02*
X1198144Y311914D01*
X1198001Y311920D01*
X1197859Y311929D01*
X1197717Y311943D01*
X1197575Y311961D01*
X1197434Y311982D01*
X1197293Y312007D01*
X1197153Y312036D01*
X1197014Y312069D01*
X1196876Y312105D01*
X1196739Y312146D01*
X1196603Y312190D01*
X1196468Y312237D01*
X1196335Y312289D01*
X1196203Y312344D01*
X1196073Y312402D01*
X1195944Y312464D01*
X1195817Y312530D01*
X1195692Y312599D01*
X1195569Y312671D01*
X1195448Y312747D01*
X1195329Y312825D01*
X1195212Y312908D01*
X1195097Y312993D01*
X1194985Y313081D01*
X1194875Y313173D01*
X1194768Y313267D01*
X1194663Y313364D01*
X1194561Y313464D01*
X1194872Y320604D02*
X1194874Y320702D01*
X1194880Y320799D01*
X1194889Y320896D01*
X1194903Y320993D01*
X1194920Y321089D01*
X1194941Y321184D01*
X1194965Y321278D01*
X1194994Y321372D01*
X1195026Y321464D01*
X1195061Y321555D01*
X1195100Y321644D01*
X1195143Y321732D01*
X1195189Y321818D01*
X1195238Y321902D01*
X1195291Y321984D01*
X1195346Y322064D01*
X1195405Y322142D01*
X1195467Y322217D01*
X1195532Y322290D01*
X1195600Y322360D01*
X1195670Y322428D01*
X1195743Y322493D01*
X1195818Y322555D01*
X1195896Y322614D01*
X1195976Y322669D01*
X1196058Y322722D01*
X1196142Y322771D01*
X1196228Y322817D01*
X1196316Y322860D01*
X1196405Y322899D01*
X1196496Y322934D01*
X1196588Y322966D01*
X1196682Y322995D01*
X1196776Y323019D01*
X1196871Y323040D01*
X1196967Y323057D01*
X1197064Y323071D01*
X1197161Y323080D01*
X1197258Y323086D01*
X1197356Y323088D01*
X1197486Y323086D01*
X1197616Y323081D01*
X1197746Y323072D01*
X1197876Y323059D01*
X1198005Y323043D01*
X1198134Y323023D01*
X1198262Y322999D01*
X1198390Y322972D01*
X1198516Y322941D01*
X1198642Y322907D01*
X1198767Y322869D01*
X1198890Y322828D01*
X1199013Y322783D01*
X1199134Y322735D01*
X1199254Y322684D01*
X1199372Y322629D01*
X1199488Y322571D01*
X1199603Y322510D01*
X1199717Y322445D01*
X1199828Y322378D01*
X1199937Y322307D01*
X1200045Y322233D01*
X1200150Y322157D01*
X1196115Y318431D02*
X1196032Y318482D01*
X1195951Y318536D01*
X1195873Y318593D01*
X1195797Y318653D01*
X1195723Y318716D01*
X1195652Y318782D01*
X1195583Y318850D01*
X1195517Y318921D01*
X1195453Y318994D01*
X1195393Y319070D01*
X1195336Y319148D01*
X1195281Y319229D01*
X1195230Y319311D01*
X1195182Y319395D01*
X1195137Y319481D01*
X1195095Y319569D01*
X1195057Y319658D01*
X1195023Y319748D01*
X1194991Y319840D01*
X1194964Y319933D01*
X1194940Y320027D01*
X1194919Y320122D01*
X1194903Y320218D01*
X1194890Y320314D01*
X1194880Y320410D01*
X1194875Y320507D01*
X1194873Y320604D01*
X1199528Y316569D02*
X1199611Y316518D01*
X1199692Y316464D01*
X1199770Y316407D01*
X1199846Y316347D01*
X1199920Y316284D01*
X1199991Y316218D01*
X1200060Y316150D01*
X1200126Y316079D01*
X1200190Y316006D01*
X1200250Y315930D01*
X1200307Y315852D01*
X1200362Y315771D01*
X1200413Y315689D01*
X1200461Y315605D01*
X1200506Y315519D01*
X1200548Y315431D01*
X1200586Y315342D01*
X1200620Y315252D01*
X1200652Y315160D01*
X1200679Y315067D01*
X1200703Y314973D01*
X1200724Y314878D01*
X1200740Y314782D01*
X1200753Y314686D01*
X1200763Y314590D01*
X1200768Y314493D01*
X1200770Y314396D01*
X1199529Y316569D02*
X1196114Y318431D01*
X1206020Y323088D02*
X1206020Y311912D01*
X1210987Y311912D01*
X419862Y100838D02*
X419862Y89662D01*
X419862Y100838D02*
X422966Y100838D01*
X423077Y100836D01*
X423187Y100830D01*
X423298Y100820D01*
X423408Y100806D01*
X423517Y100789D01*
X423626Y100767D01*
X423734Y100742D01*
X423840Y100712D01*
X423946Y100679D01*
X424051Y100642D01*
X424154Y100602D01*
X424255Y100557D01*
X424355Y100510D01*
X424454Y100458D01*
X424550Y100403D01*
X424644Y100345D01*
X424736Y100284D01*
X424826Y100219D01*
X424914Y100151D01*
X424999Y100080D01*
X425081Y100006D01*
X425161Y99929D01*
X425238Y99849D01*
X425312Y99767D01*
X425383Y99682D01*
X425451Y99594D01*
X425516Y99504D01*
X425577Y99412D01*
X425635Y99318D01*
X425690Y99222D01*
X425742Y99123D01*
X425789Y99023D01*
X425834Y98922D01*
X425874Y98819D01*
X425911Y98714D01*
X425944Y98608D01*
X425974Y98502D01*
X425999Y98394D01*
X426021Y98285D01*
X426038Y98176D01*
X426052Y98066D01*
X426062Y97955D01*
X426068Y97845D01*
X426070Y97734D01*
X426071Y97734D02*
X426071Y92766D01*
X426070Y92766D02*
X426068Y92655D01*
X426062Y92545D01*
X426052Y92434D01*
X426038Y92324D01*
X426021Y92215D01*
X425999Y92106D01*
X425974Y91998D01*
X425944Y91892D01*
X425911Y91786D01*
X425874Y91681D01*
X425834Y91578D01*
X425789Y91477D01*
X425742Y91377D01*
X425690Y91278D01*
X425635Y91182D01*
X425577Y91088D01*
X425516Y90996D01*
X425451Y90906D01*
X425383Y90818D01*
X425312Y90733D01*
X425238Y90651D01*
X425161Y90571D01*
X425081Y90494D01*
X424999Y90420D01*
X424914Y90349D01*
X424826Y90281D01*
X424736Y90216D01*
X424644Y90155D01*
X424550Y90097D01*
X424454Y90042D01*
X424355Y89990D01*
X424255Y89943D01*
X424154Y89898D01*
X424051Y89858D01*
X423946Y89821D01*
X423840Y89788D01*
X423734Y89758D01*
X423626Y89733D01*
X423517Y89711D01*
X423408Y89694D01*
X423298Y89680D01*
X423187Y89670D01*
X423077Y89664D01*
X422966Y89662D01*
X419862Y89662D01*
X431673Y89662D02*
X434777Y89662D01*
X434888Y89664D01*
X434998Y89670D01*
X435109Y89680D01*
X435219Y89694D01*
X435328Y89711D01*
X435437Y89733D01*
X435545Y89758D01*
X435651Y89788D01*
X435757Y89821D01*
X435862Y89858D01*
X435965Y89898D01*
X436066Y89943D01*
X436166Y89990D01*
X436265Y90042D01*
X436361Y90097D01*
X436455Y90155D01*
X436547Y90216D01*
X436637Y90281D01*
X436725Y90349D01*
X436810Y90420D01*
X436892Y90494D01*
X436972Y90571D01*
X437049Y90651D01*
X437123Y90733D01*
X437194Y90818D01*
X437262Y90906D01*
X437327Y90996D01*
X437388Y91088D01*
X437446Y91182D01*
X437501Y91278D01*
X437553Y91377D01*
X437600Y91477D01*
X437645Y91578D01*
X437685Y91681D01*
X437722Y91786D01*
X437755Y91892D01*
X437785Y91998D01*
X437810Y92106D01*
X437832Y92215D01*
X437849Y92324D01*
X437863Y92434D01*
X437873Y92545D01*
X437879Y92655D01*
X437881Y92766D01*
X437879Y92877D01*
X437873Y92987D01*
X437863Y93098D01*
X437849Y93208D01*
X437832Y93317D01*
X437810Y93426D01*
X437785Y93534D01*
X437755Y93640D01*
X437722Y93746D01*
X437685Y93851D01*
X437645Y93954D01*
X437600Y94055D01*
X437553Y94155D01*
X437501Y94254D01*
X437446Y94350D01*
X437388Y94444D01*
X437327Y94536D01*
X437262Y94626D01*
X437194Y94714D01*
X437123Y94799D01*
X437049Y94881D01*
X436972Y94961D01*
X436892Y95038D01*
X436810Y95112D01*
X436725Y95183D01*
X436637Y95251D01*
X436547Y95316D01*
X436455Y95377D01*
X436361Y95435D01*
X436265Y95490D01*
X436166Y95542D01*
X436066Y95589D01*
X435965Y95634D01*
X435862Y95674D01*
X435757Y95711D01*
X435651Y95744D01*
X435545Y95774D01*
X435437Y95799D01*
X435328Y95821D01*
X435219Y95838D01*
X435109Y95852D01*
X434998Y95862D01*
X434888Y95868D01*
X434777Y95870D01*
X435398Y100838D02*
X431673Y100838D01*
X435398Y100838D02*
X435497Y100836D01*
X435595Y100830D01*
X435694Y100820D01*
X435791Y100807D01*
X435889Y100789D01*
X435985Y100768D01*
X436081Y100742D01*
X436175Y100713D01*
X436268Y100681D01*
X436360Y100644D01*
X436450Y100604D01*
X436539Y100560D01*
X436626Y100513D01*
X436711Y100463D01*
X436793Y100409D01*
X436874Y100352D01*
X436952Y100292D01*
X437028Y100228D01*
X437101Y100162D01*
X437172Y100093D01*
X437240Y100021D01*
X437304Y99946D01*
X437366Y99869D01*
X437425Y99790D01*
X437480Y99708D01*
X437533Y99624D01*
X437581Y99539D01*
X437627Y99451D01*
X437669Y99361D01*
X437707Y99270D01*
X437741Y99178D01*
X437772Y99084D01*
X437799Y98989D01*
X437823Y98893D01*
X437842Y98796D01*
X437858Y98699D01*
X437870Y98601D01*
X437878Y98502D01*
X437882Y98403D01*
X437882Y98305D01*
X437878Y98206D01*
X437870Y98107D01*
X437858Y98009D01*
X437842Y97912D01*
X437823Y97815D01*
X437799Y97719D01*
X437772Y97624D01*
X437741Y97530D01*
X437707Y97438D01*
X437669Y97347D01*
X437627Y97257D01*
X437581Y97169D01*
X437533Y97084D01*
X437480Y97000D01*
X437425Y96918D01*
X437366Y96839D01*
X437304Y96762D01*
X437240Y96687D01*
X437172Y96615D01*
X437101Y96546D01*
X437028Y96480D01*
X436952Y96416D01*
X436874Y96356D01*
X436793Y96299D01*
X436711Y96245D01*
X436626Y96195D01*
X436539Y96148D01*
X436450Y96104D01*
X436360Y96064D01*
X436268Y96027D01*
X436175Y95995D01*
X436081Y95966D01*
X435985Y95940D01*
X435889Y95919D01*
X435791Y95901D01*
X435694Y95888D01*
X435595Y95878D01*
X435497Y95872D01*
X435398Y95870D01*
X435398Y95871D02*
X432915Y95871D01*
X553212Y100838D02*
X553212Y89662D01*
X553212Y100838D02*
X556316Y100838D01*
X556427Y100836D01*
X556537Y100830D01*
X556648Y100820D01*
X556758Y100806D01*
X556867Y100789D01*
X556976Y100767D01*
X557084Y100742D01*
X557190Y100712D01*
X557296Y100679D01*
X557401Y100642D01*
X557504Y100602D01*
X557605Y100557D01*
X557705Y100510D01*
X557804Y100458D01*
X557900Y100403D01*
X557994Y100345D01*
X558086Y100284D01*
X558176Y100219D01*
X558264Y100151D01*
X558349Y100080D01*
X558431Y100006D01*
X558511Y99929D01*
X558588Y99849D01*
X558662Y99767D01*
X558733Y99682D01*
X558801Y99594D01*
X558866Y99504D01*
X558927Y99412D01*
X558985Y99318D01*
X559040Y99222D01*
X559092Y99123D01*
X559139Y99023D01*
X559184Y98922D01*
X559224Y98819D01*
X559261Y98714D01*
X559294Y98608D01*
X559324Y98502D01*
X559349Y98394D01*
X559371Y98285D01*
X559388Y98176D01*
X559402Y98066D01*
X559412Y97955D01*
X559418Y97845D01*
X559420Y97734D01*
X559421Y97734D02*
X559421Y92766D01*
X559420Y92766D02*
X559418Y92655D01*
X559412Y92545D01*
X559402Y92434D01*
X559388Y92324D01*
X559371Y92215D01*
X559349Y92106D01*
X559324Y91998D01*
X559294Y91892D01*
X559261Y91786D01*
X559224Y91681D01*
X559184Y91578D01*
X559139Y91477D01*
X559092Y91377D01*
X559040Y91278D01*
X558985Y91182D01*
X558927Y91088D01*
X558866Y90996D01*
X558801Y90906D01*
X558733Y90818D01*
X558662Y90733D01*
X558588Y90651D01*
X558511Y90571D01*
X558431Y90494D01*
X558349Y90420D01*
X558264Y90349D01*
X558176Y90281D01*
X558086Y90216D01*
X557994Y90155D01*
X557900Y90097D01*
X557804Y90042D01*
X557705Y89990D01*
X557605Y89943D01*
X557504Y89898D01*
X557401Y89858D01*
X557296Y89821D01*
X557190Y89788D01*
X557084Y89758D01*
X556976Y89733D01*
X556867Y89711D01*
X556758Y89694D01*
X556648Y89680D01*
X556537Y89670D01*
X556427Y89664D01*
X556316Y89662D01*
X553212Y89662D01*
X568438Y100838D02*
X568542Y100836D01*
X568647Y100830D01*
X568751Y100820D01*
X568854Y100807D01*
X568957Y100789D01*
X569060Y100768D01*
X569161Y100743D01*
X569262Y100714D01*
X569361Y100681D01*
X569459Y100645D01*
X569555Y100605D01*
X569650Y100561D01*
X569744Y100514D01*
X569835Y100464D01*
X569924Y100410D01*
X570012Y100353D01*
X570097Y100292D01*
X570180Y100228D01*
X570260Y100162D01*
X570338Y100092D01*
X570414Y100020D01*
X570486Y99944D01*
X570556Y99866D01*
X570622Y99786D01*
X570686Y99703D01*
X570747Y99618D01*
X570804Y99530D01*
X570858Y99441D01*
X570908Y99350D01*
X570955Y99256D01*
X570999Y99161D01*
X571039Y99065D01*
X571075Y98967D01*
X571108Y98868D01*
X571137Y98767D01*
X571162Y98666D01*
X571183Y98563D01*
X571201Y98460D01*
X571214Y98357D01*
X571224Y98253D01*
X571230Y98148D01*
X571232Y98044D01*
X568438Y100839D02*
X568319Y100837D01*
X568201Y100831D01*
X568082Y100821D01*
X567964Y100808D01*
X567847Y100790D01*
X567730Y100768D01*
X567614Y100743D01*
X567499Y100714D01*
X567384Y100681D01*
X567271Y100644D01*
X567160Y100604D01*
X567049Y100560D01*
X566941Y100512D01*
X566834Y100461D01*
X566728Y100406D01*
X566625Y100347D01*
X566523Y100286D01*
X566424Y100221D01*
X566326Y100152D01*
X566232Y100081D01*
X566139Y100006D01*
X566049Y99929D01*
X565962Y99848D01*
X565877Y99765D01*
X565795Y99679D01*
X565716Y99590D01*
X565640Y99499D01*
X565567Y99405D01*
X565498Y99309D01*
X565431Y99210D01*
X565368Y99110D01*
X565308Y99007D01*
X565251Y98903D01*
X565199Y98796D01*
X565149Y98688D01*
X565103Y98579D01*
X565061Y98467D01*
X565023Y98355D01*
X570301Y95871D02*
X570376Y95945D01*
X570448Y96022D01*
X570518Y96101D01*
X570585Y96183D01*
X570649Y96267D01*
X570710Y96353D01*
X570768Y96441D01*
X570823Y96532D01*
X570875Y96624D01*
X570923Y96718D01*
X570968Y96813D01*
X571010Y96911D01*
X571048Y97009D01*
X571083Y97109D01*
X571114Y97210D01*
X571141Y97312D01*
X571165Y97415D01*
X571186Y97518D01*
X571202Y97623D01*
X571215Y97728D01*
X571225Y97833D01*
X571230Y97938D01*
X571232Y98044D01*
X570301Y95871D02*
X565023Y89662D01*
X571232Y89662D01*
X686562Y94488D02*
X686562Y83312D01*
X686562Y94488D02*
X689666Y94488D01*
X689777Y94486D01*
X689887Y94480D01*
X689998Y94470D01*
X690108Y94456D01*
X690217Y94439D01*
X690326Y94417D01*
X690434Y94392D01*
X690540Y94362D01*
X690646Y94329D01*
X690751Y94292D01*
X690854Y94252D01*
X690955Y94207D01*
X691055Y94160D01*
X691154Y94108D01*
X691250Y94053D01*
X691344Y93995D01*
X691436Y93934D01*
X691526Y93869D01*
X691614Y93801D01*
X691699Y93730D01*
X691781Y93656D01*
X691861Y93579D01*
X691938Y93499D01*
X692012Y93417D01*
X692083Y93332D01*
X692151Y93244D01*
X692216Y93154D01*
X692277Y93062D01*
X692335Y92968D01*
X692390Y92872D01*
X692442Y92773D01*
X692489Y92673D01*
X692534Y92572D01*
X692574Y92469D01*
X692611Y92364D01*
X692644Y92258D01*
X692674Y92152D01*
X692699Y92044D01*
X692721Y91935D01*
X692738Y91826D01*
X692752Y91716D01*
X692762Y91605D01*
X692768Y91495D01*
X692770Y91384D01*
X692771Y91384D02*
X692771Y86416D01*
X692770Y86416D02*
X692768Y86305D01*
X692762Y86195D01*
X692752Y86084D01*
X692738Y85974D01*
X692721Y85865D01*
X692699Y85756D01*
X692674Y85648D01*
X692644Y85542D01*
X692611Y85436D01*
X692574Y85331D01*
X692534Y85228D01*
X692489Y85127D01*
X692442Y85027D01*
X692390Y84928D01*
X692335Y84832D01*
X692277Y84738D01*
X692216Y84646D01*
X692151Y84556D01*
X692083Y84468D01*
X692012Y84383D01*
X691938Y84301D01*
X691861Y84221D01*
X691781Y84144D01*
X691699Y84070D01*
X691614Y83999D01*
X691526Y83931D01*
X691436Y83866D01*
X691344Y83805D01*
X691250Y83747D01*
X691154Y83692D01*
X691055Y83640D01*
X690955Y83593D01*
X690854Y83548D01*
X690751Y83508D01*
X690646Y83471D01*
X690540Y83438D01*
X690434Y83408D01*
X690326Y83383D01*
X690217Y83361D01*
X690108Y83344D01*
X689998Y83330D01*
X689887Y83320D01*
X689777Y83314D01*
X689666Y83312D01*
X686562Y83312D01*
X698373Y92004D02*
X701477Y94488D01*
X701477Y83312D01*
X698373Y83312D02*
X704582Y83312D01*
X96012Y184912D02*
X96012Y196088D01*
X99116Y196088D01*
X99227Y196086D01*
X99337Y196080D01*
X99448Y196070D01*
X99558Y196056D01*
X99667Y196039D01*
X99776Y196017D01*
X99884Y195992D01*
X99990Y195962D01*
X100096Y195929D01*
X100201Y195892D01*
X100304Y195852D01*
X100405Y195807D01*
X100505Y195760D01*
X100604Y195708D01*
X100700Y195653D01*
X100794Y195595D01*
X100886Y195534D01*
X100976Y195469D01*
X101064Y195401D01*
X101149Y195330D01*
X101231Y195256D01*
X101311Y195179D01*
X101388Y195099D01*
X101462Y195017D01*
X101533Y194932D01*
X101601Y194844D01*
X101666Y194754D01*
X101727Y194662D01*
X101785Y194568D01*
X101840Y194472D01*
X101892Y194373D01*
X101939Y194273D01*
X101984Y194172D01*
X102024Y194069D01*
X102061Y193964D01*
X102094Y193858D01*
X102124Y193752D01*
X102149Y193644D01*
X102171Y193535D01*
X102188Y193426D01*
X102202Y193316D01*
X102212Y193205D01*
X102218Y193095D01*
X102220Y192984D01*
X102218Y192873D01*
X102212Y192763D01*
X102202Y192652D01*
X102188Y192542D01*
X102171Y192433D01*
X102149Y192324D01*
X102124Y192216D01*
X102094Y192110D01*
X102061Y192004D01*
X102024Y191899D01*
X101984Y191796D01*
X101939Y191695D01*
X101892Y191595D01*
X101840Y191496D01*
X101785Y191400D01*
X101727Y191306D01*
X101666Y191214D01*
X101601Y191124D01*
X101533Y191036D01*
X101462Y190951D01*
X101388Y190869D01*
X101311Y190789D01*
X101231Y190712D01*
X101149Y190638D01*
X101064Y190567D01*
X100976Y190499D01*
X100886Y190434D01*
X100794Y190373D01*
X100700Y190315D01*
X100604Y190260D01*
X100505Y190208D01*
X100405Y190161D01*
X100304Y190116D01*
X100201Y190076D01*
X100096Y190039D01*
X99990Y190006D01*
X99884Y189976D01*
X99776Y189951D01*
X99667Y189929D01*
X99558Y189912D01*
X99448Y189898D01*
X99337Y189888D01*
X99227Y189882D01*
X99116Y189880D01*
X99116Y189879D02*
X96012Y189879D01*
X99737Y189879D02*
X102221Y184912D01*
X107350Y193604D02*
X110454Y196088D01*
X110454Y184912D01*
X107350Y184912D02*
X113559Y184912D01*
X140462Y18288D02*
X140462Y7112D01*
X140462Y18288D02*
X143566Y18288D01*
X143677Y18286D01*
X143787Y18280D01*
X143898Y18270D01*
X144008Y18256D01*
X144117Y18239D01*
X144226Y18217D01*
X144334Y18192D01*
X144440Y18162D01*
X144546Y18129D01*
X144651Y18092D01*
X144754Y18052D01*
X144855Y18007D01*
X144955Y17960D01*
X145054Y17908D01*
X145150Y17853D01*
X145244Y17795D01*
X145336Y17734D01*
X145426Y17669D01*
X145514Y17601D01*
X145599Y17530D01*
X145681Y17456D01*
X145761Y17379D01*
X145838Y17299D01*
X145912Y17217D01*
X145983Y17132D01*
X146051Y17044D01*
X146116Y16954D01*
X146177Y16862D01*
X146235Y16768D01*
X146290Y16672D01*
X146342Y16573D01*
X146389Y16473D01*
X146434Y16372D01*
X146474Y16269D01*
X146511Y16164D01*
X146544Y16058D01*
X146574Y15952D01*
X146599Y15844D01*
X146621Y15735D01*
X146638Y15626D01*
X146652Y15516D01*
X146662Y15405D01*
X146668Y15295D01*
X146670Y15184D01*
X146668Y15073D01*
X146662Y14963D01*
X146652Y14852D01*
X146638Y14742D01*
X146621Y14633D01*
X146599Y14524D01*
X146574Y14416D01*
X146544Y14310D01*
X146511Y14204D01*
X146474Y14099D01*
X146434Y13996D01*
X146389Y13895D01*
X146342Y13795D01*
X146290Y13696D01*
X146235Y13600D01*
X146177Y13506D01*
X146116Y13414D01*
X146051Y13324D01*
X145983Y13236D01*
X145912Y13151D01*
X145838Y13069D01*
X145761Y12989D01*
X145681Y12912D01*
X145599Y12838D01*
X145514Y12767D01*
X145426Y12699D01*
X145336Y12634D01*
X145244Y12573D01*
X145150Y12515D01*
X145054Y12460D01*
X144955Y12408D01*
X144855Y12361D01*
X144754Y12316D01*
X144651Y12276D01*
X144546Y12239D01*
X144440Y12206D01*
X144334Y12176D01*
X144226Y12151D01*
X144117Y12129D01*
X144008Y12112D01*
X143898Y12098D01*
X143787Y12088D01*
X143677Y12082D01*
X143566Y12080D01*
X143566Y12079D02*
X140462Y12079D01*
X144187Y12079D02*
X146671Y7112D01*
X151800Y7112D02*
X155525Y7112D01*
X155623Y7114D01*
X155720Y7120D01*
X155817Y7129D01*
X155914Y7143D01*
X156010Y7160D01*
X156105Y7181D01*
X156199Y7205D01*
X156293Y7234D01*
X156385Y7266D01*
X156476Y7301D01*
X156565Y7340D01*
X156653Y7383D01*
X156739Y7429D01*
X156823Y7478D01*
X156905Y7531D01*
X156985Y7586D01*
X157063Y7645D01*
X157138Y7707D01*
X157211Y7772D01*
X157281Y7840D01*
X157349Y7910D01*
X157414Y7983D01*
X157476Y8058D01*
X157535Y8136D01*
X157590Y8216D01*
X157643Y8298D01*
X157692Y8382D01*
X157738Y8468D01*
X157781Y8556D01*
X157820Y8645D01*
X157855Y8736D01*
X157887Y8828D01*
X157916Y8922D01*
X157940Y9016D01*
X157961Y9111D01*
X157978Y9207D01*
X157992Y9304D01*
X158001Y9401D01*
X158007Y9498D01*
X158009Y9596D01*
X158009Y10837D01*
X158007Y10935D01*
X158001Y11032D01*
X157992Y11129D01*
X157978Y11226D01*
X157961Y11322D01*
X157940Y11417D01*
X157916Y11511D01*
X157887Y11605D01*
X157855Y11697D01*
X157820Y11788D01*
X157781Y11877D01*
X157738Y11965D01*
X157692Y12051D01*
X157643Y12135D01*
X157590Y12217D01*
X157535Y12297D01*
X157476Y12375D01*
X157414Y12450D01*
X157349Y12523D01*
X157281Y12593D01*
X157211Y12661D01*
X157138Y12726D01*
X157063Y12788D01*
X156985Y12847D01*
X156905Y12902D01*
X156823Y12955D01*
X156739Y13004D01*
X156653Y13050D01*
X156565Y13093D01*
X156476Y13132D01*
X156385Y13167D01*
X156293Y13199D01*
X156199Y13228D01*
X156105Y13252D01*
X156010Y13273D01*
X155914Y13290D01*
X155817Y13304D01*
X155720Y13313D01*
X155623Y13319D01*
X155525Y13321D01*
X151800Y13321D01*
X151800Y18288D01*
X158009Y18288D01*
X988737Y51562D02*
X988834Y51564D01*
X988932Y51570D01*
X989029Y51579D01*
X989126Y51593D01*
X989222Y51610D01*
X989317Y51631D01*
X989411Y51655D01*
X989505Y51684D01*
X989597Y51716D01*
X989688Y51751D01*
X989777Y51790D01*
X989865Y51833D01*
X989951Y51879D01*
X990035Y51928D01*
X990117Y51981D01*
X990197Y52036D01*
X990275Y52095D01*
X990350Y52157D01*
X990423Y52222D01*
X990493Y52290D01*
X990561Y52360D01*
X990626Y52433D01*
X990688Y52508D01*
X990747Y52586D01*
X990802Y52666D01*
X990855Y52748D01*
X990904Y52832D01*
X990950Y52918D01*
X990993Y53006D01*
X991032Y53095D01*
X991067Y53186D01*
X991099Y53278D01*
X991128Y53372D01*
X991152Y53466D01*
X991173Y53561D01*
X991190Y53657D01*
X991204Y53754D01*
X991213Y53851D01*
X991219Y53948D01*
X991221Y54046D01*
X988737Y51562D02*
X988594Y51564D01*
X988451Y51570D01*
X988309Y51579D01*
X988167Y51593D01*
X988025Y51611D01*
X987884Y51632D01*
X987743Y51657D01*
X987603Y51686D01*
X987464Y51719D01*
X987326Y51755D01*
X987189Y51796D01*
X987053Y51840D01*
X986918Y51887D01*
X986785Y51939D01*
X986653Y51994D01*
X986523Y52052D01*
X986394Y52114D01*
X986267Y52180D01*
X986142Y52249D01*
X986019Y52321D01*
X985898Y52397D01*
X985779Y52475D01*
X985662Y52558D01*
X985547Y52643D01*
X985435Y52731D01*
X985325Y52823D01*
X985218Y52917D01*
X985113Y53014D01*
X985011Y53114D01*
X985322Y60254D02*
X985324Y60352D01*
X985330Y60449D01*
X985339Y60546D01*
X985353Y60643D01*
X985370Y60739D01*
X985391Y60834D01*
X985415Y60928D01*
X985444Y61022D01*
X985476Y61114D01*
X985511Y61205D01*
X985550Y61294D01*
X985593Y61382D01*
X985639Y61468D01*
X985688Y61552D01*
X985741Y61634D01*
X985796Y61714D01*
X985855Y61792D01*
X985917Y61867D01*
X985982Y61940D01*
X986050Y62010D01*
X986120Y62078D01*
X986193Y62143D01*
X986268Y62205D01*
X986346Y62264D01*
X986426Y62319D01*
X986508Y62372D01*
X986592Y62421D01*
X986678Y62467D01*
X986766Y62510D01*
X986855Y62549D01*
X986946Y62584D01*
X987038Y62616D01*
X987132Y62645D01*
X987226Y62669D01*
X987321Y62690D01*
X987417Y62707D01*
X987514Y62721D01*
X987611Y62730D01*
X987708Y62736D01*
X987806Y62738D01*
X987936Y62736D01*
X988066Y62731D01*
X988196Y62722D01*
X988326Y62709D01*
X988455Y62693D01*
X988584Y62673D01*
X988712Y62649D01*
X988840Y62622D01*
X988966Y62591D01*
X989092Y62557D01*
X989217Y62519D01*
X989340Y62478D01*
X989463Y62433D01*
X989584Y62385D01*
X989704Y62334D01*
X989822Y62279D01*
X989938Y62221D01*
X990053Y62160D01*
X990167Y62095D01*
X990278Y62028D01*
X990387Y61957D01*
X990495Y61883D01*
X990600Y61807D01*
X986565Y58081D02*
X986482Y58132D01*
X986401Y58186D01*
X986323Y58243D01*
X986247Y58303D01*
X986173Y58366D01*
X986102Y58432D01*
X986033Y58500D01*
X985967Y58571D01*
X985903Y58644D01*
X985843Y58720D01*
X985786Y58798D01*
X985731Y58879D01*
X985680Y58961D01*
X985632Y59045D01*
X985587Y59131D01*
X985545Y59219D01*
X985507Y59308D01*
X985473Y59398D01*
X985441Y59490D01*
X985414Y59583D01*
X985390Y59677D01*
X985369Y59772D01*
X985353Y59868D01*
X985340Y59964D01*
X985330Y60060D01*
X985325Y60157D01*
X985323Y60254D01*
X989978Y56219D02*
X990061Y56168D01*
X990142Y56114D01*
X990220Y56057D01*
X990296Y55997D01*
X990370Y55934D01*
X990441Y55868D01*
X990510Y55800D01*
X990576Y55729D01*
X990640Y55656D01*
X990700Y55580D01*
X990757Y55502D01*
X990812Y55421D01*
X990863Y55339D01*
X990911Y55255D01*
X990956Y55169D01*
X990998Y55081D01*
X991036Y54992D01*
X991070Y54902D01*
X991102Y54810D01*
X991129Y54717D01*
X991153Y54623D01*
X991174Y54528D01*
X991190Y54432D01*
X991203Y54336D01*
X991213Y54240D01*
X991218Y54143D01*
X991220Y54046D01*
X989979Y56219D02*
X986564Y58081D01*
X995722Y62738D02*
X998206Y51562D01*
X1000689Y59013D01*
X1003173Y51562D01*
X1005657Y62738D01*
X1013954Y62738D02*
X1014058Y62736D01*
X1014163Y62730D01*
X1014267Y62720D01*
X1014370Y62707D01*
X1014473Y62689D01*
X1014576Y62668D01*
X1014677Y62643D01*
X1014778Y62614D01*
X1014877Y62581D01*
X1014975Y62545D01*
X1015071Y62505D01*
X1015166Y62461D01*
X1015260Y62414D01*
X1015351Y62364D01*
X1015440Y62310D01*
X1015528Y62253D01*
X1015613Y62192D01*
X1015696Y62128D01*
X1015776Y62062D01*
X1015854Y61992D01*
X1015930Y61920D01*
X1016002Y61844D01*
X1016072Y61766D01*
X1016138Y61686D01*
X1016202Y61603D01*
X1016263Y61518D01*
X1016320Y61430D01*
X1016374Y61341D01*
X1016424Y61250D01*
X1016471Y61156D01*
X1016515Y61061D01*
X1016555Y60965D01*
X1016591Y60867D01*
X1016624Y60768D01*
X1016653Y60667D01*
X1016678Y60566D01*
X1016699Y60463D01*
X1016717Y60360D01*
X1016730Y60257D01*
X1016740Y60153D01*
X1016746Y60048D01*
X1016748Y59944D01*
X1013954Y62739D02*
X1013835Y62737D01*
X1013717Y62731D01*
X1013598Y62721D01*
X1013480Y62708D01*
X1013363Y62690D01*
X1013246Y62668D01*
X1013130Y62643D01*
X1013015Y62614D01*
X1012900Y62581D01*
X1012787Y62544D01*
X1012676Y62504D01*
X1012565Y62460D01*
X1012457Y62412D01*
X1012350Y62361D01*
X1012244Y62306D01*
X1012141Y62247D01*
X1012039Y62186D01*
X1011940Y62121D01*
X1011842Y62052D01*
X1011748Y61981D01*
X1011655Y61906D01*
X1011565Y61829D01*
X1011478Y61748D01*
X1011393Y61665D01*
X1011311Y61579D01*
X1011232Y61490D01*
X1011156Y61399D01*
X1011083Y61305D01*
X1011014Y61209D01*
X1010947Y61110D01*
X1010884Y61010D01*
X1010824Y60907D01*
X1010767Y60803D01*
X1010715Y60696D01*
X1010665Y60588D01*
X1010619Y60479D01*
X1010577Y60367D01*
X1010539Y60255D01*
X1015817Y57771D02*
X1015892Y57845D01*
X1015964Y57922D01*
X1016034Y58001D01*
X1016101Y58083D01*
X1016165Y58167D01*
X1016226Y58253D01*
X1016284Y58341D01*
X1016339Y58432D01*
X1016391Y58524D01*
X1016439Y58618D01*
X1016484Y58713D01*
X1016526Y58811D01*
X1016564Y58909D01*
X1016599Y59009D01*
X1016630Y59110D01*
X1016657Y59212D01*
X1016681Y59315D01*
X1016702Y59418D01*
X1016718Y59523D01*
X1016731Y59628D01*
X1016741Y59733D01*
X1016746Y59838D01*
X1016748Y59944D01*
X1015817Y57771D02*
X1010539Y51562D01*
X1016748Y51562D01*
X1080262Y184912D02*
X1080262Y196088D01*
X1083366Y196088D01*
X1083477Y196086D01*
X1083587Y196080D01*
X1083698Y196070D01*
X1083808Y196056D01*
X1083917Y196039D01*
X1084026Y196017D01*
X1084134Y195992D01*
X1084240Y195962D01*
X1084346Y195929D01*
X1084451Y195892D01*
X1084554Y195852D01*
X1084655Y195807D01*
X1084755Y195760D01*
X1084854Y195708D01*
X1084950Y195653D01*
X1085044Y195595D01*
X1085136Y195534D01*
X1085226Y195469D01*
X1085314Y195401D01*
X1085399Y195330D01*
X1085481Y195256D01*
X1085561Y195179D01*
X1085638Y195099D01*
X1085712Y195017D01*
X1085783Y194932D01*
X1085851Y194844D01*
X1085916Y194754D01*
X1085977Y194662D01*
X1086035Y194568D01*
X1086090Y194472D01*
X1086142Y194373D01*
X1086189Y194273D01*
X1086234Y194172D01*
X1086274Y194069D01*
X1086311Y193964D01*
X1086344Y193858D01*
X1086374Y193752D01*
X1086399Y193644D01*
X1086421Y193535D01*
X1086438Y193426D01*
X1086452Y193316D01*
X1086462Y193205D01*
X1086468Y193095D01*
X1086470Y192984D01*
X1086468Y192873D01*
X1086462Y192763D01*
X1086452Y192652D01*
X1086438Y192542D01*
X1086421Y192433D01*
X1086399Y192324D01*
X1086374Y192216D01*
X1086344Y192110D01*
X1086311Y192004D01*
X1086274Y191899D01*
X1086234Y191796D01*
X1086189Y191695D01*
X1086142Y191595D01*
X1086090Y191496D01*
X1086035Y191400D01*
X1085977Y191306D01*
X1085916Y191214D01*
X1085851Y191124D01*
X1085783Y191036D01*
X1085712Y190951D01*
X1085638Y190869D01*
X1085561Y190789D01*
X1085481Y190712D01*
X1085399Y190638D01*
X1085314Y190567D01*
X1085226Y190499D01*
X1085136Y190434D01*
X1085044Y190373D01*
X1084950Y190315D01*
X1084854Y190260D01*
X1084755Y190208D01*
X1084655Y190161D01*
X1084554Y190116D01*
X1084451Y190076D01*
X1084346Y190039D01*
X1084240Y190006D01*
X1084134Y189976D01*
X1084026Y189951D01*
X1083917Y189929D01*
X1083808Y189912D01*
X1083698Y189898D01*
X1083587Y189888D01*
X1083477Y189882D01*
X1083366Y189880D01*
X1083366Y189879D02*
X1080262Y189879D01*
X1083987Y189879D02*
X1086471Y184912D01*
X1091600Y187396D02*
X1094084Y196088D01*
X1091600Y187396D02*
X1097809Y187396D01*
X1095946Y189879D02*
X1095946Y184912D01*
X235712Y842066D02*
X235712Y850138D01*
X235712Y842066D02*
X235714Y841955D01*
X235720Y841845D01*
X235730Y841734D01*
X235744Y841624D01*
X235761Y841515D01*
X235783Y841406D01*
X235808Y841298D01*
X235838Y841192D01*
X235871Y841086D01*
X235908Y840981D01*
X235948Y840878D01*
X235993Y840777D01*
X236040Y840677D01*
X236092Y840578D01*
X236147Y840482D01*
X236205Y840388D01*
X236266Y840296D01*
X236331Y840206D01*
X236399Y840118D01*
X236470Y840033D01*
X236544Y839951D01*
X236621Y839871D01*
X236701Y839794D01*
X236783Y839720D01*
X236868Y839649D01*
X236956Y839581D01*
X237046Y839516D01*
X237138Y839455D01*
X237232Y839397D01*
X237328Y839342D01*
X237427Y839290D01*
X237527Y839243D01*
X237628Y839198D01*
X237731Y839158D01*
X237836Y839121D01*
X237942Y839088D01*
X238048Y839058D01*
X238156Y839033D01*
X238265Y839011D01*
X238374Y838994D01*
X238484Y838980D01*
X238595Y838970D01*
X238705Y838964D01*
X238816Y838962D01*
X238927Y838964D01*
X239037Y838970D01*
X239148Y838980D01*
X239258Y838994D01*
X239367Y839011D01*
X239476Y839033D01*
X239584Y839058D01*
X239690Y839088D01*
X239796Y839121D01*
X239901Y839158D01*
X240004Y839198D01*
X240105Y839243D01*
X240205Y839290D01*
X240304Y839342D01*
X240400Y839397D01*
X240494Y839455D01*
X240586Y839516D01*
X240676Y839581D01*
X240764Y839649D01*
X240849Y839720D01*
X240931Y839794D01*
X241011Y839871D01*
X241088Y839951D01*
X241162Y840033D01*
X241233Y840118D01*
X241301Y840206D01*
X241366Y840296D01*
X241427Y840388D01*
X241485Y840482D01*
X241540Y840578D01*
X241592Y840677D01*
X241639Y840777D01*
X241684Y840878D01*
X241724Y840981D01*
X241761Y841086D01*
X241794Y841192D01*
X241824Y841298D01*
X241849Y841406D01*
X241871Y841515D01*
X241888Y841624D01*
X241902Y841734D01*
X241912Y841845D01*
X241918Y841955D01*
X241920Y842066D01*
X241921Y842066D02*
X241921Y850138D01*
X250938Y850138D02*
X251042Y850136D01*
X251147Y850130D01*
X251251Y850120D01*
X251354Y850107D01*
X251457Y850089D01*
X251560Y850068D01*
X251661Y850043D01*
X251762Y850014D01*
X251861Y849981D01*
X251959Y849945D01*
X252055Y849905D01*
X252150Y849861D01*
X252244Y849814D01*
X252335Y849764D01*
X252424Y849710D01*
X252512Y849653D01*
X252597Y849592D01*
X252680Y849528D01*
X252760Y849462D01*
X252838Y849392D01*
X252914Y849320D01*
X252986Y849244D01*
X253056Y849166D01*
X253122Y849086D01*
X253186Y849003D01*
X253247Y848918D01*
X253304Y848830D01*
X253358Y848741D01*
X253408Y848650D01*
X253455Y848556D01*
X253499Y848461D01*
X253539Y848365D01*
X253575Y848267D01*
X253608Y848168D01*
X253637Y848067D01*
X253662Y847966D01*
X253683Y847863D01*
X253701Y847760D01*
X253714Y847657D01*
X253724Y847553D01*
X253730Y847448D01*
X253732Y847344D01*
X250938Y850139D02*
X250819Y850137D01*
X250701Y850131D01*
X250582Y850121D01*
X250464Y850108D01*
X250347Y850090D01*
X250230Y850068D01*
X250114Y850043D01*
X249999Y850014D01*
X249884Y849981D01*
X249771Y849944D01*
X249660Y849904D01*
X249549Y849860D01*
X249441Y849812D01*
X249334Y849761D01*
X249228Y849706D01*
X249125Y849647D01*
X249023Y849586D01*
X248924Y849521D01*
X248826Y849452D01*
X248732Y849381D01*
X248639Y849306D01*
X248549Y849229D01*
X248462Y849148D01*
X248377Y849065D01*
X248295Y848979D01*
X248216Y848890D01*
X248140Y848799D01*
X248067Y848705D01*
X247998Y848609D01*
X247931Y848510D01*
X247868Y848410D01*
X247808Y848307D01*
X247751Y848203D01*
X247699Y848096D01*
X247649Y847988D01*
X247603Y847879D01*
X247561Y847767D01*
X247523Y847655D01*
X252801Y845171D02*
X252876Y845245D01*
X252948Y845322D01*
X253018Y845401D01*
X253085Y845483D01*
X253149Y845567D01*
X253210Y845653D01*
X253268Y845741D01*
X253323Y845832D01*
X253375Y845924D01*
X253423Y846018D01*
X253468Y846113D01*
X253510Y846211D01*
X253548Y846309D01*
X253583Y846409D01*
X253614Y846510D01*
X253641Y846612D01*
X253665Y846715D01*
X253686Y846818D01*
X253702Y846923D01*
X253715Y847028D01*
X253725Y847133D01*
X253730Y847238D01*
X253732Y847344D01*
X252801Y845171D02*
X247523Y838962D01*
X253732Y838962D01*
X464312Y902462D02*
X464312Y913638D01*
X467416Y913638D01*
X467527Y913636D01*
X467637Y913630D01*
X467748Y913620D01*
X467858Y913606D01*
X467967Y913589D01*
X468076Y913567D01*
X468184Y913542D01*
X468290Y913512D01*
X468396Y913479D01*
X468501Y913442D01*
X468604Y913402D01*
X468705Y913357D01*
X468805Y913310D01*
X468904Y913258D01*
X469000Y913203D01*
X469094Y913145D01*
X469186Y913084D01*
X469276Y913019D01*
X469364Y912951D01*
X469449Y912880D01*
X469531Y912806D01*
X469611Y912729D01*
X469688Y912649D01*
X469762Y912567D01*
X469833Y912482D01*
X469901Y912394D01*
X469966Y912304D01*
X470027Y912212D01*
X470085Y912118D01*
X470140Y912022D01*
X470192Y911923D01*
X470239Y911823D01*
X470284Y911722D01*
X470324Y911619D01*
X470361Y911514D01*
X470394Y911408D01*
X470424Y911302D01*
X470449Y911194D01*
X470471Y911085D01*
X470488Y910976D01*
X470502Y910866D01*
X470512Y910755D01*
X470518Y910645D01*
X470520Y910534D01*
X470518Y910423D01*
X470512Y910313D01*
X470502Y910202D01*
X470488Y910092D01*
X470471Y909983D01*
X470449Y909874D01*
X470424Y909766D01*
X470394Y909660D01*
X470361Y909554D01*
X470324Y909449D01*
X470284Y909346D01*
X470239Y909245D01*
X470192Y909145D01*
X470140Y909046D01*
X470085Y908950D01*
X470027Y908856D01*
X469966Y908764D01*
X469901Y908674D01*
X469833Y908586D01*
X469762Y908501D01*
X469688Y908419D01*
X469611Y908339D01*
X469531Y908262D01*
X469449Y908188D01*
X469364Y908117D01*
X469276Y908049D01*
X469186Y907984D01*
X469094Y907923D01*
X469000Y907865D01*
X468904Y907810D01*
X468805Y907758D01*
X468705Y907711D01*
X468604Y907666D01*
X468501Y907626D01*
X468396Y907589D01*
X468290Y907556D01*
X468184Y907526D01*
X468076Y907501D01*
X467967Y907479D01*
X467858Y907462D01*
X467748Y907448D01*
X467637Y907438D01*
X467527Y907432D01*
X467416Y907430D01*
X467416Y907429D02*
X464312Y907429D01*
X468037Y907429D02*
X470521Y902462D01*
X479065Y913638D02*
X479169Y913636D01*
X479274Y913630D01*
X479378Y913620D01*
X479481Y913607D01*
X479584Y913589D01*
X479687Y913568D01*
X479788Y913543D01*
X479889Y913514D01*
X479988Y913481D01*
X480086Y913445D01*
X480182Y913405D01*
X480277Y913361D01*
X480371Y913314D01*
X480462Y913264D01*
X480551Y913210D01*
X480639Y913153D01*
X480724Y913092D01*
X480807Y913028D01*
X480887Y912962D01*
X480965Y912892D01*
X481041Y912820D01*
X481113Y912744D01*
X481183Y912666D01*
X481249Y912586D01*
X481313Y912503D01*
X481374Y912418D01*
X481431Y912330D01*
X481485Y912241D01*
X481535Y912150D01*
X481582Y912056D01*
X481626Y911961D01*
X481666Y911865D01*
X481702Y911767D01*
X481735Y911668D01*
X481764Y911567D01*
X481789Y911466D01*
X481810Y911363D01*
X481828Y911260D01*
X481841Y911157D01*
X481851Y911053D01*
X481857Y910948D01*
X481859Y910844D01*
X479065Y913639D02*
X478946Y913637D01*
X478828Y913631D01*
X478709Y913621D01*
X478591Y913608D01*
X478474Y913590D01*
X478357Y913568D01*
X478241Y913543D01*
X478126Y913514D01*
X478011Y913481D01*
X477898Y913444D01*
X477787Y913404D01*
X477676Y913360D01*
X477568Y913312D01*
X477461Y913261D01*
X477355Y913206D01*
X477252Y913147D01*
X477150Y913086D01*
X477051Y913021D01*
X476953Y912952D01*
X476859Y912881D01*
X476766Y912806D01*
X476676Y912729D01*
X476589Y912648D01*
X476504Y912565D01*
X476422Y912479D01*
X476343Y912390D01*
X476267Y912299D01*
X476194Y912205D01*
X476125Y912109D01*
X476058Y912010D01*
X475995Y911910D01*
X475935Y911807D01*
X475878Y911703D01*
X475826Y911596D01*
X475776Y911488D01*
X475730Y911379D01*
X475688Y911267D01*
X475650Y911155D01*
X480928Y908671D02*
X481003Y908745D01*
X481075Y908822D01*
X481145Y908901D01*
X481212Y908983D01*
X481276Y909067D01*
X481337Y909153D01*
X481395Y909241D01*
X481450Y909332D01*
X481502Y909424D01*
X481550Y909518D01*
X481595Y909613D01*
X481637Y909711D01*
X481675Y909809D01*
X481710Y909909D01*
X481741Y910010D01*
X481768Y910112D01*
X481792Y910215D01*
X481813Y910318D01*
X481829Y910423D01*
X481842Y910528D01*
X481852Y910633D01*
X481857Y910738D01*
X481859Y910844D01*
X480928Y908671D02*
X475650Y902462D01*
X481859Y902462D01*
X575987Y972312D02*
X576084Y972314D01*
X576182Y972320D01*
X576279Y972329D01*
X576376Y972343D01*
X576472Y972360D01*
X576567Y972381D01*
X576661Y972405D01*
X576755Y972434D01*
X576847Y972466D01*
X576938Y972501D01*
X577027Y972540D01*
X577115Y972583D01*
X577201Y972629D01*
X577285Y972678D01*
X577367Y972731D01*
X577447Y972786D01*
X577525Y972845D01*
X577600Y972907D01*
X577673Y972972D01*
X577743Y973040D01*
X577811Y973110D01*
X577876Y973183D01*
X577938Y973258D01*
X577997Y973336D01*
X578052Y973416D01*
X578105Y973498D01*
X578154Y973582D01*
X578200Y973668D01*
X578243Y973756D01*
X578282Y973845D01*
X578317Y973936D01*
X578349Y974028D01*
X578378Y974122D01*
X578402Y974216D01*
X578423Y974311D01*
X578440Y974407D01*
X578454Y974504D01*
X578463Y974601D01*
X578469Y974698D01*
X578471Y974796D01*
X575987Y972312D02*
X575844Y972314D01*
X575701Y972320D01*
X575559Y972329D01*
X575417Y972343D01*
X575275Y972361D01*
X575134Y972382D01*
X574993Y972407D01*
X574853Y972436D01*
X574714Y972469D01*
X574576Y972505D01*
X574439Y972546D01*
X574303Y972590D01*
X574168Y972637D01*
X574035Y972689D01*
X573903Y972744D01*
X573773Y972802D01*
X573644Y972864D01*
X573517Y972930D01*
X573392Y972999D01*
X573269Y973071D01*
X573148Y973147D01*
X573029Y973225D01*
X572912Y973308D01*
X572797Y973393D01*
X572685Y973481D01*
X572575Y973573D01*
X572468Y973667D01*
X572363Y973764D01*
X572261Y973864D01*
X572572Y981004D02*
X572574Y981102D01*
X572580Y981199D01*
X572589Y981296D01*
X572603Y981393D01*
X572620Y981489D01*
X572641Y981584D01*
X572665Y981678D01*
X572694Y981772D01*
X572726Y981864D01*
X572761Y981955D01*
X572800Y982044D01*
X572843Y982132D01*
X572889Y982218D01*
X572938Y982302D01*
X572991Y982384D01*
X573046Y982464D01*
X573105Y982542D01*
X573167Y982617D01*
X573232Y982690D01*
X573300Y982760D01*
X573370Y982828D01*
X573443Y982893D01*
X573518Y982955D01*
X573596Y983014D01*
X573676Y983069D01*
X573758Y983122D01*
X573842Y983171D01*
X573928Y983217D01*
X574016Y983260D01*
X574105Y983299D01*
X574196Y983334D01*
X574288Y983366D01*
X574382Y983395D01*
X574476Y983419D01*
X574571Y983440D01*
X574667Y983457D01*
X574764Y983471D01*
X574861Y983480D01*
X574958Y983486D01*
X575056Y983488D01*
X575186Y983486D01*
X575316Y983481D01*
X575446Y983472D01*
X575576Y983459D01*
X575705Y983443D01*
X575834Y983423D01*
X575962Y983399D01*
X576090Y983372D01*
X576216Y983341D01*
X576342Y983307D01*
X576467Y983269D01*
X576590Y983228D01*
X576713Y983183D01*
X576834Y983135D01*
X576954Y983084D01*
X577072Y983029D01*
X577188Y982971D01*
X577303Y982910D01*
X577417Y982845D01*
X577528Y982778D01*
X577637Y982707D01*
X577745Y982633D01*
X577850Y982557D01*
X573815Y978831D02*
X573732Y978882D01*
X573651Y978936D01*
X573573Y978993D01*
X573497Y979053D01*
X573423Y979116D01*
X573352Y979182D01*
X573283Y979250D01*
X573217Y979321D01*
X573153Y979394D01*
X573093Y979470D01*
X573036Y979548D01*
X572981Y979629D01*
X572930Y979711D01*
X572882Y979795D01*
X572837Y979881D01*
X572795Y979969D01*
X572757Y980058D01*
X572723Y980148D01*
X572691Y980240D01*
X572664Y980333D01*
X572640Y980427D01*
X572619Y980522D01*
X572603Y980618D01*
X572590Y980714D01*
X572580Y980810D01*
X572575Y980907D01*
X572573Y981004D01*
X577228Y976969D02*
X577311Y976918D01*
X577392Y976864D01*
X577470Y976807D01*
X577546Y976747D01*
X577620Y976684D01*
X577691Y976618D01*
X577760Y976550D01*
X577826Y976479D01*
X577890Y976406D01*
X577950Y976330D01*
X578007Y976252D01*
X578062Y976171D01*
X578113Y976089D01*
X578161Y976005D01*
X578206Y975919D01*
X578248Y975831D01*
X578286Y975742D01*
X578320Y975652D01*
X578352Y975560D01*
X578379Y975467D01*
X578403Y975373D01*
X578424Y975278D01*
X578440Y975182D01*
X578453Y975086D01*
X578463Y974990D01*
X578468Y974893D01*
X578470Y974796D01*
X577229Y976969D02*
X573814Y978831D01*
X582972Y983488D02*
X585456Y972312D01*
X587939Y979763D01*
X590423Y972312D01*
X592907Y983488D01*
X597789Y981004D02*
X600893Y983488D01*
X600893Y972312D01*
X597789Y972312D02*
X603998Y972312D01*
D11*
X228600Y795020D02*
X228600Y220980D01*
X228607Y220366D01*
X228630Y219753D01*
X228667Y219140D01*
X228719Y218529D01*
X228785Y217918D01*
X228867Y217310D01*
X228963Y216704D01*
X229073Y216100D01*
X229198Y215499D01*
X229338Y214901D01*
X229492Y214307D01*
X229661Y213717D01*
X229843Y213131D01*
X230040Y212550D01*
X230251Y211973D01*
X230475Y211402D01*
X230713Y210836D01*
X230965Y210276D01*
X231231Y209723D01*
X231509Y209176D01*
X231801Y208636D01*
X232106Y208103D01*
X232424Y207578D01*
X232754Y207060D01*
X233096Y206551D01*
X233451Y206050D01*
X233818Y205558D01*
X234196Y205075D01*
X234586Y204601D01*
X234988Y204137D01*
X235400Y203682D01*
X235824Y203238D01*
X236258Y202804D01*
X236702Y202380D01*
X237157Y201968D01*
X237621Y201566D01*
X238095Y201176D01*
X238578Y200798D01*
X239070Y200431D01*
X239571Y200076D01*
X240080Y199734D01*
X240598Y199404D01*
X241123Y199086D01*
X241656Y198781D01*
X242196Y198489D01*
X242743Y198211D01*
X243296Y197945D01*
X243856Y197693D01*
X244422Y197455D01*
X244993Y197231D01*
X245570Y197020D01*
X246151Y196823D01*
X246737Y196641D01*
X247327Y196472D01*
X247921Y196318D01*
X248519Y196178D01*
X249120Y196053D01*
X249724Y195943D01*
X250330Y195847D01*
X250938Y195765D01*
X251549Y195699D01*
X252160Y195647D01*
X252773Y195610D01*
X253386Y195587D01*
X254000Y195580D01*
X254614Y195587D01*
X255227Y195610D01*
X255840Y195647D01*
X256451Y195699D01*
X257062Y195765D01*
X257670Y195847D01*
X258276Y195943D01*
X258880Y196053D01*
X259481Y196178D01*
X260079Y196318D01*
X260673Y196472D01*
X261263Y196641D01*
X261849Y196823D01*
X262430Y197020D01*
X263007Y197231D01*
X263578Y197455D01*
X264144Y197693D01*
X264704Y197945D01*
X265257Y198211D01*
X265804Y198489D01*
X266344Y198781D01*
X266877Y199086D01*
X267402Y199404D01*
X267920Y199734D01*
X268429Y200076D01*
X268930Y200431D01*
X269422Y200798D01*
X269905Y201176D01*
X270379Y201566D01*
X270843Y201968D01*
X271298Y202380D01*
X271742Y202804D01*
X272176Y203238D01*
X272600Y203682D01*
X273012Y204137D01*
X273414Y204601D01*
X273804Y205075D01*
X274182Y205558D01*
X274549Y206050D01*
X274904Y206551D01*
X275246Y207060D01*
X275576Y207578D01*
X275894Y208103D01*
X276199Y208636D01*
X276491Y209176D01*
X276769Y209723D01*
X277035Y210276D01*
X277287Y210836D01*
X277525Y211402D01*
X277749Y211973D01*
X277960Y212550D01*
X278157Y213131D01*
X278339Y213717D01*
X278508Y214307D01*
X278662Y214901D01*
X278802Y215499D01*
X278927Y216100D01*
X279037Y216704D01*
X279133Y217310D01*
X279215Y217918D01*
X279281Y218529D01*
X279333Y219140D01*
X279370Y219753D01*
X279393Y220366D01*
X279400Y220980D01*
X279400Y254000D01*
X990600Y254000D01*
X990600Y220980D01*
X990607Y220366D01*
X990630Y219753D01*
X990667Y219140D01*
X990719Y218529D01*
X990785Y217918D01*
X990867Y217310D01*
X990963Y216704D01*
X991073Y216100D01*
X991198Y215499D01*
X991338Y214901D01*
X991492Y214307D01*
X991661Y213717D01*
X991843Y213131D01*
X992040Y212550D01*
X992251Y211973D01*
X992475Y211402D01*
X992713Y210836D01*
X992965Y210276D01*
X993231Y209723D01*
X993509Y209176D01*
X993801Y208636D01*
X994106Y208103D01*
X994424Y207578D01*
X994754Y207060D01*
X995096Y206551D01*
X995451Y206050D01*
X995818Y205558D01*
X996196Y205075D01*
X996586Y204601D01*
X996988Y204137D01*
X997400Y203682D01*
X997824Y203238D01*
X998258Y202804D01*
X998702Y202380D01*
X999157Y201968D01*
X999621Y201566D01*
X1000095Y201176D01*
X1000578Y200798D01*
X1001070Y200431D01*
X1001571Y200076D01*
X1002080Y199734D01*
X1002598Y199404D01*
X1003123Y199086D01*
X1003656Y198781D01*
X1004196Y198489D01*
X1004743Y198211D01*
X1005296Y197945D01*
X1005856Y197693D01*
X1006422Y197455D01*
X1006993Y197231D01*
X1007570Y197020D01*
X1008151Y196823D01*
X1008737Y196641D01*
X1009327Y196472D01*
X1009921Y196318D01*
X1010519Y196178D01*
X1011120Y196053D01*
X1011724Y195943D01*
X1012330Y195847D01*
X1012938Y195765D01*
X1013549Y195699D01*
X1014160Y195647D01*
X1014773Y195610D01*
X1015386Y195587D01*
X1016000Y195580D01*
X1016614Y195587D01*
X1017227Y195610D01*
X1017840Y195647D01*
X1018451Y195699D01*
X1019062Y195765D01*
X1019670Y195847D01*
X1020276Y195943D01*
X1020880Y196053D01*
X1021481Y196178D01*
X1022079Y196318D01*
X1022673Y196472D01*
X1023263Y196641D01*
X1023849Y196823D01*
X1024430Y197020D01*
X1025007Y197231D01*
X1025578Y197455D01*
X1026144Y197693D01*
X1026704Y197945D01*
X1027257Y198211D01*
X1027804Y198489D01*
X1028344Y198781D01*
X1028877Y199086D01*
X1029402Y199404D01*
X1029920Y199734D01*
X1030429Y200076D01*
X1030930Y200431D01*
X1031422Y200798D01*
X1031905Y201176D01*
X1032379Y201566D01*
X1032843Y201968D01*
X1033298Y202380D01*
X1033742Y202804D01*
X1034176Y203238D01*
X1034600Y203682D01*
X1035012Y204137D01*
X1035414Y204601D01*
X1035804Y205075D01*
X1036182Y205558D01*
X1036549Y206050D01*
X1036904Y206551D01*
X1037246Y207060D01*
X1037576Y207578D01*
X1037894Y208103D01*
X1038199Y208636D01*
X1038491Y209176D01*
X1038769Y209723D01*
X1039035Y210276D01*
X1039287Y210836D01*
X1039525Y211402D01*
X1039749Y211973D01*
X1039960Y212550D01*
X1040157Y213131D01*
X1040339Y213717D01*
X1040508Y214307D01*
X1040662Y214901D01*
X1040802Y215499D01*
X1040927Y216100D01*
X1041037Y216704D01*
X1041133Y217310D01*
X1041215Y217918D01*
X1041281Y218529D01*
X1041333Y219140D01*
X1041370Y219753D01*
X1041393Y220366D01*
X1041400Y220980D01*
X1041400Y795020D01*
X1041393Y795634D01*
X1041370Y796247D01*
X1041333Y796860D01*
X1041281Y797471D01*
X1041215Y798082D01*
X1041133Y798690D01*
X1041037Y799296D01*
X1040927Y799900D01*
X1040802Y800501D01*
X1040662Y801099D01*
X1040508Y801693D01*
X1040339Y802283D01*
X1040157Y802869D01*
X1039960Y803450D01*
X1039749Y804027D01*
X1039525Y804598D01*
X1039287Y805164D01*
X1039035Y805724D01*
X1038769Y806277D01*
X1038491Y806824D01*
X1038199Y807364D01*
X1037894Y807897D01*
X1037576Y808422D01*
X1037246Y808940D01*
X1036904Y809449D01*
X1036549Y809950D01*
X1036182Y810442D01*
X1035804Y810925D01*
X1035414Y811399D01*
X1035012Y811863D01*
X1034600Y812318D01*
X1034176Y812762D01*
X1033742Y813196D01*
X1033298Y813620D01*
X1032843Y814032D01*
X1032379Y814434D01*
X1031905Y814824D01*
X1031422Y815202D01*
X1030930Y815569D01*
X1030429Y815924D01*
X1029920Y816266D01*
X1029402Y816596D01*
X1028877Y816914D01*
X1028344Y817219D01*
X1027804Y817511D01*
X1027257Y817789D01*
X1026704Y818055D01*
X1026144Y818307D01*
X1025578Y818545D01*
X1025007Y818769D01*
X1024430Y818980D01*
X1023849Y819177D01*
X1023263Y819359D01*
X1022673Y819528D01*
X1022079Y819682D01*
X1021481Y819822D01*
X1020880Y819947D01*
X1020276Y820057D01*
X1019670Y820153D01*
X1019062Y820235D01*
X1018451Y820301D01*
X1017840Y820353D01*
X1017227Y820390D01*
X1016614Y820413D01*
X1016000Y820420D01*
X1015386Y820413D01*
X1014773Y820390D01*
X1014160Y820353D01*
X1013549Y820301D01*
X1012938Y820235D01*
X1012330Y820153D01*
X1011724Y820057D01*
X1011120Y819947D01*
X1010519Y819822D01*
X1009921Y819682D01*
X1009327Y819528D01*
X1008737Y819359D01*
X1008151Y819177D01*
X1007570Y818980D01*
X1006993Y818769D01*
X1006422Y818545D01*
X1005856Y818307D01*
X1005296Y818055D01*
X1004743Y817789D01*
X1004196Y817511D01*
X1003656Y817219D01*
X1003123Y816914D01*
X1002598Y816596D01*
X1002080Y816266D01*
X1001571Y815924D01*
X1001070Y815569D01*
X1000578Y815202D01*
X1000095Y814824D01*
X999621Y814434D01*
X999157Y814032D01*
X998702Y813620D01*
X998258Y813196D01*
X997824Y812762D01*
X997400Y812318D01*
X996988Y811863D01*
X996586Y811399D01*
X996196Y810925D01*
X995818Y810442D01*
X995451Y809950D01*
X995096Y809449D01*
X994754Y808940D01*
X994424Y808422D01*
X994106Y807897D01*
X993801Y807364D01*
X993509Y806824D01*
X993231Y806277D01*
X992965Y805724D01*
X992713Y805164D01*
X992475Y804598D01*
X992251Y804027D01*
X992040Y803450D01*
X991843Y802869D01*
X991661Y802283D01*
X991492Y801693D01*
X991338Y801099D01*
X991198Y800501D01*
X991073Y799900D01*
X990963Y799296D01*
X990867Y798690D01*
X990785Y798082D01*
X990719Y797471D01*
X990667Y796860D01*
X990630Y796247D01*
X990607Y795634D01*
X990600Y795020D01*
X990600Y762000D01*
X279400Y762000D01*
X279400Y795020D01*
X279393Y795634D01*
X279370Y796247D01*
X279333Y796860D01*
X279281Y797471D01*
X279215Y798082D01*
X279133Y798690D01*
X279037Y799296D01*
X278927Y799900D01*
X278802Y800501D01*
X278662Y801099D01*
X278508Y801693D01*
X278339Y802283D01*
X278157Y802869D01*
X277960Y803450D01*
X277749Y804027D01*
X277525Y804598D01*
X277287Y805164D01*
X277035Y805724D01*
X276769Y806277D01*
X276491Y806824D01*
X276199Y807364D01*
X275894Y807897D01*
X275576Y808422D01*
X275246Y808940D01*
X274904Y809449D01*
X274549Y809950D01*
X274182Y810442D01*
X273804Y810925D01*
X273414Y811399D01*
X273012Y811863D01*
X272600Y812318D01*
X272176Y812762D01*
X271742Y813196D01*
X271298Y813620D01*
X270843Y814032D01*
X270379Y814434D01*
X269905Y814824D01*
X269422Y815202D01*
X268930Y815569D01*
X268429Y815924D01*
X267920Y816266D01*
X267402Y816596D01*
X266877Y816914D01*
X266344Y817219D01*
X265804Y817511D01*
X265257Y817789D01*
X264704Y818055D01*
X264144Y818307D01*
X263578Y818545D01*
X263007Y818769D01*
X262430Y818980D01*
X261849Y819177D01*
X261263Y819359D01*
X260673Y819528D01*
X260079Y819682D01*
X259481Y819822D01*
X258880Y819947D01*
X258276Y820057D01*
X257670Y820153D01*
X257062Y820235D01*
X256451Y820301D01*
X255840Y820353D01*
X255227Y820390D01*
X254614Y820413D01*
X254000Y820420D01*
X253386Y820413D01*
X252773Y820390D01*
X252160Y820353D01*
X251549Y820301D01*
X250938Y820235D01*
X250330Y820153D01*
X249724Y820057D01*
X249120Y819947D01*
X248519Y819822D01*
X247921Y819682D01*
X247327Y819528D01*
X246737Y819359D01*
X246151Y819177D01*
X245570Y818980D01*
X244993Y818769D01*
X244422Y818545D01*
X243856Y818307D01*
X243296Y818055D01*
X242743Y817789D01*
X242196Y817511D01*
X241656Y817219D01*
X241123Y816914D01*
X240598Y816596D01*
X240080Y816266D01*
X239571Y815924D01*
X239070Y815569D01*
X238578Y815202D01*
X238095Y814824D01*
X237621Y814434D01*
X237157Y814032D01*
X236702Y813620D01*
X236258Y813196D01*
X235824Y812762D01*
X235400Y812318D01*
X234988Y811863D01*
X234586Y811399D01*
X234196Y810925D01*
X233818Y810442D01*
X233451Y809950D01*
X233096Y809449D01*
X232754Y808940D01*
X232424Y808422D01*
X232106Y807897D01*
X231801Y807364D01*
X231509Y806824D01*
X231231Y806277D01*
X230965Y805724D01*
X230713Y805164D01*
X230475Y804598D01*
X230251Y804027D01*
X230040Y803450D01*
X229843Y802869D01*
X229661Y802283D01*
X229492Y801693D01*
X229338Y801099D01*
X229198Y800501D01*
X229073Y799900D01*
X228963Y799296D01*
X228867Y798690D01*
X228785Y798082D01*
X228719Y797471D01*
X228667Y796860D01*
X228630Y796247D01*
X228607Y795634D01*
X228600Y795020D01*
X687960Y116760D02*
X703960Y116760D01*
X703960Y106760D02*
X687960Y106760D01*
X697960Y109760D02*
X697960Y113760D01*
X89700Y100800D02*
X89700Y50800D01*
X89700Y140800D02*
X89700Y175800D01*
X189700Y175800D01*
X189700Y140800D01*
X189700Y100800D02*
X189700Y50800D01*
X179700Y50800D01*
X99700Y50800D02*
X89700Y50800D01*
X109700Y120800D02*
X109709Y121536D01*
X109736Y122272D01*
X109781Y123007D01*
X109844Y123741D01*
X109926Y124472D01*
X110025Y125202D01*
X110142Y125929D01*
X110276Y126653D01*
X110429Y127373D01*
X110599Y128089D01*
X110787Y128801D01*
X110992Y129509D01*
X111214Y130210D01*
X111454Y130907D01*
X111710Y131597D01*
X111984Y132281D01*
X112274Y132957D01*
X112580Y133627D01*
X112903Y134288D01*
X113242Y134942D01*
X113597Y135587D01*
X113968Y136223D01*
X114354Y136850D01*
X114756Y137467D01*
X115172Y138074D01*
X115604Y138671D01*
X116050Y139257D01*
X116510Y139832D01*
X116984Y140395D01*
X117471Y140947D01*
X117973Y141486D01*
X118487Y142013D01*
X119014Y142527D01*
X119553Y143029D01*
X120105Y143516D01*
X120668Y143990D01*
X121243Y144450D01*
X121829Y144896D01*
X122426Y145328D01*
X123033Y145744D01*
X123650Y146146D01*
X124277Y146532D01*
X124913Y146903D01*
X125558Y147258D01*
X126212Y147597D01*
X126873Y147920D01*
X127543Y148226D01*
X128219Y148516D01*
X128903Y148790D01*
X129593Y149046D01*
X130290Y149286D01*
X130991Y149508D01*
X131699Y149713D01*
X132411Y149901D01*
X133127Y150071D01*
X133847Y150224D01*
X134571Y150358D01*
X135298Y150475D01*
X136028Y150574D01*
X136759Y150656D01*
X137493Y150719D01*
X138228Y150764D01*
X138964Y150791D01*
X139700Y150800D01*
X140436Y150791D01*
X141172Y150764D01*
X141907Y150719D01*
X142641Y150656D01*
X143372Y150574D01*
X144102Y150475D01*
X144829Y150358D01*
X145553Y150224D01*
X146273Y150071D01*
X146989Y149901D01*
X147701Y149713D01*
X148409Y149508D01*
X149110Y149286D01*
X149807Y149046D01*
X150497Y148790D01*
X151181Y148516D01*
X151857Y148226D01*
X152527Y147920D01*
X153188Y147597D01*
X153842Y147258D01*
X154487Y146903D01*
X155123Y146532D01*
X155750Y146146D01*
X156367Y145744D01*
X156974Y145328D01*
X157571Y144896D01*
X158157Y144450D01*
X158732Y143990D01*
X159295Y143516D01*
X159847Y143029D01*
X160386Y142527D01*
X160913Y142013D01*
X161427Y141486D01*
X161929Y140947D01*
X162416Y140395D01*
X162890Y139832D01*
X163350Y139257D01*
X163796Y138671D01*
X164228Y138074D01*
X164644Y137467D01*
X165046Y136850D01*
X165432Y136223D01*
X165803Y135587D01*
X166158Y134942D01*
X166497Y134288D01*
X166820Y133627D01*
X167126Y132957D01*
X167416Y132281D01*
X167690Y131597D01*
X167946Y130907D01*
X168186Y130210D01*
X168408Y129509D01*
X168613Y128801D01*
X168801Y128089D01*
X168971Y127373D01*
X169124Y126653D01*
X169258Y125929D01*
X169375Y125202D01*
X169474Y124472D01*
X169556Y123741D01*
X169619Y123007D01*
X169664Y122272D01*
X169691Y121536D01*
X169700Y120800D01*
X169691Y120064D01*
X169664Y119328D01*
X169619Y118593D01*
X169556Y117859D01*
X169474Y117128D01*
X169375Y116398D01*
X169258Y115671D01*
X169124Y114947D01*
X168971Y114227D01*
X168801Y113511D01*
X168613Y112799D01*
X168408Y112091D01*
X168186Y111390D01*
X167946Y110693D01*
X167690Y110003D01*
X167416Y109319D01*
X167126Y108643D01*
X166820Y107973D01*
X166497Y107312D01*
X166158Y106658D01*
X165803Y106013D01*
X165432Y105377D01*
X165046Y104750D01*
X164644Y104133D01*
X164228Y103526D01*
X163796Y102929D01*
X163350Y102343D01*
X162890Y101768D01*
X162416Y101205D01*
X161929Y100653D01*
X161427Y100114D01*
X160913Y99587D01*
X160386Y99073D01*
X159847Y98571D01*
X159295Y98084D01*
X158732Y97610D01*
X158157Y97150D01*
X157571Y96704D01*
X156974Y96272D01*
X156367Y95856D01*
X155750Y95454D01*
X155123Y95068D01*
X154487Y94697D01*
X153842Y94342D01*
X153188Y94003D01*
X152527Y93680D01*
X151857Y93374D01*
X151181Y93084D01*
X150497Y92810D01*
X149807Y92554D01*
X149110Y92314D01*
X148409Y92092D01*
X147701Y91887D01*
X146989Y91699D01*
X146273Y91529D01*
X145553Y91376D01*
X144829Y91242D01*
X144102Y91125D01*
X143372Y91026D01*
X142641Y90944D01*
X141907Y90881D01*
X141172Y90836D01*
X140436Y90809D01*
X139700Y90800D01*
X138964Y90809D01*
X138228Y90836D01*
X137493Y90881D01*
X136759Y90944D01*
X136028Y91026D01*
X135298Y91125D01*
X134571Y91242D01*
X133847Y91376D01*
X133127Y91529D01*
X132411Y91699D01*
X131699Y91887D01*
X130991Y92092D01*
X130290Y92314D01*
X129593Y92554D01*
X128903Y92810D01*
X128219Y93084D01*
X127543Y93374D01*
X126873Y93680D01*
X126212Y94003D01*
X125558Y94342D01*
X124913Y94697D01*
X124277Y95068D01*
X123650Y95454D01*
X123033Y95856D01*
X122426Y96272D01*
X121829Y96704D01*
X121243Y97150D01*
X120668Y97610D01*
X120105Y98084D01*
X119553Y98571D01*
X119014Y99073D01*
X118487Y99587D01*
X117973Y100114D01*
X117471Y100653D01*
X116984Y101205D01*
X116510Y101768D01*
X116050Y102343D01*
X115604Y102929D01*
X115172Y103526D01*
X114756Y104133D01*
X114354Y104750D01*
X113968Y105377D01*
X113597Y106013D01*
X113242Y106658D01*
X112903Y107312D01*
X112580Y107973D01*
X112274Y108643D01*
X111984Y109319D01*
X111710Y110003D01*
X111454Y110693D01*
X111214Y111390D01*
X110992Y112091D01*
X110787Y112799D01*
X110599Y113511D01*
X110429Y114227D01*
X110276Y114947D01*
X110142Y115671D01*
X110025Y116398D01*
X109926Y117128D01*
X109844Y117859D01*
X109781Y118593D01*
X109736Y119328D01*
X109709Y120064D01*
X109700Y120800D01*
D12*
X672300Y841700D02*
X672542Y841703D01*
X672783Y841712D01*
X673024Y841726D01*
X673265Y841747D01*
X673505Y841773D01*
X673745Y841805D01*
X673984Y841843D01*
X674221Y841886D01*
X674458Y841936D01*
X674693Y841991D01*
X674927Y842051D01*
X675159Y842118D01*
X675390Y842189D01*
X675619Y842267D01*
X675846Y842350D01*
X676071Y842438D01*
X676294Y842532D01*
X676514Y842631D01*
X676732Y842736D01*
X676947Y842845D01*
X677160Y842960D01*
X677370Y843080D01*
X677576Y843205D01*
X677780Y843335D01*
X677981Y843470D01*
X678178Y843610D01*
X678372Y843754D01*
X678562Y843903D01*
X678748Y844057D01*
X678931Y844215D01*
X679110Y844377D01*
X679285Y844544D01*
X679456Y844715D01*
X679623Y844890D01*
X679785Y845069D01*
X679943Y845252D01*
X680097Y845438D01*
X680246Y845628D01*
X680390Y845822D01*
X680530Y846019D01*
X680665Y846220D01*
X680795Y846424D01*
X680920Y846630D01*
X681040Y846840D01*
X681155Y847053D01*
X681264Y847268D01*
X681369Y847486D01*
X681468Y847706D01*
X681562Y847929D01*
X681650Y848154D01*
X681733Y848381D01*
X681811Y848610D01*
X681882Y848841D01*
X681949Y849073D01*
X682009Y849307D01*
X682064Y849542D01*
X682114Y849779D01*
X682157Y850016D01*
X682195Y850255D01*
X682227Y850495D01*
X682253Y850735D01*
X682274Y850976D01*
X682288Y851217D01*
X682297Y851458D01*
X682300Y851700D01*
X672300Y841700D02*
X572300Y841700D01*
X572058Y841703D01*
X571817Y841712D01*
X571576Y841726D01*
X571335Y841747D01*
X571095Y841773D01*
X570855Y841805D01*
X570616Y841843D01*
X570379Y841886D01*
X570142Y841936D01*
X569907Y841991D01*
X569673Y842051D01*
X569441Y842118D01*
X569210Y842189D01*
X568981Y842267D01*
X568754Y842350D01*
X568529Y842438D01*
X568306Y842532D01*
X568086Y842631D01*
X567868Y842736D01*
X567653Y842845D01*
X567440Y842960D01*
X567230Y843080D01*
X567024Y843205D01*
X566820Y843335D01*
X566619Y843470D01*
X566422Y843610D01*
X566228Y843754D01*
X566038Y843903D01*
X565852Y844057D01*
X565669Y844215D01*
X565490Y844377D01*
X565315Y844544D01*
X565144Y844715D01*
X564977Y844890D01*
X564815Y845069D01*
X564657Y845252D01*
X564503Y845438D01*
X564354Y845628D01*
X564210Y845822D01*
X564070Y846019D01*
X563935Y846220D01*
X563805Y846424D01*
X563680Y846630D01*
X563560Y846840D01*
X563445Y847053D01*
X563336Y847268D01*
X563231Y847486D01*
X563132Y847706D01*
X563038Y847929D01*
X562950Y848154D01*
X562867Y848381D01*
X562789Y848610D01*
X562718Y848841D01*
X562651Y849073D01*
X562591Y849307D01*
X562536Y849542D01*
X562486Y849779D01*
X562443Y850016D01*
X562405Y850255D01*
X562373Y850495D01*
X562347Y850735D01*
X562326Y850976D01*
X562312Y851217D01*
X562303Y851458D01*
X562300Y851700D01*
X562300Y951700D02*
X562303Y951942D01*
X562312Y952183D01*
X562326Y952424D01*
X562347Y952665D01*
X562373Y952905D01*
X562405Y953145D01*
X562443Y953384D01*
X562486Y953621D01*
X562536Y953858D01*
X562591Y954093D01*
X562651Y954327D01*
X562718Y954559D01*
X562789Y954790D01*
X562867Y955019D01*
X562950Y955246D01*
X563038Y955471D01*
X563132Y955694D01*
X563231Y955914D01*
X563336Y956132D01*
X563445Y956347D01*
X563560Y956560D01*
X563680Y956770D01*
X563805Y956976D01*
X563935Y957180D01*
X564070Y957381D01*
X564210Y957578D01*
X564354Y957772D01*
X564503Y957962D01*
X564657Y958148D01*
X564815Y958331D01*
X564977Y958510D01*
X565144Y958685D01*
X565315Y958856D01*
X565490Y959023D01*
X565669Y959185D01*
X565852Y959343D01*
X566038Y959497D01*
X566228Y959646D01*
X566422Y959790D01*
X566619Y959930D01*
X566820Y960065D01*
X567024Y960195D01*
X567230Y960320D01*
X567440Y960440D01*
X567653Y960555D01*
X567868Y960664D01*
X568086Y960769D01*
X568306Y960868D01*
X568529Y960962D01*
X568754Y961050D01*
X568981Y961133D01*
X569210Y961211D01*
X569441Y961282D01*
X569673Y961349D01*
X569907Y961409D01*
X570142Y961464D01*
X570379Y961514D01*
X570616Y961557D01*
X570855Y961595D01*
X571095Y961627D01*
X571335Y961653D01*
X571576Y961674D01*
X571817Y961688D01*
X572058Y961697D01*
X572300Y961700D01*
X672300Y961700D01*
X672542Y961697D01*
X672783Y961688D01*
X673024Y961674D01*
X673265Y961653D01*
X673505Y961627D01*
X673745Y961595D01*
X673984Y961557D01*
X674221Y961514D01*
X674458Y961464D01*
X674693Y961409D01*
X674927Y961349D01*
X675159Y961282D01*
X675390Y961211D01*
X675619Y961133D01*
X675846Y961050D01*
X676071Y960962D01*
X676294Y960868D01*
X676514Y960769D01*
X676732Y960664D01*
X676947Y960555D01*
X677160Y960440D01*
X677370Y960320D01*
X677576Y960195D01*
X677780Y960065D01*
X677981Y959930D01*
X678178Y959790D01*
X678372Y959646D01*
X678562Y959497D01*
X678748Y959343D01*
X678931Y959185D01*
X679110Y959023D01*
X679285Y958856D01*
X679456Y958685D01*
X679623Y958510D01*
X679785Y958331D01*
X679943Y958148D01*
X680097Y957962D01*
X680246Y957772D01*
X680390Y957578D01*
X680530Y957381D01*
X680665Y957180D01*
X680795Y956976D01*
X680920Y956770D01*
X681040Y956560D01*
X681155Y956347D01*
X681264Y956132D01*
X681369Y955914D01*
X681468Y955694D01*
X681562Y955471D01*
X681650Y955246D01*
X681733Y955019D01*
X681811Y954790D01*
X681882Y954559D01*
X681949Y954327D01*
X682009Y954093D01*
X682064Y953858D01*
X682114Y953621D01*
X682157Y953384D01*
X682195Y953145D01*
X682227Y952905D01*
X682253Y952665D01*
X682274Y952424D01*
X682288Y952183D01*
X682297Y951942D01*
X682300Y951700D01*
X586945Y901700D02*
X586956Y902568D01*
X586988Y903435D01*
X587041Y904301D01*
X587115Y905165D01*
X587211Y906028D01*
X587328Y906888D01*
X587466Y907744D01*
X587624Y908597D01*
X587804Y909446D01*
X588005Y910291D01*
X588226Y911130D01*
X588467Y911963D01*
X588729Y912790D01*
X589012Y913611D01*
X589314Y914424D01*
X589636Y915230D01*
X589978Y916027D01*
X590339Y916816D01*
X590720Y917596D01*
X591120Y918366D01*
X591538Y919126D01*
X591975Y919876D01*
X592430Y920615D01*
X592903Y921342D01*
X593394Y922058D01*
X593903Y922761D01*
X594428Y923452D01*
X594970Y924129D01*
X595529Y924793D01*
X596104Y925443D01*
X596694Y926079D01*
X597300Y926700D01*
X597921Y927306D01*
X598557Y927896D01*
X599207Y928471D01*
X599871Y929030D01*
X600548Y929572D01*
X601239Y930097D01*
X601942Y930606D01*
X602658Y931097D01*
X603385Y931570D01*
X604124Y932025D01*
X604874Y932462D01*
X605634Y932880D01*
X606404Y933280D01*
X607184Y933661D01*
X607973Y934022D01*
X608770Y934364D01*
X609576Y934686D01*
X610389Y934988D01*
X611210Y935271D01*
X612037Y935533D01*
X612870Y935774D01*
X613709Y935995D01*
X614554Y936196D01*
X615403Y936376D01*
X616256Y936534D01*
X617112Y936672D01*
X617972Y936789D01*
X618835Y936885D01*
X619699Y936959D01*
X620565Y937012D01*
X621432Y937044D01*
X622300Y937055D01*
X623168Y937044D01*
X624035Y937012D01*
X624901Y936959D01*
X625765Y936885D01*
X626628Y936789D01*
X627488Y936672D01*
X628344Y936534D01*
X629197Y936376D01*
X630046Y936196D01*
X630891Y935995D01*
X631730Y935774D01*
X632563Y935533D01*
X633390Y935271D01*
X634211Y934988D01*
X635024Y934686D01*
X635830Y934364D01*
X636627Y934022D01*
X637416Y933661D01*
X638196Y933280D01*
X638966Y932880D01*
X639726Y932462D01*
X640476Y932025D01*
X641215Y931570D01*
X641942Y931097D01*
X642658Y930606D01*
X643361Y930097D01*
X644052Y929572D01*
X644729Y929030D01*
X645393Y928471D01*
X646043Y927896D01*
X646679Y927306D01*
X647300Y926700D01*
X647906Y926079D01*
X648496Y925443D01*
X649071Y924793D01*
X649630Y924129D01*
X650172Y923452D01*
X650697Y922761D01*
X651206Y922058D01*
X651697Y921342D01*
X652170Y920615D01*
X652625Y919876D01*
X653062Y919126D01*
X653480Y918366D01*
X653880Y917596D01*
X654261Y916816D01*
X654622Y916027D01*
X654964Y915230D01*
X655286Y914424D01*
X655588Y913611D01*
X655871Y912790D01*
X656133Y911963D01*
X656374Y911130D01*
X656595Y910291D01*
X656796Y909446D01*
X656976Y908597D01*
X657134Y907744D01*
X657272Y906888D01*
X657389Y906028D01*
X657485Y905165D01*
X657559Y904301D01*
X657612Y903435D01*
X657644Y902568D01*
X657655Y901700D01*
X657644Y900832D01*
X657612Y899965D01*
X657559Y899099D01*
X657485Y898235D01*
X657389Y897372D01*
X657272Y896512D01*
X657134Y895656D01*
X656976Y894803D01*
X656796Y893954D01*
X656595Y893109D01*
X656374Y892270D01*
X656133Y891437D01*
X655871Y890610D01*
X655588Y889789D01*
X655286Y888976D01*
X654964Y888170D01*
X654622Y887373D01*
X654261Y886584D01*
X653880Y885804D01*
X653480Y885034D01*
X653062Y884274D01*
X652625Y883524D01*
X652170Y882785D01*
X651697Y882058D01*
X651206Y881342D01*
X650697Y880639D01*
X650172Y879948D01*
X649630Y879271D01*
X649071Y878607D01*
X648496Y877957D01*
X647906Y877321D01*
X647300Y876700D01*
X646679Y876094D01*
X646043Y875504D01*
X645393Y874929D01*
X644729Y874370D01*
X644052Y873828D01*
X643361Y873303D01*
X642658Y872794D01*
X641942Y872303D01*
X641215Y871830D01*
X640476Y871375D01*
X639726Y870938D01*
X638966Y870520D01*
X638196Y870120D01*
X637416Y869739D01*
X636627Y869378D01*
X635830Y869036D01*
X635024Y868714D01*
X634211Y868412D01*
X633390Y868129D01*
X632563Y867867D01*
X631730Y867626D01*
X630891Y867405D01*
X630046Y867204D01*
X629197Y867024D01*
X628344Y866866D01*
X627488Y866728D01*
X626628Y866611D01*
X625765Y866515D01*
X624901Y866441D01*
X624035Y866388D01*
X623168Y866356D01*
X622300Y866345D01*
X621432Y866356D01*
X620565Y866388D01*
X619699Y866441D01*
X618835Y866515D01*
X617972Y866611D01*
X617112Y866728D01*
X616256Y866866D01*
X615403Y867024D01*
X614554Y867204D01*
X613709Y867405D01*
X612870Y867626D01*
X612037Y867867D01*
X611210Y868129D01*
X610389Y868412D01*
X609576Y868714D01*
X608770Y869036D01*
X607973Y869378D01*
X607184Y869739D01*
X606404Y870120D01*
X605634Y870520D01*
X604874Y870938D01*
X604124Y871375D01*
X603385Y871830D01*
X602658Y872303D01*
X601942Y872794D01*
X601239Y873303D01*
X600548Y873828D01*
X599871Y874370D01*
X599207Y874929D01*
X598557Y875504D01*
X597921Y876094D01*
X597300Y876700D01*
X596694Y877321D01*
X596104Y877957D01*
X595529Y878607D01*
X594970Y879271D01*
X594428Y879948D01*
X593903Y880639D01*
X593394Y881342D01*
X592903Y882058D01*
X592430Y882785D01*
X591975Y883524D01*
X591538Y884274D01*
X591120Y885034D01*
X590720Y885804D01*
X590339Y886584D01*
X589978Y887373D01*
X589636Y888170D01*
X589314Y888976D01*
X589012Y889789D01*
X588729Y890610D01*
X588467Y891437D01*
X588226Y892270D01*
X588005Y893109D01*
X587804Y893954D01*
X587624Y894803D01*
X587466Y895656D01*
X587328Y896512D01*
X587211Y897372D01*
X587115Y898235D01*
X587041Y899099D01*
X586988Y899965D01*
X586956Y900832D01*
X586945Y901700D01*
X602300Y921700D02*
X642300Y921700D01*
X642300Y881700D01*
X602300Y881700D01*
X602300Y921700D01*
X562300Y939200D02*
X562300Y951700D01*
X562300Y914200D02*
X562300Y889200D01*
X562300Y864200D02*
X562300Y851700D01*
X682300Y939200D02*
X682300Y951700D01*
X682300Y914200D02*
X682300Y889200D01*
X682300Y864200D02*
X682300Y851700D01*
D11*
X500380Y901700D02*
X490220Y901700D01*
X807720Y114300D02*
X817880Y114300D01*
X1080300Y100800D02*
X1080300Y50800D01*
X1080300Y140800D02*
X1080300Y175800D01*
X1180300Y175800D01*
X1180300Y140800D01*
X1180300Y100800D02*
X1180300Y50800D01*
X1170300Y50800D01*
X1090300Y50800D02*
X1080300Y50800D01*
X1100300Y120800D02*
X1100309Y121536D01*
X1100336Y122272D01*
X1100381Y123007D01*
X1100444Y123741D01*
X1100526Y124472D01*
X1100625Y125202D01*
X1100742Y125929D01*
X1100876Y126653D01*
X1101029Y127373D01*
X1101199Y128089D01*
X1101387Y128801D01*
X1101592Y129509D01*
X1101814Y130210D01*
X1102054Y130907D01*
X1102310Y131597D01*
X1102584Y132281D01*
X1102874Y132957D01*
X1103180Y133627D01*
X1103503Y134288D01*
X1103842Y134942D01*
X1104197Y135587D01*
X1104568Y136223D01*
X1104954Y136850D01*
X1105356Y137467D01*
X1105772Y138074D01*
X1106204Y138671D01*
X1106650Y139257D01*
X1107110Y139832D01*
X1107584Y140395D01*
X1108071Y140947D01*
X1108573Y141486D01*
X1109087Y142013D01*
X1109614Y142527D01*
X1110153Y143029D01*
X1110705Y143516D01*
X1111268Y143990D01*
X1111843Y144450D01*
X1112429Y144896D01*
X1113026Y145328D01*
X1113633Y145744D01*
X1114250Y146146D01*
X1114877Y146532D01*
X1115513Y146903D01*
X1116158Y147258D01*
X1116812Y147597D01*
X1117473Y147920D01*
X1118143Y148226D01*
X1118819Y148516D01*
X1119503Y148790D01*
X1120193Y149046D01*
X1120890Y149286D01*
X1121591Y149508D01*
X1122299Y149713D01*
X1123011Y149901D01*
X1123727Y150071D01*
X1124447Y150224D01*
X1125171Y150358D01*
X1125898Y150475D01*
X1126628Y150574D01*
X1127359Y150656D01*
X1128093Y150719D01*
X1128828Y150764D01*
X1129564Y150791D01*
X1130300Y150800D01*
X1131036Y150791D01*
X1131772Y150764D01*
X1132507Y150719D01*
X1133241Y150656D01*
X1133972Y150574D01*
X1134702Y150475D01*
X1135429Y150358D01*
X1136153Y150224D01*
X1136873Y150071D01*
X1137589Y149901D01*
X1138301Y149713D01*
X1139009Y149508D01*
X1139710Y149286D01*
X1140407Y149046D01*
X1141097Y148790D01*
X1141781Y148516D01*
X1142457Y148226D01*
X1143127Y147920D01*
X1143788Y147597D01*
X1144442Y147258D01*
X1145087Y146903D01*
X1145723Y146532D01*
X1146350Y146146D01*
X1146967Y145744D01*
X1147574Y145328D01*
X1148171Y144896D01*
X1148757Y144450D01*
X1149332Y143990D01*
X1149895Y143516D01*
X1150447Y143029D01*
X1150986Y142527D01*
X1151513Y142013D01*
X1152027Y141486D01*
X1152529Y140947D01*
X1153016Y140395D01*
X1153490Y139832D01*
X1153950Y139257D01*
X1154396Y138671D01*
X1154828Y138074D01*
X1155244Y137467D01*
X1155646Y136850D01*
X1156032Y136223D01*
X1156403Y135587D01*
X1156758Y134942D01*
X1157097Y134288D01*
X1157420Y133627D01*
X1157726Y132957D01*
X1158016Y132281D01*
X1158290Y131597D01*
X1158546Y130907D01*
X1158786Y130210D01*
X1159008Y129509D01*
X1159213Y128801D01*
X1159401Y128089D01*
X1159571Y127373D01*
X1159724Y126653D01*
X1159858Y125929D01*
X1159975Y125202D01*
X1160074Y124472D01*
X1160156Y123741D01*
X1160219Y123007D01*
X1160264Y122272D01*
X1160291Y121536D01*
X1160300Y120800D01*
X1160291Y120064D01*
X1160264Y119328D01*
X1160219Y118593D01*
X1160156Y117859D01*
X1160074Y117128D01*
X1159975Y116398D01*
X1159858Y115671D01*
X1159724Y114947D01*
X1159571Y114227D01*
X1159401Y113511D01*
X1159213Y112799D01*
X1159008Y112091D01*
X1158786Y111390D01*
X1158546Y110693D01*
X1158290Y110003D01*
X1158016Y109319D01*
X1157726Y108643D01*
X1157420Y107973D01*
X1157097Y107312D01*
X1156758Y106658D01*
X1156403Y106013D01*
X1156032Y105377D01*
X1155646Y104750D01*
X1155244Y104133D01*
X1154828Y103526D01*
X1154396Y102929D01*
X1153950Y102343D01*
X1153490Y101768D01*
X1153016Y101205D01*
X1152529Y100653D01*
X1152027Y100114D01*
X1151513Y99587D01*
X1150986Y99073D01*
X1150447Y98571D01*
X1149895Y98084D01*
X1149332Y97610D01*
X1148757Y97150D01*
X1148171Y96704D01*
X1147574Y96272D01*
X1146967Y95856D01*
X1146350Y95454D01*
X1145723Y95068D01*
X1145087Y94697D01*
X1144442Y94342D01*
X1143788Y94003D01*
X1143127Y93680D01*
X1142457Y93374D01*
X1141781Y93084D01*
X1141097Y92810D01*
X1140407Y92554D01*
X1139710Y92314D01*
X1139009Y92092D01*
X1138301Y91887D01*
X1137589Y91699D01*
X1136873Y91529D01*
X1136153Y91376D01*
X1135429Y91242D01*
X1134702Y91125D01*
X1133972Y91026D01*
X1133241Y90944D01*
X1132507Y90881D01*
X1131772Y90836D01*
X1131036Y90809D01*
X1130300Y90800D01*
X1129564Y90809D01*
X1128828Y90836D01*
X1128093Y90881D01*
X1127359Y90944D01*
X1126628Y91026D01*
X1125898Y91125D01*
X1125171Y91242D01*
X1124447Y91376D01*
X1123727Y91529D01*
X1123011Y91699D01*
X1122299Y91887D01*
X1121591Y92092D01*
X1120890Y92314D01*
X1120193Y92554D01*
X1119503Y92810D01*
X1118819Y93084D01*
X1118143Y93374D01*
X1117473Y93680D01*
X1116812Y94003D01*
X1116158Y94342D01*
X1115513Y94697D01*
X1114877Y95068D01*
X1114250Y95454D01*
X1113633Y95856D01*
X1113026Y96272D01*
X1112429Y96704D01*
X1111843Y97150D01*
X1111268Y97610D01*
X1110705Y98084D01*
X1110153Y98571D01*
X1109614Y99073D01*
X1109087Y99587D01*
X1108573Y100114D01*
X1108071Y100653D01*
X1107584Y101205D01*
X1107110Y101768D01*
X1106650Y102343D01*
X1106204Y102929D01*
X1105772Y103526D01*
X1105356Y104133D01*
X1104954Y104750D01*
X1104568Y105377D01*
X1104197Y106013D01*
X1103842Y106658D01*
X1103503Y107312D01*
X1103180Y107973D01*
X1102874Y108643D01*
X1102584Y109319D01*
X1102310Y110003D01*
X1102054Y110693D01*
X1101814Y111390D01*
X1101592Y112091D01*
X1101387Y112799D01*
X1101199Y113511D01*
X1101029Y114227D01*
X1100876Y114947D01*
X1100742Y115671D01*
X1100625Y116398D01*
X1100526Y117128D01*
X1100444Y117859D01*
X1100381Y118593D01*
X1100336Y119328D01*
X1100309Y120064D01*
X1100300Y120800D01*
D12*
X974400Y64300D02*
X974397Y64058D01*
X974388Y63817D01*
X974374Y63576D01*
X974353Y63335D01*
X974327Y63095D01*
X974295Y62855D01*
X974257Y62616D01*
X974214Y62379D01*
X974164Y62142D01*
X974109Y61907D01*
X974049Y61673D01*
X973982Y61441D01*
X973911Y61210D01*
X973833Y60981D01*
X973750Y60754D01*
X973662Y60529D01*
X973568Y60306D01*
X973469Y60086D01*
X973364Y59868D01*
X973255Y59653D01*
X973140Y59440D01*
X973020Y59230D01*
X972895Y59024D01*
X972765Y58820D01*
X972630Y58619D01*
X972490Y58422D01*
X972346Y58228D01*
X972197Y58038D01*
X972043Y57852D01*
X971885Y57669D01*
X971723Y57490D01*
X971556Y57315D01*
X971385Y57144D01*
X971210Y56977D01*
X971031Y56815D01*
X970848Y56657D01*
X970662Y56503D01*
X970472Y56354D01*
X970278Y56210D01*
X970081Y56070D01*
X969880Y55935D01*
X969676Y55805D01*
X969470Y55680D01*
X969260Y55560D01*
X969047Y55445D01*
X968832Y55336D01*
X968614Y55231D01*
X968394Y55132D01*
X968171Y55038D01*
X967946Y54950D01*
X967719Y54867D01*
X967490Y54789D01*
X967259Y54718D01*
X967027Y54651D01*
X966793Y54591D01*
X966558Y54536D01*
X966321Y54486D01*
X966084Y54443D01*
X965845Y54405D01*
X965605Y54373D01*
X965365Y54347D01*
X965124Y54326D01*
X964883Y54312D01*
X964642Y54303D01*
X964400Y54300D01*
X864400Y54300D01*
X864158Y54303D01*
X863917Y54312D01*
X863676Y54326D01*
X863435Y54347D01*
X863195Y54373D01*
X862955Y54405D01*
X862716Y54443D01*
X862479Y54486D01*
X862242Y54536D01*
X862007Y54591D01*
X861773Y54651D01*
X861541Y54718D01*
X861310Y54789D01*
X861081Y54867D01*
X860854Y54950D01*
X860629Y55038D01*
X860406Y55132D01*
X860186Y55231D01*
X859968Y55336D01*
X859753Y55445D01*
X859540Y55560D01*
X859330Y55680D01*
X859124Y55805D01*
X858920Y55935D01*
X858719Y56070D01*
X858522Y56210D01*
X858328Y56354D01*
X858138Y56503D01*
X857952Y56657D01*
X857769Y56815D01*
X857590Y56977D01*
X857415Y57144D01*
X857244Y57315D01*
X857077Y57490D01*
X856915Y57669D01*
X856757Y57852D01*
X856603Y58038D01*
X856454Y58228D01*
X856310Y58422D01*
X856170Y58619D01*
X856035Y58820D01*
X855905Y59024D01*
X855780Y59230D01*
X855660Y59440D01*
X855545Y59653D01*
X855436Y59868D01*
X855331Y60086D01*
X855232Y60306D01*
X855138Y60529D01*
X855050Y60754D01*
X854967Y60981D01*
X854889Y61210D01*
X854818Y61441D01*
X854751Y61673D01*
X854691Y61907D01*
X854636Y62142D01*
X854586Y62379D01*
X854543Y62616D01*
X854505Y62855D01*
X854473Y63095D01*
X854447Y63335D01*
X854426Y63576D01*
X854412Y63817D01*
X854403Y64058D01*
X854400Y64300D01*
X854400Y164300D02*
X854403Y164542D01*
X854412Y164783D01*
X854426Y165024D01*
X854447Y165265D01*
X854473Y165505D01*
X854505Y165745D01*
X854543Y165984D01*
X854586Y166221D01*
X854636Y166458D01*
X854691Y166693D01*
X854751Y166927D01*
X854818Y167159D01*
X854889Y167390D01*
X854967Y167619D01*
X855050Y167846D01*
X855138Y168071D01*
X855232Y168294D01*
X855331Y168514D01*
X855436Y168732D01*
X855545Y168947D01*
X855660Y169160D01*
X855780Y169370D01*
X855905Y169576D01*
X856035Y169780D01*
X856170Y169981D01*
X856310Y170178D01*
X856454Y170372D01*
X856603Y170562D01*
X856757Y170748D01*
X856915Y170931D01*
X857077Y171110D01*
X857244Y171285D01*
X857415Y171456D01*
X857590Y171623D01*
X857769Y171785D01*
X857952Y171943D01*
X858138Y172097D01*
X858328Y172246D01*
X858522Y172390D01*
X858719Y172530D01*
X858920Y172665D01*
X859124Y172795D01*
X859330Y172920D01*
X859540Y173040D01*
X859753Y173155D01*
X859968Y173264D01*
X860186Y173369D01*
X860406Y173468D01*
X860629Y173562D01*
X860854Y173650D01*
X861081Y173733D01*
X861310Y173811D01*
X861541Y173882D01*
X861773Y173949D01*
X862007Y174009D01*
X862242Y174064D01*
X862479Y174114D01*
X862716Y174157D01*
X862955Y174195D01*
X863195Y174227D01*
X863435Y174253D01*
X863676Y174274D01*
X863917Y174288D01*
X864158Y174297D01*
X864400Y174300D01*
X964400Y174300D01*
X964642Y174297D01*
X964883Y174288D01*
X965124Y174274D01*
X965365Y174253D01*
X965605Y174227D01*
X965845Y174195D01*
X966084Y174157D01*
X966321Y174114D01*
X966558Y174064D01*
X966793Y174009D01*
X967027Y173949D01*
X967259Y173882D01*
X967490Y173811D01*
X967719Y173733D01*
X967946Y173650D01*
X968171Y173562D01*
X968394Y173468D01*
X968614Y173369D01*
X968832Y173264D01*
X969047Y173155D01*
X969260Y173040D01*
X969470Y172920D01*
X969676Y172795D01*
X969880Y172665D01*
X970081Y172530D01*
X970278Y172390D01*
X970472Y172246D01*
X970662Y172097D01*
X970848Y171943D01*
X971031Y171785D01*
X971210Y171623D01*
X971385Y171456D01*
X971556Y171285D01*
X971723Y171110D01*
X971885Y170931D01*
X972043Y170748D01*
X972197Y170562D01*
X972346Y170372D01*
X972490Y170178D01*
X972630Y169981D01*
X972765Y169780D01*
X972895Y169576D01*
X973020Y169370D01*
X973140Y169160D01*
X973255Y168947D01*
X973364Y168732D01*
X973469Y168514D01*
X973568Y168294D01*
X973662Y168071D01*
X973750Y167846D01*
X973833Y167619D01*
X973911Y167390D01*
X973982Y167159D01*
X974049Y166927D01*
X974109Y166693D01*
X974164Y166458D01*
X974214Y166221D01*
X974257Y165984D01*
X974295Y165745D01*
X974327Y165505D01*
X974353Y165265D01*
X974374Y165024D01*
X974388Y164783D01*
X974397Y164542D01*
X974400Y164300D01*
X879045Y114300D02*
X879056Y115168D01*
X879088Y116035D01*
X879141Y116901D01*
X879215Y117765D01*
X879311Y118628D01*
X879428Y119488D01*
X879566Y120344D01*
X879724Y121197D01*
X879904Y122046D01*
X880105Y122891D01*
X880326Y123730D01*
X880567Y124563D01*
X880829Y125390D01*
X881112Y126211D01*
X881414Y127024D01*
X881736Y127830D01*
X882078Y128627D01*
X882439Y129416D01*
X882820Y130196D01*
X883220Y130966D01*
X883638Y131726D01*
X884075Y132476D01*
X884530Y133215D01*
X885003Y133942D01*
X885494Y134658D01*
X886003Y135361D01*
X886528Y136052D01*
X887070Y136729D01*
X887629Y137393D01*
X888204Y138043D01*
X888794Y138679D01*
X889400Y139300D01*
X890021Y139906D01*
X890657Y140496D01*
X891307Y141071D01*
X891971Y141630D01*
X892648Y142172D01*
X893339Y142697D01*
X894042Y143206D01*
X894758Y143697D01*
X895485Y144170D01*
X896224Y144625D01*
X896974Y145062D01*
X897734Y145480D01*
X898504Y145880D01*
X899284Y146261D01*
X900073Y146622D01*
X900870Y146964D01*
X901676Y147286D01*
X902489Y147588D01*
X903310Y147871D01*
X904137Y148133D01*
X904970Y148374D01*
X905809Y148595D01*
X906654Y148796D01*
X907503Y148976D01*
X908356Y149134D01*
X909212Y149272D01*
X910072Y149389D01*
X910935Y149485D01*
X911799Y149559D01*
X912665Y149612D01*
X913532Y149644D01*
X914400Y149655D01*
X915268Y149644D01*
X916135Y149612D01*
X917001Y149559D01*
X917865Y149485D01*
X918728Y149389D01*
X919588Y149272D01*
X920444Y149134D01*
X921297Y148976D01*
X922146Y148796D01*
X922991Y148595D01*
X923830Y148374D01*
X924663Y148133D01*
X925490Y147871D01*
X926311Y147588D01*
X927124Y147286D01*
X927930Y146964D01*
X928727Y146622D01*
X929516Y146261D01*
X930296Y145880D01*
X931066Y145480D01*
X931826Y145062D01*
X932576Y144625D01*
X933315Y144170D01*
X934042Y143697D01*
X934758Y143206D01*
X935461Y142697D01*
X936152Y142172D01*
X936829Y141630D01*
X937493Y141071D01*
X938143Y140496D01*
X938779Y139906D01*
X939400Y139300D01*
X940006Y138679D01*
X940596Y138043D01*
X941171Y137393D01*
X941730Y136729D01*
X942272Y136052D01*
X942797Y135361D01*
X943306Y134658D01*
X943797Y133942D01*
X944270Y133215D01*
X944725Y132476D01*
X945162Y131726D01*
X945580Y130966D01*
X945980Y130196D01*
X946361Y129416D01*
X946722Y128627D01*
X947064Y127830D01*
X947386Y127024D01*
X947688Y126211D01*
X947971Y125390D01*
X948233Y124563D01*
X948474Y123730D01*
X948695Y122891D01*
X948896Y122046D01*
X949076Y121197D01*
X949234Y120344D01*
X949372Y119488D01*
X949489Y118628D01*
X949585Y117765D01*
X949659Y116901D01*
X949712Y116035D01*
X949744Y115168D01*
X949755Y114300D01*
X949744Y113432D01*
X949712Y112565D01*
X949659Y111699D01*
X949585Y110835D01*
X949489Y109972D01*
X949372Y109112D01*
X949234Y108256D01*
X949076Y107403D01*
X948896Y106554D01*
X948695Y105709D01*
X948474Y104870D01*
X948233Y104037D01*
X947971Y103210D01*
X947688Y102389D01*
X947386Y101576D01*
X947064Y100770D01*
X946722Y99973D01*
X946361Y99184D01*
X945980Y98404D01*
X945580Y97634D01*
X945162Y96874D01*
X944725Y96124D01*
X944270Y95385D01*
X943797Y94658D01*
X943306Y93942D01*
X942797Y93239D01*
X942272Y92548D01*
X941730Y91871D01*
X941171Y91207D01*
X940596Y90557D01*
X940006Y89921D01*
X939400Y89300D01*
X938779Y88694D01*
X938143Y88104D01*
X937493Y87529D01*
X936829Y86970D01*
X936152Y86428D01*
X935461Y85903D01*
X934758Y85394D01*
X934042Y84903D01*
X933315Y84430D01*
X932576Y83975D01*
X931826Y83538D01*
X931066Y83120D01*
X930296Y82720D01*
X929516Y82339D01*
X928727Y81978D01*
X927930Y81636D01*
X927124Y81314D01*
X926311Y81012D01*
X925490Y80729D01*
X924663Y80467D01*
X923830Y80226D01*
X922991Y80005D01*
X922146Y79804D01*
X921297Y79624D01*
X920444Y79466D01*
X919588Y79328D01*
X918728Y79211D01*
X917865Y79115D01*
X917001Y79041D01*
X916135Y78988D01*
X915268Y78956D01*
X914400Y78945D01*
X913532Y78956D01*
X912665Y78988D01*
X911799Y79041D01*
X910935Y79115D01*
X910072Y79211D01*
X909212Y79328D01*
X908356Y79466D01*
X907503Y79624D01*
X906654Y79804D01*
X905809Y80005D01*
X904970Y80226D01*
X904137Y80467D01*
X903310Y80729D01*
X902489Y81012D01*
X901676Y81314D01*
X900870Y81636D01*
X900073Y81978D01*
X899284Y82339D01*
X898504Y82720D01*
X897734Y83120D01*
X896974Y83538D01*
X896224Y83975D01*
X895485Y84430D01*
X894758Y84903D01*
X894042Y85394D01*
X893339Y85903D01*
X892648Y86428D01*
X891971Y86970D01*
X891307Y87529D01*
X890657Y88104D01*
X890021Y88694D01*
X889400Y89300D01*
X888794Y89921D01*
X888204Y90557D01*
X887629Y91207D01*
X887070Y91871D01*
X886528Y92548D01*
X886003Y93239D01*
X885494Y93942D01*
X885003Y94658D01*
X884530Y95385D01*
X884075Y96124D01*
X883638Y96874D01*
X883220Y97634D01*
X882820Y98404D01*
X882439Y99184D01*
X882078Y99973D01*
X881736Y100770D01*
X881414Y101576D01*
X881112Y102389D01*
X880829Y103210D01*
X880567Y104037D01*
X880326Y104870D01*
X880105Y105709D01*
X879904Y106554D01*
X879724Y107403D01*
X879566Y108256D01*
X879428Y109112D01*
X879311Y109972D01*
X879215Y110835D01*
X879141Y111699D01*
X879088Y112565D01*
X879056Y113432D01*
X879045Y114300D01*
X894400Y134300D02*
X934400Y134300D01*
X934400Y94300D01*
X894400Y94300D01*
X894400Y134300D01*
X854400Y151800D02*
X854400Y164300D01*
X854400Y126800D02*
X854400Y101800D01*
X854400Y76800D02*
X854400Y64300D01*
X974400Y151800D02*
X974400Y164300D01*
X974400Y126800D02*
X974400Y101800D01*
X974400Y76800D02*
X974400Y64300D01*
D11*
X571880Y116760D02*
X555880Y116760D01*
X555880Y106760D02*
X571880Y106760D01*
X565880Y109760D02*
X565880Y113760D01*
X439800Y119300D02*
X423800Y119300D01*
X423800Y109300D02*
X439800Y109300D01*
X433800Y112300D02*
X433800Y116300D01*
M02*
