G04 EAGLE Gerber RS-274X export*
G75*
%MOMM*%
%FSLAX34Y34*%
%LPD*%
%INSoldermask Top*%
%IPPOS*%
%AMOC8*
5,1,8,0,0,1.08239X$1,22.5*%
G01*
%ADD10R,1.676400X1.676400*%
%ADD11P,1.814519X8X202.500000*%
%ADD12C,1.552400*%
%ADD13C,4.168400*%
%ADD14R,0.952400X0.952400*%
%ADD15C,2.652400*%
%ADD16C,2.112400*%
%ADD17R,1.440400X1.440400*%
%ADD18C,1.440400*%
%ADD19C,3.372400*%
%ADD20R,1.183641X1.102359*%
%ADD21C,4.597400*%
%ADD22C,0.609600*%
%ADD23C,1.168400*%
%ADD24R,1.295400X1.422400*%


D10*
X817200Y314700D03*
D11*
X817200Y340100D03*
X791800Y314700D03*
X791800Y340100D03*
X766400Y314700D03*
X766400Y340100D03*
X741000Y314700D03*
X741000Y340100D03*
X715600Y314700D03*
X715600Y340100D03*
X690200Y314700D03*
X690200Y340100D03*
X664800Y314700D03*
X664800Y340100D03*
X639400Y314700D03*
X639400Y340100D03*
X614000Y314700D03*
X614000Y340100D03*
X588600Y314700D03*
X588600Y340100D03*
X563200Y314700D03*
X563200Y340100D03*
X537800Y314700D03*
X537800Y340100D03*
X512400Y314700D03*
X512400Y340100D03*
X487000Y314700D03*
X487000Y340100D03*
X461600Y314700D03*
X461600Y340100D03*
X436200Y314700D03*
X436200Y340100D03*
X410800Y314700D03*
X410800Y340100D03*
X385400Y314700D03*
X385400Y340100D03*
D10*
X817200Y568700D03*
D11*
X817200Y594100D03*
X791800Y568700D03*
X791800Y594100D03*
X766400Y568700D03*
X766400Y594100D03*
X741000Y568700D03*
X741000Y594100D03*
X715600Y568700D03*
X715600Y594100D03*
X690200Y568700D03*
X690200Y594100D03*
X664800Y568700D03*
X664800Y594100D03*
X639400Y568700D03*
X639400Y594100D03*
X614000Y568700D03*
X614000Y594100D03*
X588600Y568700D03*
X588600Y594100D03*
X563200Y568700D03*
X563200Y594100D03*
X537800Y568700D03*
X537800Y594100D03*
X512400Y568700D03*
X512400Y594100D03*
X487000Y568700D03*
X487000Y594100D03*
X461600Y568700D03*
X461600Y594100D03*
X436200Y568700D03*
X436200Y594100D03*
X410800Y568700D03*
X410800Y594100D03*
X385400Y568700D03*
X385400Y594100D03*
D12*
X254000Y723900D03*
X254000Y749300D03*
X254000Y698500D03*
X254000Y673100D03*
X254000Y647700D03*
X254000Y596900D03*
X254000Y622300D03*
X254000Y571500D03*
X254000Y546100D03*
X254000Y520700D03*
X254000Y469900D03*
X254000Y495300D03*
X254000Y444500D03*
X254000Y419100D03*
X254000Y393700D03*
X254000Y342900D03*
X254000Y368300D03*
X254000Y317500D03*
X254000Y292100D03*
X254000Y266700D03*
X1016000Y749300D03*
X1016000Y723900D03*
X1016000Y698500D03*
X1016000Y673100D03*
X1016000Y647700D03*
X1016000Y622300D03*
X1016000Y596900D03*
X1016000Y571500D03*
X1016000Y546100D03*
X1016000Y520700D03*
X1016000Y495300D03*
X1016000Y469900D03*
X1016000Y444500D03*
X1016000Y419100D03*
X1016000Y393700D03*
X1016000Y368300D03*
X1016000Y342900D03*
X1016000Y317500D03*
X1016000Y292100D03*
X1016000Y266700D03*
D13*
X254000Y222250D03*
X254000Y793750D03*
X1016000Y222250D03*
X1016000Y793750D03*
D14*
X688460Y111760D03*
X703460Y111760D03*
D12*
X114700Y50800D03*
X139700Y50800D03*
X164700Y50800D03*
D15*
X89700Y120800D03*
X189700Y120800D03*
D16*
X684800Y926700D03*
X684800Y876700D03*
X559800Y876700D03*
X559800Y926700D03*
D17*
X1143000Y590550D03*
D18*
X1143000Y565550D03*
X1143000Y545550D03*
X1143000Y520550D03*
D19*
X1170100Y621250D03*
X1170100Y489850D03*
D20*
X495300Y909701D03*
X495300Y893699D03*
X812800Y106299D03*
X812800Y122301D03*
D12*
X1105300Y50800D03*
X1130300Y50800D03*
X1155300Y50800D03*
D15*
X1080300Y120800D03*
X1180300Y120800D03*
D16*
X976900Y139300D03*
X976900Y89300D03*
X851900Y89300D03*
X851900Y139300D03*
D14*
X556380Y111760D03*
X571380Y111760D03*
X424300Y114300D03*
X439300Y114300D03*
D21*
X38100Y38100D03*
X38100Y977900D03*
X1231900Y977900D03*
X1231900Y38100D03*
D22*
X1186180Y38100D02*
X1186182Y38287D01*
X1186189Y38474D01*
X1186201Y38661D01*
X1186217Y38847D01*
X1186237Y39033D01*
X1186262Y39218D01*
X1186292Y39403D01*
X1186326Y39587D01*
X1186365Y39770D01*
X1186408Y39952D01*
X1186456Y40132D01*
X1186508Y40312D01*
X1186565Y40490D01*
X1186625Y40667D01*
X1186691Y40842D01*
X1186760Y41016D01*
X1186834Y41188D01*
X1186912Y41358D01*
X1186994Y41526D01*
X1187080Y41692D01*
X1187170Y41856D01*
X1187264Y42017D01*
X1187362Y42177D01*
X1187464Y42333D01*
X1187570Y42488D01*
X1187680Y42639D01*
X1187793Y42788D01*
X1187910Y42934D01*
X1188030Y43077D01*
X1188154Y43217D01*
X1188281Y43354D01*
X1188412Y43488D01*
X1188546Y43619D01*
X1188683Y43746D01*
X1188823Y43870D01*
X1188966Y43990D01*
X1189112Y44107D01*
X1189261Y44220D01*
X1189412Y44330D01*
X1189567Y44436D01*
X1189723Y44538D01*
X1189883Y44636D01*
X1190044Y44730D01*
X1190208Y44820D01*
X1190374Y44906D01*
X1190542Y44988D01*
X1190712Y45066D01*
X1190884Y45140D01*
X1191058Y45209D01*
X1191233Y45275D01*
X1191410Y45335D01*
X1191588Y45392D01*
X1191768Y45444D01*
X1191948Y45492D01*
X1192130Y45535D01*
X1192313Y45574D01*
X1192497Y45608D01*
X1192682Y45638D01*
X1192867Y45663D01*
X1193053Y45683D01*
X1193239Y45699D01*
X1193426Y45711D01*
X1193613Y45718D01*
X1193800Y45720D01*
X1193987Y45718D01*
X1194174Y45711D01*
X1194361Y45699D01*
X1194547Y45683D01*
X1194733Y45663D01*
X1194918Y45638D01*
X1195103Y45608D01*
X1195287Y45574D01*
X1195470Y45535D01*
X1195652Y45492D01*
X1195832Y45444D01*
X1196012Y45392D01*
X1196190Y45335D01*
X1196367Y45275D01*
X1196542Y45209D01*
X1196716Y45140D01*
X1196888Y45066D01*
X1197058Y44988D01*
X1197226Y44906D01*
X1197392Y44820D01*
X1197556Y44730D01*
X1197717Y44636D01*
X1197877Y44538D01*
X1198033Y44436D01*
X1198188Y44330D01*
X1198339Y44220D01*
X1198488Y44107D01*
X1198634Y43990D01*
X1198777Y43870D01*
X1198917Y43746D01*
X1199054Y43619D01*
X1199188Y43488D01*
X1199319Y43354D01*
X1199446Y43217D01*
X1199570Y43077D01*
X1199690Y42934D01*
X1199807Y42788D01*
X1199920Y42639D01*
X1200030Y42488D01*
X1200136Y42333D01*
X1200238Y42177D01*
X1200336Y42017D01*
X1200430Y41856D01*
X1200520Y41692D01*
X1200606Y41526D01*
X1200688Y41358D01*
X1200766Y41188D01*
X1200840Y41016D01*
X1200909Y40842D01*
X1200975Y40667D01*
X1201035Y40490D01*
X1201092Y40312D01*
X1201144Y40132D01*
X1201192Y39952D01*
X1201235Y39770D01*
X1201274Y39587D01*
X1201308Y39403D01*
X1201338Y39218D01*
X1201363Y39033D01*
X1201383Y38847D01*
X1201399Y38661D01*
X1201411Y38474D01*
X1201418Y38287D01*
X1201420Y38100D01*
X1201418Y37913D01*
X1201411Y37726D01*
X1201399Y37539D01*
X1201383Y37353D01*
X1201363Y37167D01*
X1201338Y36982D01*
X1201308Y36797D01*
X1201274Y36613D01*
X1201235Y36430D01*
X1201192Y36248D01*
X1201144Y36068D01*
X1201092Y35888D01*
X1201035Y35710D01*
X1200975Y35533D01*
X1200909Y35358D01*
X1200840Y35184D01*
X1200766Y35012D01*
X1200688Y34842D01*
X1200606Y34674D01*
X1200520Y34508D01*
X1200430Y34344D01*
X1200336Y34183D01*
X1200238Y34023D01*
X1200136Y33867D01*
X1200030Y33712D01*
X1199920Y33561D01*
X1199807Y33412D01*
X1199690Y33266D01*
X1199570Y33123D01*
X1199446Y32983D01*
X1199319Y32846D01*
X1199188Y32712D01*
X1199054Y32581D01*
X1198917Y32454D01*
X1198777Y32330D01*
X1198634Y32210D01*
X1198488Y32093D01*
X1198339Y31980D01*
X1198188Y31870D01*
X1198033Y31764D01*
X1197877Y31662D01*
X1197717Y31564D01*
X1197556Y31470D01*
X1197392Y31380D01*
X1197226Y31294D01*
X1197058Y31212D01*
X1196888Y31134D01*
X1196716Y31060D01*
X1196542Y30991D01*
X1196367Y30925D01*
X1196190Y30865D01*
X1196012Y30808D01*
X1195832Y30756D01*
X1195652Y30708D01*
X1195470Y30665D01*
X1195287Y30626D01*
X1195103Y30592D01*
X1194918Y30562D01*
X1194733Y30537D01*
X1194547Y30517D01*
X1194361Y30501D01*
X1194174Y30489D01*
X1193987Y30482D01*
X1193800Y30480D01*
X1193613Y30482D01*
X1193426Y30489D01*
X1193239Y30501D01*
X1193053Y30517D01*
X1192867Y30537D01*
X1192682Y30562D01*
X1192497Y30592D01*
X1192313Y30626D01*
X1192130Y30665D01*
X1191948Y30708D01*
X1191768Y30756D01*
X1191588Y30808D01*
X1191410Y30865D01*
X1191233Y30925D01*
X1191058Y30991D01*
X1190884Y31060D01*
X1190712Y31134D01*
X1190542Y31212D01*
X1190374Y31294D01*
X1190208Y31380D01*
X1190044Y31470D01*
X1189883Y31564D01*
X1189723Y31662D01*
X1189567Y31764D01*
X1189412Y31870D01*
X1189261Y31980D01*
X1189112Y32093D01*
X1188966Y32210D01*
X1188823Y32330D01*
X1188683Y32454D01*
X1188546Y32581D01*
X1188412Y32712D01*
X1188281Y32846D01*
X1188154Y32983D01*
X1188030Y33123D01*
X1187910Y33266D01*
X1187793Y33412D01*
X1187680Y33561D01*
X1187570Y33712D01*
X1187464Y33867D01*
X1187362Y34023D01*
X1187264Y34183D01*
X1187170Y34344D01*
X1187080Y34508D01*
X1186994Y34674D01*
X1186912Y34842D01*
X1186834Y35012D01*
X1186760Y35184D01*
X1186691Y35358D01*
X1186625Y35533D01*
X1186565Y35710D01*
X1186508Y35888D01*
X1186456Y36068D01*
X1186408Y36248D01*
X1186365Y36430D01*
X1186326Y36613D01*
X1186292Y36797D01*
X1186262Y36982D01*
X1186237Y37167D01*
X1186217Y37353D01*
X1186201Y37539D01*
X1186189Y37726D01*
X1186182Y37913D01*
X1186180Y38100D01*
D23*
X1193800Y38100D03*
D22*
X68580Y38100D02*
X68582Y38287D01*
X68589Y38474D01*
X68601Y38661D01*
X68617Y38847D01*
X68637Y39033D01*
X68662Y39218D01*
X68692Y39403D01*
X68726Y39587D01*
X68765Y39770D01*
X68808Y39952D01*
X68856Y40132D01*
X68908Y40312D01*
X68965Y40490D01*
X69025Y40667D01*
X69091Y40842D01*
X69160Y41016D01*
X69234Y41188D01*
X69312Y41358D01*
X69394Y41526D01*
X69480Y41692D01*
X69570Y41856D01*
X69664Y42017D01*
X69762Y42177D01*
X69864Y42333D01*
X69970Y42488D01*
X70080Y42639D01*
X70193Y42788D01*
X70310Y42934D01*
X70430Y43077D01*
X70554Y43217D01*
X70681Y43354D01*
X70812Y43488D01*
X70946Y43619D01*
X71083Y43746D01*
X71223Y43870D01*
X71366Y43990D01*
X71512Y44107D01*
X71661Y44220D01*
X71812Y44330D01*
X71967Y44436D01*
X72123Y44538D01*
X72283Y44636D01*
X72444Y44730D01*
X72608Y44820D01*
X72774Y44906D01*
X72942Y44988D01*
X73112Y45066D01*
X73284Y45140D01*
X73458Y45209D01*
X73633Y45275D01*
X73810Y45335D01*
X73988Y45392D01*
X74168Y45444D01*
X74348Y45492D01*
X74530Y45535D01*
X74713Y45574D01*
X74897Y45608D01*
X75082Y45638D01*
X75267Y45663D01*
X75453Y45683D01*
X75639Y45699D01*
X75826Y45711D01*
X76013Y45718D01*
X76200Y45720D01*
X76387Y45718D01*
X76574Y45711D01*
X76761Y45699D01*
X76947Y45683D01*
X77133Y45663D01*
X77318Y45638D01*
X77503Y45608D01*
X77687Y45574D01*
X77870Y45535D01*
X78052Y45492D01*
X78232Y45444D01*
X78412Y45392D01*
X78590Y45335D01*
X78767Y45275D01*
X78942Y45209D01*
X79116Y45140D01*
X79288Y45066D01*
X79458Y44988D01*
X79626Y44906D01*
X79792Y44820D01*
X79956Y44730D01*
X80117Y44636D01*
X80277Y44538D01*
X80433Y44436D01*
X80588Y44330D01*
X80739Y44220D01*
X80888Y44107D01*
X81034Y43990D01*
X81177Y43870D01*
X81317Y43746D01*
X81454Y43619D01*
X81588Y43488D01*
X81719Y43354D01*
X81846Y43217D01*
X81970Y43077D01*
X82090Y42934D01*
X82207Y42788D01*
X82320Y42639D01*
X82430Y42488D01*
X82536Y42333D01*
X82638Y42177D01*
X82736Y42017D01*
X82830Y41856D01*
X82920Y41692D01*
X83006Y41526D01*
X83088Y41358D01*
X83166Y41188D01*
X83240Y41016D01*
X83309Y40842D01*
X83375Y40667D01*
X83435Y40490D01*
X83492Y40312D01*
X83544Y40132D01*
X83592Y39952D01*
X83635Y39770D01*
X83674Y39587D01*
X83708Y39403D01*
X83738Y39218D01*
X83763Y39033D01*
X83783Y38847D01*
X83799Y38661D01*
X83811Y38474D01*
X83818Y38287D01*
X83820Y38100D01*
X83818Y37913D01*
X83811Y37726D01*
X83799Y37539D01*
X83783Y37353D01*
X83763Y37167D01*
X83738Y36982D01*
X83708Y36797D01*
X83674Y36613D01*
X83635Y36430D01*
X83592Y36248D01*
X83544Y36068D01*
X83492Y35888D01*
X83435Y35710D01*
X83375Y35533D01*
X83309Y35358D01*
X83240Y35184D01*
X83166Y35012D01*
X83088Y34842D01*
X83006Y34674D01*
X82920Y34508D01*
X82830Y34344D01*
X82736Y34183D01*
X82638Y34023D01*
X82536Y33867D01*
X82430Y33712D01*
X82320Y33561D01*
X82207Y33412D01*
X82090Y33266D01*
X81970Y33123D01*
X81846Y32983D01*
X81719Y32846D01*
X81588Y32712D01*
X81454Y32581D01*
X81317Y32454D01*
X81177Y32330D01*
X81034Y32210D01*
X80888Y32093D01*
X80739Y31980D01*
X80588Y31870D01*
X80433Y31764D01*
X80277Y31662D01*
X80117Y31564D01*
X79956Y31470D01*
X79792Y31380D01*
X79626Y31294D01*
X79458Y31212D01*
X79288Y31134D01*
X79116Y31060D01*
X78942Y30991D01*
X78767Y30925D01*
X78590Y30865D01*
X78412Y30808D01*
X78232Y30756D01*
X78052Y30708D01*
X77870Y30665D01*
X77687Y30626D01*
X77503Y30592D01*
X77318Y30562D01*
X77133Y30537D01*
X76947Y30517D01*
X76761Y30501D01*
X76574Y30489D01*
X76387Y30482D01*
X76200Y30480D01*
X76013Y30482D01*
X75826Y30489D01*
X75639Y30501D01*
X75453Y30517D01*
X75267Y30537D01*
X75082Y30562D01*
X74897Y30592D01*
X74713Y30626D01*
X74530Y30665D01*
X74348Y30708D01*
X74168Y30756D01*
X73988Y30808D01*
X73810Y30865D01*
X73633Y30925D01*
X73458Y30991D01*
X73284Y31060D01*
X73112Y31134D01*
X72942Y31212D01*
X72774Y31294D01*
X72608Y31380D01*
X72444Y31470D01*
X72283Y31564D01*
X72123Y31662D01*
X71967Y31764D01*
X71812Y31870D01*
X71661Y31980D01*
X71512Y32093D01*
X71366Y32210D01*
X71223Y32330D01*
X71083Y32454D01*
X70946Y32581D01*
X70812Y32712D01*
X70681Y32846D01*
X70554Y32983D01*
X70430Y33123D01*
X70310Y33266D01*
X70193Y33412D01*
X70080Y33561D01*
X69970Y33712D01*
X69864Y33867D01*
X69762Y34023D01*
X69664Y34183D01*
X69570Y34344D01*
X69480Y34508D01*
X69394Y34674D01*
X69312Y34842D01*
X69234Y35012D01*
X69160Y35184D01*
X69091Y35358D01*
X69025Y35533D01*
X68965Y35710D01*
X68908Y35888D01*
X68856Y36068D01*
X68808Y36248D01*
X68765Y36430D01*
X68726Y36613D01*
X68692Y36797D01*
X68662Y36982D01*
X68637Y37167D01*
X68617Y37353D01*
X68601Y37539D01*
X68589Y37726D01*
X68582Y37913D01*
X68580Y38100D01*
D23*
X76200Y38100D03*
D22*
X1186180Y977900D02*
X1186182Y978087D01*
X1186189Y978274D01*
X1186201Y978461D01*
X1186217Y978647D01*
X1186237Y978833D01*
X1186262Y979018D01*
X1186292Y979203D01*
X1186326Y979387D01*
X1186365Y979570D01*
X1186408Y979752D01*
X1186456Y979932D01*
X1186508Y980112D01*
X1186565Y980290D01*
X1186625Y980467D01*
X1186691Y980642D01*
X1186760Y980816D01*
X1186834Y980988D01*
X1186912Y981158D01*
X1186994Y981326D01*
X1187080Y981492D01*
X1187170Y981656D01*
X1187264Y981817D01*
X1187362Y981977D01*
X1187464Y982133D01*
X1187570Y982288D01*
X1187680Y982439D01*
X1187793Y982588D01*
X1187910Y982734D01*
X1188030Y982877D01*
X1188154Y983017D01*
X1188281Y983154D01*
X1188412Y983288D01*
X1188546Y983419D01*
X1188683Y983546D01*
X1188823Y983670D01*
X1188966Y983790D01*
X1189112Y983907D01*
X1189261Y984020D01*
X1189412Y984130D01*
X1189567Y984236D01*
X1189723Y984338D01*
X1189883Y984436D01*
X1190044Y984530D01*
X1190208Y984620D01*
X1190374Y984706D01*
X1190542Y984788D01*
X1190712Y984866D01*
X1190884Y984940D01*
X1191058Y985009D01*
X1191233Y985075D01*
X1191410Y985135D01*
X1191588Y985192D01*
X1191768Y985244D01*
X1191948Y985292D01*
X1192130Y985335D01*
X1192313Y985374D01*
X1192497Y985408D01*
X1192682Y985438D01*
X1192867Y985463D01*
X1193053Y985483D01*
X1193239Y985499D01*
X1193426Y985511D01*
X1193613Y985518D01*
X1193800Y985520D01*
X1193987Y985518D01*
X1194174Y985511D01*
X1194361Y985499D01*
X1194547Y985483D01*
X1194733Y985463D01*
X1194918Y985438D01*
X1195103Y985408D01*
X1195287Y985374D01*
X1195470Y985335D01*
X1195652Y985292D01*
X1195832Y985244D01*
X1196012Y985192D01*
X1196190Y985135D01*
X1196367Y985075D01*
X1196542Y985009D01*
X1196716Y984940D01*
X1196888Y984866D01*
X1197058Y984788D01*
X1197226Y984706D01*
X1197392Y984620D01*
X1197556Y984530D01*
X1197717Y984436D01*
X1197877Y984338D01*
X1198033Y984236D01*
X1198188Y984130D01*
X1198339Y984020D01*
X1198488Y983907D01*
X1198634Y983790D01*
X1198777Y983670D01*
X1198917Y983546D01*
X1199054Y983419D01*
X1199188Y983288D01*
X1199319Y983154D01*
X1199446Y983017D01*
X1199570Y982877D01*
X1199690Y982734D01*
X1199807Y982588D01*
X1199920Y982439D01*
X1200030Y982288D01*
X1200136Y982133D01*
X1200238Y981977D01*
X1200336Y981817D01*
X1200430Y981656D01*
X1200520Y981492D01*
X1200606Y981326D01*
X1200688Y981158D01*
X1200766Y980988D01*
X1200840Y980816D01*
X1200909Y980642D01*
X1200975Y980467D01*
X1201035Y980290D01*
X1201092Y980112D01*
X1201144Y979932D01*
X1201192Y979752D01*
X1201235Y979570D01*
X1201274Y979387D01*
X1201308Y979203D01*
X1201338Y979018D01*
X1201363Y978833D01*
X1201383Y978647D01*
X1201399Y978461D01*
X1201411Y978274D01*
X1201418Y978087D01*
X1201420Y977900D01*
X1201418Y977713D01*
X1201411Y977526D01*
X1201399Y977339D01*
X1201383Y977153D01*
X1201363Y976967D01*
X1201338Y976782D01*
X1201308Y976597D01*
X1201274Y976413D01*
X1201235Y976230D01*
X1201192Y976048D01*
X1201144Y975868D01*
X1201092Y975688D01*
X1201035Y975510D01*
X1200975Y975333D01*
X1200909Y975158D01*
X1200840Y974984D01*
X1200766Y974812D01*
X1200688Y974642D01*
X1200606Y974474D01*
X1200520Y974308D01*
X1200430Y974144D01*
X1200336Y973983D01*
X1200238Y973823D01*
X1200136Y973667D01*
X1200030Y973512D01*
X1199920Y973361D01*
X1199807Y973212D01*
X1199690Y973066D01*
X1199570Y972923D01*
X1199446Y972783D01*
X1199319Y972646D01*
X1199188Y972512D01*
X1199054Y972381D01*
X1198917Y972254D01*
X1198777Y972130D01*
X1198634Y972010D01*
X1198488Y971893D01*
X1198339Y971780D01*
X1198188Y971670D01*
X1198033Y971564D01*
X1197877Y971462D01*
X1197717Y971364D01*
X1197556Y971270D01*
X1197392Y971180D01*
X1197226Y971094D01*
X1197058Y971012D01*
X1196888Y970934D01*
X1196716Y970860D01*
X1196542Y970791D01*
X1196367Y970725D01*
X1196190Y970665D01*
X1196012Y970608D01*
X1195832Y970556D01*
X1195652Y970508D01*
X1195470Y970465D01*
X1195287Y970426D01*
X1195103Y970392D01*
X1194918Y970362D01*
X1194733Y970337D01*
X1194547Y970317D01*
X1194361Y970301D01*
X1194174Y970289D01*
X1193987Y970282D01*
X1193800Y970280D01*
X1193613Y970282D01*
X1193426Y970289D01*
X1193239Y970301D01*
X1193053Y970317D01*
X1192867Y970337D01*
X1192682Y970362D01*
X1192497Y970392D01*
X1192313Y970426D01*
X1192130Y970465D01*
X1191948Y970508D01*
X1191768Y970556D01*
X1191588Y970608D01*
X1191410Y970665D01*
X1191233Y970725D01*
X1191058Y970791D01*
X1190884Y970860D01*
X1190712Y970934D01*
X1190542Y971012D01*
X1190374Y971094D01*
X1190208Y971180D01*
X1190044Y971270D01*
X1189883Y971364D01*
X1189723Y971462D01*
X1189567Y971564D01*
X1189412Y971670D01*
X1189261Y971780D01*
X1189112Y971893D01*
X1188966Y972010D01*
X1188823Y972130D01*
X1188683Y972254D01*
X1188546Y972381D01*
X1188412Y972512D01*
X1188281Y972646D01*
X1188154Y972783D01*
X1188030Y972923D01*
X1187910Y973066D01*
X1187793Y973212D01*
X1187680Y973361D01*
X1187570Y973512D01*
X1187464Y973667D01*
X1187362Y973823D01*
X1187264Y973983D01*
X1187170Y974144D01*
X1187080Y974308D01*
X1186994Y974474D01*
X1186912Y974642D01*
X1186834Y974812D01*
X1186760Y974984D01*
X1186691Y975158D01*
X1186625Y975333D01*
X1186565Y975510D01*
X1186508Y975688D01*
X1186456Y975868D01*
X1186408Y976048D01*
X1186365Y976230D01*
X1186326Y976413D01*
X1186292Y976597D01*
X1186262Y976782D01*
X1186237Y976967D01*
X1186217Y977153D01*
X1186201Y977339D01*
X1186189Y977526D01*
X1186182Y977713D01*
X1186180Y977900D01*
D23*
X1193800Y977900D03*
D24*
X105410Y25400D03*
X123190Y25400D03*
M02*
